<?xml version="1.0" encoding="iso-8859-1"?><!-- Generator: Adobe Illustrator 16.0.0, SVG Export Plug-In . SVG Version: 6.00 Build 0) --><!DOCTYPE svg PUBLIC "-//W3C//DTD SVG 1.1//EN" "http://www.w3.org/Graphics/SVG/1.1/DTD/svg11.dtd"><svg version="1.1" id="Layer_1" xmlns="http://www.w3.org/2000/svg" xmlns:xlink="http://www.w3.org/1999/xlink" x="0px" y="0px" width="192.756px" height="192.756px" viewBox="0 0 192.756 192.756" style="enable-background:new 0 0 192.756 192.756;" xml:space="preserve"><g><polygon style="fill-rule:evenodd;clip-rule:evenodd;fill:#FFFFFF;" points="0,0 192.756,0 192.756,192.756 0,192.756 0,0	"/><path style="fill-rule:evenodd;clip-rule:evenodd;" d="M110.699,98.484h2c0,2.213,0.369,4.766,0.896,6.688	c0.5,1.766,1.789,3.424,2.922,4.688c2.107,2.422,5.793,3.791,9.822,3.791c2.896,0,5.582-1,7.371-2.447	c1.896-1.555,3.107-3.793,3.107-6.479c0-2.238-0.947-4.291-2.211-5.582c-1.291-1.289-4.107-3.186-7.373-4.45l-4.688-1.79	c-3.949-1.527-7.424-3.871-9.162-6.03c-1.738-2.185-2.896-5.372-2.896-8.505c0-4.45,1.816-8.083,4.896-10.716	c3.082-2.607,8.031-4.002,13.852-4.002c6.607,0,11.189,1.106,15.639,3.897v3.923v7.583h-1.789c0-0.895-0.236-1.791-0.236-2.238	c0-0.658-0.211-1.343-0.211-1.79c0-0.448-0.449-0.896-0.449-1.343c-0.447-1.106-1.131-2.554-2-3.791	c-2.133-3.133-5.818-4.898-9.848-4.898c-2.66,0-5.266,0.843-6.926,2.212c-1.791,1.448-2.658,3.818-2.658,6.267	c0,2.001,0.658,3.897,1.789,5.135c1.211,1.343,3.766,2.765,6.898,4.028l4.266,1.765c4.398,1.79,8.031,4.134,10.033,6.267	c2.133,2.238,3.344,5.345,3.344,8.925c0,4.477-1.791,8.531-5.346,11.166c-3.527,2.633-8.479,4.238-14.508,4.238	c-2.922,0-6.846-0.553-11.164-1.344c-1.527-0.262-3.555-0.764-5.371-1.527V98.484L110.699,98.484z"/><path style="fill-rule:evenodd;clip-rule:evenodd;" d="M153.529,98.484h2c0,2.213,0.369,4.766,0.896,6.688	c0.5,1.766,1.791,3.424,2.922,4.688c2.107,2.422,5.793,3.791,9.822,3.791c2.896,0,5.582-1,7.371-2.447	c1.896-1.555,3.107-3.793,3.107-6.479c0-2.238-0.947-4.291-2.211-5.582c-1.291-1.289-4.107-3.186-7.373-4.45l-4.688-1.79	c-3.949-1.527-7.424-3.871-9.162-6.03c-1.738-2.185-2.896-5.372-2.896-8.505c0-4.45,1.816-8.083,4.898-10.716	c3.08-2.607,8.029-4.002,13.85-4.002c6.609,0,11.189,1.106,15.641,3.897v3.923v7.583h-1.791c0-0.895-0.236-1.791-0.236-2.238	c0-0.658-0.211-1.343-0.211-1.79c0-0.448-0.449-0.896-0.449-1.343c-0.447-1.106-1.131-2.554-2-3.791	c-2.133-3.133-5.82-4.898-9.848-4.898c-2.66,0-5.266,0.843-6.926,2.212c-1.789,1.448-2.658,3.818-2.658,6.267	c0,2.001,0.658,3.897,1.789,5.135c1.213,1.343,3.766,2.765,6.898,4.028l4.266,1.765c4.398,1.79,8.031,4.134,10.033,6.267	c2.133,2.238,3.344,5.345,3.344,8.925c0,4.477-1.791,8.531-5.346,11.166c-3.527,2.633-8.479,4.238-14.508,4.238	c-2.922,0-6.846-0.553-11.164-1.344c-1.527-0.262-3.555-0.764-5.371-1.527V98.484L153.529,98.484z"/><path style="fill-rule:evenodd;clip-rule:evenodd;" d="M78.539,63.165c6.688,0,12.507,2.001,16.746,5.583	c5.582,4.45,8.479,11.611,8.479,20.985c0,3.581-0.658,6.925-1.553,10.058c-1.133,3.107-2.896,6.029-4.924,8.031	c-4.451,4.688-10.928,7.135-19.433,7.135c-7.794,0-14.061-2.236-18.3-6.688c-4.476-4.477-6.688-11.164-6.688-19.432	c0-8.031,2.211-14.298,6.688-18.747C64.031,65.614,70.508,63.165,78.539,63.165L78.539,63.165z M78.565,64.508	c-4.476,0-8.057,2.422-10.269,6.898c-1.79,3.792-2.949,9.848-2.949,17.431c0,8.268,1.159,14.483,2.949,18.274	c2.001,4.266,5.319,6.477,9.584,6.477c8.953,0,13.376-8.215,13.376-24.329c0-8.478-1.106-14.745-3.107-18.537	c-0.896-1.791-2.476-3.318-4.266-4.477c-1.738-1.105-3.792-1.737-5.583-1.737H78.565L78.565,64.508z"/><path style="fill-rule:evenodd;clip-rule:evenodd;" d="M30.745,88.88c4.924,0,9.164,1.105,11.823,3.344	c2.686,2.027,4.029,5.135,4.029,8.926c0,2.238-0.659,4.477-1.554,6.268c-1.132,1.789-2.922,3.58-4.924,4.475	c-1.553,0.66-3.792,1.318-6.029,1.555c-2.238,0.447-5.582,0.658-9.584,0.658h-9.848H5.52H2.834v-1.344H8.18V65.446H2.834v-1.343	h10.059h11.164c3.107,0,6.03,0.211,8.242,0.448c3.818,0.448,6.925,1.764,9.163,3.792c2.238,2.001,3.344,4.897,3.344,8.268	c0,4.45-2.001,7.794-5.793,9.821c-1.791,0.895-4.687,1.791-8.505,2.001L30.745,88.88L30.745,88.88z M19.818,112.762h3.371	c2.211,0,4.002-0.209,5.319-0.473c1.369-0.422,2.686-1.316,3.581-2.422c1.58-2.002,2.476-4.898,2.476-8.48	c0-3.791-0.896-6.951-2.476-8.741c-0.895-0.896-2-1.791-3.317-2.212c-1.37-0.474-3.581-0.895-5.846-0.895h-3.107V112.762	L19.818,112.762z M19.818,88.222h3.107c3.16,0,5.846-0.896,7.373-2.686c1.58-1.79,2.475-4.687,2.475-8.742	c0-3.107-0.685-6.003-1.791-7.794c-0.684-1.369-1.79-2.264-2.896-2.686c-1.369-0.474-3.37-0.895-5.582-0.895h-2.686V88.222	L19.818,88.222z"/><path style="fill-rule:evenodd;clip-rule:evenodd;" d="M3.533,129.486v-6.32h0.789v2.633H7.64v-2.633h0.79v6.32H7.64v-2.949H4.322	v2.949H3.533L3.533,129.486z M31.153,123.166h0.79v3.66c0,0.633-0.079,1.158-0.21,1.502c-0.158,0.367-0.421,0.684-0.79,0.895	c-0.369,0.236-0.869,0.369-1.474,0.369c-0.579,0-1.08-0.105-1.448-0.291c-0.369-0.209-0.632-0.525-0.79-0.895	c-0.079-0.184-0.158-0.422-0.185-0.658c-0.026-0.264-0.053-0.58-0.053-0.922v-3.66h0.79v3.66c0,0.553,0.053,0.975,0.132,1.211	c0.105,0.264,0.29,0.475,0.553,0.605c0.264,0.133,0.58,0.211,0.922,0.211c0.632,0,1.079-0.131,1.343-0.395	c0.263-0.264,0.421-0.842,0.421-1.633V123.166L31.153,123.166z M53.376,127.01v-0.736h2.66v2.344	c-0.421,0.316-0.843,0.578-1.264,0.736s-0.896,0.238-1.343,0.238c-0.606,0-1.185-0.133-1.659-0.369	c-0.5-0.264-0.896-0.658-1.132-1.133c-0.263-0.5-0.395-1.08-0.395-1.684c0-0.607,0.132-1.186,0.369-1.713	c0.263-0.527,0.632-0.922,1.106-1.186c0.474-0.262,1.027-0.395,1.659-0.395c0.448,0,0.869,0.08,1.237,0.211	c0.369,0.158,0.659,0.369,0.843,0.633c0.211,0.262,0.369,0.605,0.474,1.025l-0.737,0.186c-0.079-0.289-0.21-0.553-0.342-0.711	s-0.342-0.316-0.605-0.422c-0.264-0.105-0.553-0.184-0.869-0.184c-0.369,0-0.711,0.053-0.974,0.158	c-0.264,0.105-0.527,0.289-0.685,0.473c-0.158,0.186-0.316,0.422-0.395,0.633c-0.158,0.369-0.237,0.816-0.237,1.238	c0,0.551,0.105,1.025,0.264,1.395c0.185,0.369,0.474,0.684,0.842,0.842s0.79,0.264,1.211,0.264c0.342,0,0.711-0.078,1.027-0.184	c0.342-0.133,0.632-0.316,0.816-0.475v-1.186H53.376L53.376,127.01z M74.151,126.432c0-1.027,0.29-1.844,0.816-2.422	c0.553-0.58,1.291-0.896,2.185-0.896c0.58,0,1.106,0.158,1.554,0.422s0.816,0.684,1.053,1.158c0.263,0.475,0.395,1.053,0.395,1.686	c0,0.631-0.132,1.211-0.395,1.686c-0.263,0.5-0.632,0.895-1.08,1.131c-0.474,0.264-1,0.396-1.527,0.396	c-0.579,0-1.132-0.158-1.58-0.422c-0.474-0.264-0.842-0.686-1.053-1.158c-0.237-0.475-0.369-1.027-0.369-1.555V126.432	L74.151,126.432z M74.994,126.457c0,0.738,0.21,1.316,0.605,1.738s0.921,0.658,1.527,0.658c0.632,0,1.159-0.211,1.553-0.631	c0.421-0.422,0.632-1.055,0.632-1.844c0-0.5-0.105-0.947-0.263-1.316s-0.448-0.686-0.763-0.896	c-0.316-0.209-0.711-0.314-1.133-0.314c-0.579,0-1.105,0.211-1.527,0.605S74.994,125.537,74.994,126.457L74.994,126.457z"/><path style="fill-rule:evenodd;clip-rule:evenodd;" d="M112.641,129.486v-6.32h2.344c0.475,0,0.869,0.08,1.133,0.186	c0.289,0.131,0.525,0.342,0.684,0.605c0.158,0.262,0.264,0.578,0.264,0.842s-0.078,0.553-0.211,0.764	c-0.158,0.236-0.395,0.447-0.684,0.605c0.367,0.105,0.684,0.289,0.895,0.553s0.316,0.605,0.316,0.947	c0,0.291-0.08,0.58-0.186,0.816c-0.105,0.264-0.289,0.475-0.447,0.607c-0.184,0.131-0.447,0.236-0.711,0.289	s-0.631,0.105-1.027,0.105H112.641L112.641,129.486z M113.43,125.852h1.369c0.369,0,0.66-0.025,0.816-0.053	c0.211-0.053,0.369-0.184,0.475-0.342c0.053-0.053,0.105-0.158,0.133-0.236c0.025-0.105,0.051-0.211,0.051-0.316	c0-0.211-0.051-0.395-0.156-0.553s-0.264-0.289-0.449-0.342c-0.184-0.053-0.525-0.105-0.973-0.105h-1.266V125.852L113.43,125.852z M113.43,128.748h1.58c0.264,0,0.475-0.025,0.58-0.025c0.184-0.027,0.369-0.105,0.475-0.158c0.131-0.053,0.262-0.184,0.342-0.342	c0.078-0.158,0.131-0.344,0.131-0.555c0-0.209-0.078-0.42-0.184-0.578s-0.316-0.316-0.527-0.369	c-0.211-0.078-0.553-0.131-0.922-0.131h-1.475V128.748L113.43,128.748z M136.285,126.432c0-1.027,0.289-1.844,0.816-2.422	c0.553-0.58,1.291-0.896,2.186-0.896c0.58,0,1.105,0.158,1.553,0.422c0.449,0.264,0.816,0.684,1.055,1.158	c0.264,0.475,0.395,1.053,0.395,1.686c0,0.631-0.131,1.211-0.395,1.686c-0.264,0.5-0.633,0.895-1.08,1.131	c-0.475,0.264-1,0.396-1.527,0.396c-0.578,0-1.133-0.158-1.58-0.422c-0.473-0.264-0.842-0.686-1.053-1.158	c-0.236-0.475-0.369-1.027-0.369-1.555V126.432L136.285,126.432z M137.129,126.457c0,0.738,0.209,1.316,0.605,1.738	c0.395,0.422,0.922,0.658,1.525,0.658c0.633,0,1.16-0.211,1.555-0.631c0.422-0.422,0.633-1.055,0.633-1.844	c0-0.5-0.105-0.947-0.264-1.316s-0.447-0.686-0.764-0.896c-0.316-0.209-0.711-0.314-1.133-0.314c-0.578,0-1.105,0.211-1.527,0.605	S137.129,125.537,137.129,126.457L137.129,126.457z M161.062,127.484l0.791-0.053c0.025,0.289,0.131,0.553,0.236,0.738	c0.131,0.211,0.369,0.395,0.658,0.5c0.131,0.053,0.289,0.131,0.447,0.131c0.158,0.027,0.342,0.053,0.5,0.053	c0.316,0,0.605-0.053,0.844-0.131c0.236-0.08,0.447-0.211,0.553-0.369s0.184-0.369,0.184-0.553s-0.053-0.369-0.158-0.5	c-0.105-0.158-0.314-0.291-0.578-0.396c-0.158-0.051-0.527-0.156-1.107-0.289c-0.578-0.131-1.025-0.289-1.236-0.395	c-0.291-0.158-0.527-0.369-0.658-0.578c-0.133-0.211-0.211-0.502-0.211-0.791c0-0.316,0.105-0.605,0.264-0.869	s0.447-0.5,0.764-0.631c0.342-0.158,0.736-0.238,1.158-0.238c0.447,0,0.869,0.08,1.211,0.211c0.369,0.158,0.658,0.395,0.816,0.686	c0.105,0.156,0.184,0.314,0.236,0.473s0.08,0.344,0.08,0.5l-0.791,0.08c-0.025-0.395-0.184-0.711-0.42-0.896	c-0.238-0.209-0.633-0.314-1.107-0.314c-0.473,0-0.869,0.105-1.078,0.264c-0.211,0.184-0.344,0.42-0.344,0.684	c0,0.211,0.08,0.422,0.238,0.553c0.158,0.133,0.578,0.291,1.236,0.447c0.658,0.158,1.133,0.291,1.396,0.396	c0.369,0.158,0.658,0.395,0.816,0.658c0.053,0.104,0.131,0.262,0.184,0.395c0.053,0.158,0.08,0.316,0.08,0.473	c0,0.316-0.105,0.66-0.291,0.949c-0.184,0.289-0.473,0.525-0.816,0.684c-0.367,0.158-0.789,0.238-1.236,0.238	c-0.553,0-1.055-0.08-1.422-0.238c-0.369-0.158-0.686-0.42-0.896-0.736c-0.105-0.158-0.211-0.369-0.264-0.527	C161.09,127.906,161.062,127.695,161.062,127.484L161.062,127.484z M184.918,127.484l0.791-0.053	c0.025,0.289,0.131,0.553,0.236,0.738c0.131,0.211,0.369,0.395,0.658,0.5c0.131,0.053,0.289,0.131,0.447,0.131	c0.158,0.027,0.342,0.053,0.5,0.053c0.316,0,0.605-0.053,0.844-0.131c0.236-0.08,0.447-0.211,0.553-0.369s0.184-0.369,0.184-0.553	s-0.053-0.369-0.158-0.5c-0.105-0.158-0.314-0.291-0.578-0.396c-0.158-0.051-0.527-0.156-1.107-0.289	c-0.578-0.131-1.025-0.289-1.236-0.395c-0.289-0.158-0.527-0.369-0.658-0.578c-0.131-0.211-0.211-0.502-0.211-0.791	c0-0.316,0.105-0.605,0.264-0.869s0.447-0.5,0.764-0.631c0.342-0.158,0.736-0.238,1.158-0.238c0.447,0,0.869,0.08,1.211,0.211	c0.369,0.158,0.658,0.395,0.816,0.686c0.105,0.156,0.184,0.314,0.236,0.473s0.08,0.344,0.08,0.5l-0.791,0.08	c-0.025-0.395-0.184-0.711-0.42-0.896c-0.238-0.209-0.633-0.314-1.107-0.314c-0.473,0-0.869,0.105-1.078,0.264	c-0.211,0.184-0.342,0.42-0.342,0.684c0,0.211,0.078,0.422,0.236,0.553c0.158,0.133,0.578,0.291,1.236,0.447	c0.658,0.158,1.133,0.291,1.396,0.396c0.369,0.158,0.658,0.395,0.816,0.658c0.053,0.104,0.131,0.262,0.184,0.395	c0.053,0.158,0.08,0.316,0.08,0.473c0,0.316-0.105,0.66-0.291,0.949c-0.184,0.289-0.473,0.525-0.816,0.684	c-0.367,0.158-0.789,0.238-1.236,0.238c-0.553,0-1.055-0.08-1.422-0.238c-0.369-0.158-0.686-0.42-0.895-0.736	c-0.105-0.158-0.211-0.369-0.264-0.527C184.945,127.906,184.918,127.695,184.918,127.484L184.918,127.484z"/></g></svg>