<?xml version="1.0" encoding="iso-8859-1"?><!-- Generator: Adobe Illustrator 16.0.0, SVG Export Plug-In . SVG Version: 6.00 Build 0) --><!DOCTYPE svg PUBLIC "-//W3C//DTD SVG 1.1//EN" "http://www.w3.org/Graphics/SVG/1.1/DTD/svg11.dtd"><svg version="1.1" id="Layer_1" xmlns="http://www.w3.org/2000/svg" xmlns:xlink="http://www.w3.org/1999/xlink" x="0px" y="0px" width="765.374px" height="277.202px" viewBox="0 0 765.374 277.202" style="enable-background:new 0 0 765.374 277.202;" xml:space="preserve"><g><path d="M99.217,269.29c8.75-7.215,12.226-22.029,12.226-37.046v-25.786c0-8.136-0.115-16.271-1.497-22.411	c-1.381-6.14-4.087-10.283-6.792-14.427c2.68-3.192,5.36-6.386,6.741-11.144c1.382-4.759,1.548-11.081,1.548-17.405v-19.339	c0-10.359,0.214-21.074-3.529-29.71c-3.743-8.637-9.908-15.083-18.476-19.025c-8.569-3.943-19.428-3.844-29.891-3.844H0v206.375	h58.945C74.713,275.528,90.467,276.504,99.217,269.29L99.217,269.29z M38.683,106.998L38.683,106.998h14.736	c5.719,0,11.404,0.877,14.32,3.333c2.917,2.456,3.18,6.927,3.18,11.402v16.577c0,4.586-1.812,8.992-4.728,11.141	c-2.917,2.148-7.84,1.751-12.771,1.751H38.683V106.998L38.683,106.998z M38.683,190.802L38.683,190.802h14.736	c5.719,0,11.404,0.877,14.32,3.333c2.917,2.456,3.18,6.927,3.18,11.402v16.577c0,4.586-1.812,8.992-4.728,11.142	c-2.917,2.148-7.84,1.751-12.771,1.751H38.683V190.802L38.683,190.802z M213.675,275.528L213.675,275.528h39.604v-69.07	c0-8.136-0.116-16.271-1.497-22.411c-1.382-6.14-4.087-10.283-6.792-14.427c2.68-3.192,5.36-6.386,6.741-11.144	c1.381-4.759,1.548-11.081,1.548-17.405v-19.339c0-10.359,0.213-21.074-3.529-29.71s-9.907-15.083-18.477-19.025	c-8.568-3.943-19.427-3.844-29.89-3.844h-59.546v206.375h38.841l-0.41-84.149l33.316,0.029L213.675,275.528L213.675,275.528z M209.574,110.33L209.574,110.33c2.916,2.456,3.18,6.927,3.18,11.402v16.577c0,4.586-1.812,8.992-4.728,11.141	c-2.917,2.148-7.84,1.751-12.771,1.751h-14.736v-44.204h14.736C200.973,106.998,206.657,107.875,209.574,110.33L209.574,110.33z M319.591,67.397L319.591,67.397c0-6.503-1.038-13.528,2.379-18.704s9.425-8.229,15.42-8.223	c5.996,0.006,11.981,3.071,15.443,8.233c3.463,5.161,2.677,12.184,2.677,18.694v84.725h-35.919V67.397L319.591,67.397z M355.51,275.528L355.51,275.528l35.375-0.056V60.641c0-12.473,1.058-25.425-2.818-35.359c-3.877-9.934-10.5-16.656-19.196-20.41	s-19.465-4.542-29.969-4.8c-10.505-0.257-20.746,0.015-29.909,3.583c-9.164,3.568-17.249,10.431-21.915,20.185	c-4.667,9.753-3.406,22.13-3.406,33.983v217.706h35.919v-87.489h35.919V275.528L355.51,275.528z M430.693,253.305L430.693,253.305	c4.795,9.78,12.847,16.646,21.993,20.214s19.387,3.841,29.931,3.632c10.545-0.208,21.391-0.897,30.24-5.132	s15.702-12.015,19.531-22s2.174-21.911,2.174-33.486V68.374H499.96l-0.853,141.403c-0.039,6.506,0.85,13.527-2.602,18.691	c-3.449,5.165-9.438,8.23-15.43,8.235s-11.986-3.051-15.442-8.21s-2.617-12.182-2.617-18.687V68.458h-36.101l-0.397,150.586	C426.486,231.024,425.897,243.524,430.693,253.305L430.693,253.305z M565.5,124.495L565.5,124.495v151.034h35.92l-0.252-141.489	c-0.01-6.505-0.839-13.527,2.617-18.687c3.457-5.16,9.451-8.215,15.443-8.209c5.99,0.005,11.979,3.07,15.429,8.234	s2.598,12.186,2.602,18.691l0.081,141.459h34.998l0.377-148.214c0.029-11.575,1.654-23.501-2.175-33.486s-10.682-17.765-19.531-22	c-8.849-4.235-19.696-4.924-30.249-5.14c-10.553-0.215-20.812,0.042-29.78,3.63s-16.644,10.505-21.265,20.225	C565.096,100.262,565.5,112.62,565.5,124.495L565.5,124.495z M724.936,112.429L724.936,112.429h5.51V98.974h8.233	c0.564,0,1.13-0.028,1.825,0.119c0.693,0.147,1.512,0.404,2.076,0.93c1.068,1.056,1.271,2.793,1.272,4.145l0.183,3.909	c0.029,1.563,0.182,3.041,0.835,4.353h6.184v-1.011c-0.354-0.213-0.71-0.426-0.938-1.051c-0.229-0.626-0.371-1.662-0.432-2.705	l-0.273-4.682c-0.052-0.859,0.023-1.727-0.323-2.699c-0.348-0.972-0.952-2.041-1.581-2.739s-1.281-1.027-1.979-1.11	c1.319-0.455,2.476-1.36,3.311-2.699s1.35-3.115,1.323-5.019c-0.027-1.905-0.596-3.94-1.613-5.445	c-1.018-1.505-2.485-2.481-4.14-3.063s-3.479-0.532-5.271-0.532h-14.201V112.429L724.936,112.429z M738.314,84.337L738.314,84.337	c1.381,0.012,2.922-0.028,4.361,0.891c1.384,0.93,2,2.612,1.934,4.011c0.002,0.73-0.072,1.445-0.338,2.141	c-0.264,0.697-0.719,1.375-1.401,1.858c-1.329,0.906-3.198,1.146-4.694,1.073H730.4v-9.973H738.314L738.314,84.337z M737.732,68.31	L737.732,68.31c-4.822,0-9.645,1.292-13.82,3.702c-4.177,2.41-7.707,5.939-10.118,10.114c-2.411,4.175-3.703,8.996-3.703,13.817	c0,4.82,1.292,9.642,3.703,13.817c2.411,4.175,5.941,7.705,10.118,10.115c4.176,2.41,8.998,3.702,13.82,3.702	s9.645-1.292,13.82-3.702c4.177-2.41,7.707-5.939,10.118-10.115c2.411-4.175,3.703-8.997,3.703-13.817	c0-4.821-1.292-9.642-3.703-13.817c-2.411-4.175-5.941-7.704-10.118-10.114C747.377,69.602,742.555,68.31,737.732,68.31	L737.732,68.31z M761.504,96.238L761.504,96.238c0,4.091-1.1,8.182-3.148,11.725c-2.051,3.542-5.051,6.536-8.601,8.581	c-3.55,2.046-7.648,3.142-11.747,3.142s-8.196-1.096-11.746-3.142c-3.549-2.045-6.551-5.039-8.6-8.581	c-2.051-3.542-3.148-7.634-3.148-11.725c0-4.092,1.098-8.182,3.148-11.725c2.049-3.542,5.051-6.537,8.6-8.582	c3.55-2.045,7.647-3.141,11.746-3.141s8.197,1.096,11.747,3.141s6.55,5.04,8.601,8.582	C760.404,88.056,761.504,92.146,761.504,96.238L761.504,96.238z"/></g></svg>