<?xml version="1.0" encoding="iso-8859-1"?><!-- Generator: Adobe Illustrator 16.0.0, SVG Export Plug-In . SVG Version: 6.00 Build 0) --><!DOCTYPE svg PUBLIC "-//W3C//DTD SVG 1.1//EN" "http://www.w3.org/Graphics/SVG/1.1/DTD/svg11.dtd"><svg version="1.1" id="Layer_1" xmlns="http://www.w3.org/2000/svg" xmlns:xlink="http://www.w3.org/1999/xlink" x="0px" y="0px" width="541.863px" height="112.523px" viewBox="0 0 541.863 112.523" style="enable-background:new 0 0 541.863 112.523;" xml:space="preserve"><g><path style="fill:#CC2229;" d="M42.715,80.075c8.676,14.225,24.588,23.769,42.297,23.769c26.166,0,40.57-22.581,40.57-22.581	l1.854,6.015c-12.114,15.755-33.755,25.246-57.967,25.246c-27.876,0-51.917-13.298-62.979-32.475C2.325,72.826,0,64.758,0,56.261	C0,25.188,31.099,0,69.468,0c27.11,0,48.937,11.612,60.395,28.44L84.375,55.679l25.96-39.862	c-7.427-4.671-16.539-9.045-25.96-9.045c-26.632,0-48.567,22.224-48.567,48.855C35.808,64.55,38.342,72.934,42.715,80.075	L42.715,80.075z"/><path style="fill:#CC2229;" d="M164.513,80.059c-0.135,0.896-0.204,1.812-0.204,2.745c0,10.109,8.196,18.306,18.306,18.306	c10.11,0,18.305-8.196,18.305-18.306c0-0.933-0.069-1.85-0.205-2.755c-1.324-8.797-8.923-15.55-18.101-15.55	C173.437,64.499,165.837,71.252,164.513,80.059L164.513,80.059z M232.438,80.049L232.438,80.049l9.098,30.646h-31.914	l-6.275-20.985c-4.202,12.092-18.383,20.985-35.229,20.985c-20.156,0-36.494-12.73-36.494-28.436c0-0.735,0.036-1.465,0.106-2.21	c1.434-14.659,17.177-26.226,36.388-26.226c10.904,0,20.691,3.726,27.378,9.633l-8.693-29.064h-36.628	c0,0,6.094-3.655,33.119-13.488c27.025-9.832,35.589,13.488,35.589,13.488L232.438,80.049L232.438,80.049z"/><path style="fill:#CC2229;" d="M334.475,80.049v30.646h-32.838V80.049V43.363c0-4.954-4.016-8.971-8.971-8.971	c-3.807,0-7.059,2.37-8.361,5.714v39.943v30.646h-32.229V80.049V34.392H233.28c0,0,26.148-15.841,35.215-15.841	c8.593,0,14.953,6.602,15.748,15.012c12.646-6.821,25.186-15.012,33.814-15.012c8.914,0,16.17,7.104,16.418,15.961V80.049	L334.475,80.049z"/><path style="fill:#CC2229;" d="M385.062,80.049l4.57,15.105c0.088,6.474,5.408,11.653,11.938,11.653	c6.676,0,12.086-5.41,12.086-12.085c0-0.473-0.027-0.938-0.08-1.396l-3.885-13.277l-13.643-46.627	c-0.672-6.042-5.793-10.739-12.014-10.739c-6.158,0-12.029,5.754-12.779,11.708L385.062,80.049L385.062,80.049z M437.322,80.055	L437.322,80.055c-6.219,18.857-23.98,32.469-44.922,32.469c-20.943,0-38.705-13.611-44.926-32.475	c-1.537-4.656-2.369-9.64-2.369-14.817c0-26.119,21.174-47.291,47.295-47.291c26.119,0,47.293,21.172,47.293,47.291	C439.693,70.409,438.861,75.393,437.322,80.055L437.322,80.055z"/><path style="fill:#CC2229;" d="M491.693,80.049v30.646h-32.23V80.049V34.392h-18.023c0,0,25.375-15.841,34.443-15.841	c8.594,0,14.953,6.602,15.75,15.012c12.646-6.821,25.184-15.012,33.812-15.012c8.916,0,16.172,7.104,16.418,15.961v45.537v30.646	h-32.838V80.049V43.363c0-4.954-4.016-8.971-8.971-8.971c-3.807,0-7.059,2.37-8.361,5.714V80.049L491.693,80.049z"/></g></svg>