<?xml version="1.0" encoding="iso-8859-1"?><!-- Generator: Adobe Illustrator 16.0.0, SVG Export Plug-In . SVG Version: 6.00 Build 0) --><!DOCTYPE svg PUBLIC "-//W3C//DTD SVG 1.1//EN" "http://www.w3.org/Graphics/SVG/1.1/DTD/svg11.dtd"><svg version="1.1" id="Layer_1" xmlns="http://www.w3.org/2000/svg" xmlns:xlink="http://www.w3.org/1999/xlink" x="0px" y="0px" width="722.594px" height="129.554px" viewBox="0 0 722.594 129.554" style="enable-background:new 0 0 722.594 129.554;" xml:space="preserve"><g><path d="M487.627,126.82c0,0.791,0.648,1.439,1.439,1.439h35.643c0.791,0,1.439-0.648,1.439-1.439V3.13	c0-0.792-0.648-1.44-1.439-1.44h-35.643c-0.791,0-1.439,0.648-1.439,1.44V126.82L487.627,126.82z"/><path d="M321.229,125.287L268.743,3.76c-0.314-0.727-1.219-1.322-2.011-1.322H213.92c-0.792,0-1.697,0.596-2.011,1.322	l-52.487,121.527c-0.314,0.728,0.077,1.323,0.869,1.323h37.135c0.792,0,1.683-0.602,1.979-1.336l7.584-18.781	c0.297-0.734,1.188-1.335,1.98-1.335h62.811c0.792,0,1.67,0.605,1.952,1.347l7.128,18.759c0.282,0.74,1.16,1.347,1.952,1.347	h37.547C321.152,126.61,321.543,126.015,321.229,125.287L321.229,125.287z M217.43,78.756L217.43,78.756l17.326-45.172	c2.062-4.537,4.022-5.156,5.879-5.156c1.96,0,4.229,1.856,5.466,5.362l17.087,44.966H217.43L217.43,78.756z"/><path d="M644.611,0.931h-40.668c-49.207,0.734-56.738,16.399-56.738,62.241c0,7.78,0,15.56,0.379,23.341	c1.328,30.552,18.027,40.039,45.922,42.127c8.729,0.569,29.062,0.948,29.902,0.912c0,0,22.912-0.343,31.641-0.912	c27.895-2.088,44.594-11.575,45.922-42.127c0.379-7.781,0.379-15.561,0.379-23.341C701.35,17.33,693.818,1.665,644.611,0.931	L644.611,0.931z M662.449,68.485L662.449,68.485c0,20.874-1.328,29.033-24.289,29.603c-5.988,0.332-21.777,0.332-27.766,0	c-22.961-0.569-24.291-8.729-24.291-29.603v-5.124c0-4.933,0-9.867,0.57-14.801c2.277-17.458,15.371-16.509,28.275-16.889	c4.73-0.07,13.924-0.07,18.656,0c12.904,0.38,25.998-0.569,28.275,16.889c0.568,4.934,0.568,9.868,0.568,14.801V68.485	L662.449,68.485z"/><path d="M114.932,79.383c-1.055,12.892-5.542,18.248-23.976,18.705c-5.988,0.332-21.778,0.332-27.766,0	c-22.961-0.569-24.289-8.729-24.289-29.603v-5.124c0-4.933,0-9.867,0.568-14.801c2.277-17.458,15.371-16.509,28.274-16.889	c4.732-0.07,13.926-0.07,18.658,0c12.312,0.362,24.788-0.472,27.886,14.611h39.365c-2.288-32.892-13.656-44.717-56.245-45.353	h-40.67C7.534,1.665,0,17.33,0,63.172c0,7.78,0,15.56,0.38,23.341c1.329,30.552,18.027,40.039,45.922,42.127	c8.729,0.569,29.062,0.948,29.903,0.912c0,0,22.911-0.343,31.64-0.912c27.896-2.088,44.594-11.575,45.922-42.127	c0.116-2.377,0.188-4.753,0.244-7.13H114.932L114.932,79.383z"/><path d="M420.9,50.294c-8.539-0.062-16.887-0.314-25.426-0.377l-10.541-0.457c-8.725-0.444-21.906,2.717-21.928-11.548	c-0.014-9.251,8.932-9.455,15.766-9.784c9.871-0.308,8.41-0.475,18.277-0.402c6.072,0.045,6.559,0.049,12.818,0.284	c8.537,0.443,14.215,2.572,14.713,12.064l37.762,0.277c-0.131-7.971,0.518-14.22-3.602-21.651	c-8.998-15.058-26.85-17.854-42.406-18.158l-18.281-0.515c-14.609-0.107-35.428-0.071-48.926,3.436	c-20.151,4.975-23.662,17.853-23.801,36.639c-0.076,10.227,2.291,17.986,6.563,23.589c5.636,7.392,14.589,11.029,25.627,11.623	c21.076,1.133,25.804,1.518,46.867,1.673l6.881,0.051c8.35,0.062,17.818,2.731,17.742,12.978	c-0.08,10.816-8.617,11.328-17.164,11.499c-4.213,0.084-9.223,0.071-17.762,0.009c-6.072-0.044-4.307-0.317-10.379-0.267	c-10.311,0.089-19.92-0.566-19.834-12.142l-37.952-0.28l-0.042,5.734c-0.211,28.637,18.624,32.224,39.602,33.689	c8.535,0.633,17.264,0.697,25.803,0.761c16.51,0.121,16.33-0.26,32.846-1.087c29.24-2.062,42.943-7.654,43.172-38.773	C467.539,56.331,450.312,50.511,420.9,50.294L420.9,50.294z"/><path d="M721.305,113.473c-0.859-1.5-2.041-2.678-3.545-3.533s-3.107-1.283-4.811-1.283c-1.695,0-3.297,0.428-4.805,1.283	s-2.689,2.033-3.545,3.533s-1.283,3.109-1.283,4.828c0,1.75,0.445,3.379,1.336,4.887s2.074,2.676,3.551,3.504	c1.477,0.827,3.059,1.242,4.746,1.242s3.271-0.415,4.752-1.242c1.48-0.828,2.666-1.996,3.557-3.504s1.336-3.137,1.336-4.887	C722.594,116.582,722.164,114.973,721.305,113.473L721.305,113.473z M720.004,122.455L720.004,122.455	c-0.758,1.277-1.764,2.266-3.018,2.965s-2.6,1.049-4.037,1.049s-2.783-0.35-4.037-1.049s-2.258-1.688-3.012-2.965	s-1.131-2.662-1.131-4.154c0-1.461,0.363-2.828,1.09-4.102s1.729-2.273,3.006-3s2.639-1.09,4.084-1.09s2.807,0.363,4.084,1.09	s2.279,1.727,3.006,3s1.09,2.641,1.09,4.102C721.137,119.793,720.762,121.178,720.004,122.455L720.004,122.455z"/><path d="M715.656,120.633c-0.469-0.867-0.91-1.43-1.324-1.688c0.789-0.336,1.375-0.812,1.758-1.43s0.574-1.266,0.574-1.945	c0-0.586-0.137-1.129-0.41-1.629s-0.646-0.885-1.119-1.154s-1.17-0.404-2.092-0.404h-3.785v11.906h1.875v-5.004h1.395	c0.195,0,0.512,0.387,0.949,1.16l0.387,0.738l1.629,3.105h2.133L715.656,120.633L715.656,120.633z M712.434,117.855	L712.434,117.855h-1.301v-4.031h1.418c0.656,0,1.115,0.09,1.377,0.27s0.461,0.404,0.598,0.674s0.205,0.572,0.205,0.908	c0,0.547-0.168,1.047-0.504,1.5S713.293,117.855,712.434,117.855L712.434,117.855z"/></g></svg>