<?xml version="1.0" encoding="iso-8859-1"?><!-- Generator: Adobe Illustrator 16.0.0, SVG Export Plug-In . SVG Version: 6.00 Build 0) --><!DOCTYPE svg PUBLIC "-//W3C//DTD SVG 1.1//EN" "http://www.w3.org/Graphics/SVG/1.1/DTD/svg11.dtd"><svg version="1.1" id="Layer_1" xmlns="http://www.w3.org/2000/svg" xmlns:xlink="http://www.w3.org/1999/xlink" x="0px" y="0px" width="400.492px" height="38.241px" viewBox="0 0 400.492 38.241" style="enable-background:new 0 0 400.492 38.241;" xml:space="preserve"><path d="M339.48,24.523l5.789-16.968l5.604,16.968H339.48 M279.449,17.948V2.315h2.713c4.484,0,7.492,2.916,7.492,8.188	c0,2.909-2.273,7.443-6.994,7.443L279.449,17.948L279.449,17.948z M250.128,24.523l5.791-16.968l5.604,16.968H250.128z M400.49,1.57	h-17.162v0.746h2.836v26.851L368.707,1.57h-7.502v0.746h2.83v33.956h-4.744L347.137,0l-12.556,36.271h-4.47V2.316h2.59V1.57h-6.77	l-9.644,28.321L306.184,1.57h-6.892v0.746h2.836v33.956c-2.396,0-5.202,0-5.202,0c-1.789,0-3.265-1.598-3.265-4.106v-5.271	c0-4.352-1.521-7.822-6.371-8.562c4.032-0.547,6.991-4.146,6.991-8.025c0-4.932-3.655-8.735-10.928-8.735h-10.82v0.746h2.83v33.956	h-5.424L257.785,0l-12.553,36.271H242.9v0.746h6.475v-0.746h-3.258l3.758-11.002h11.896l3.637,11.002h-4.455v0.746	c13.758,0,9.469,0,22.879,0v-0.746h-4.381V18.696h3.211c4.408,0,6.723,1.792,6.723,6.199v3.088c0,7.281,4.688,9.035,7.193,9.035	h9.391v-0.746h-3.09V4.857l11.889,32.54l11.268-33.603v32.478h-2.836v0.746h15.527v-0.746h-3.256l3.756-11.002h11.896l3.635,11.002	h-4.453v0.746h17.324v-0.746h-2.846V3.494l22.131,34.747V2.316h6.658v33.956h-2.838v0.746h9.758v-0.746h-2.836l-0.002-33.956	l2.838,0.001L400.49,1.57L400.49,1.57z"/><path d="M15.483,2.316c6.017,0,7.519,3.479,7.519,8.464h0.697V1.57H0v0.746h3.087v33.956H0v0.746h23.7V26.811h-0.697	c0,5.271-1.289,9.461-9.982,9.461H7.169V19.494h2.515c3.898,0,5.75,2.01,5.75,5.426h0.697v-11.6h-0.697	c0,3.466-1.852,5.427-5.75,5.427H7.169V2.316H15.483"/><path d="M169.947,37.172c-9.421,0-9.884-12.311-9.884-17.854c0-5.502,0.627-17.854,9.884-17.854c9.236,0,9.933,12.354,9.933,17.854	C179.88,24.82,179.352,37.172,169.947,37.172 M169.947,0.718c-9.271,0-15.36,10.32-15.36,18.603c0,9.037,6.59,18.551,15.36,18.551	s15.358-8.935,15.358-18.551C185.306,11.038,178.718,0.718,169.947,0.718z"/><path d="M100.088,37.172c-9.421,0-9.883-12.311-9.883-17.854c0-5.502,0.627-17.854,9.883-17.854c9.237,0,9.932,12.354,9.932,17.854	C110.021,24.82,109.491,37.172,100.088,37.172 M100.088,0.718c-9.271,0-15.36,10.32-15.36,18.603c0,9.037,6.589,18.551,15.36,18.551	c8.768,0,15.36-8.935,15.36-18.551C115.448,11.038,108.86,0.718,100.088,0.718z"/><path d="M123.686,17.948V2.315h2.713c4.485,0,7.493,2.916,7.493,8.188c0,2.909-2.275,7.443-6.995,7.443L123.686,17.948 M143.521,2.315l2.837,0.001v33.956h-5.198c-1.791,0-3.261-1.598-3.261-4.106v-5.271c0-4.352-1.523-7.822-6.371-8.562	c4.034-0.548,6.993-4.146,6.993-8.023c0-4.934-3.657-8.737-10.929-8.737h-10.82v0.746h2.83v33.956h-2.83v0.746h11.293v-0.746h-4.38	V18.696h3.21c4.41,0,6.722,1.74,6.722,6.199v3.088c0,7.39,4.688,9.035,7.195,9.035c0,0,0.132,0,12.467,0v-0.746h-2.837V2.316	l2.837,0.001V1.57h-9.758V2.315L143.521,2.315z"/><path d="M69.44,21.583h-2.067V2.315h2.067c5.131,0,8.34,2.647,8.34,9.731C77.78,18.443,75.313,21.583,69.44,21.583 M63.241,36.271	h-6.698V2.316c0,0,1.545,0,6.698,0V36.271z M70.437,1.57H52.36l-9.639,28.321L32.612,1.57h-6.885v0.746h2.835v33.956h-2.835v0.746	h6.668v-0.746H29.31V4.856l11.886,32.541L52.461,3.796v32.476h-2.836v0.746h20.586v-0.746h-2.838v-13.94h3.062	c8.103,0,12.024-4.509,12.024-10.281C82.459,6.482,79.007,1.57,70.437,1.57z"/><path d="M243.771,14.12c0.047,0.234,0.063,0.458,0.063,0.672c0,2.353-2.509,3.558-2.509,3.558H194.06c0,0-2.509-1.205-2.509-3.558	c0-0.214,0.021-0.438,0.065-0.672h17.54l1.738,2.05l0.404-2.05h11.871l1.562,1.763l1.494-1.763H243.771"/><polyline points="221.041,7.936 222.439,12.192 211.307,12.192 211.475,7.936 221.041,7.936 "/><path d="M248.98,7.964c0.045,0.234,0.063,0.459,0.063,0.676c0,2.351-2.506,3.555-2.506,3.555h-18.685l3.58-4.229L248.98,7.964"/><path d="M203.951,7.964l3.578,4.229H188.85c0,0-2.508-1.205-2.508-3.557c0-0.216,0.021-0.438,0.066-0.674L203.951,7.964"/><path d="M254.191,1.807c0.049,0.233,0.066,0.461,0.066,0.675c0,2.35-2.509,3.556-2.509,3.556h-18.685l3.582-4.229h17.543"/><path d="M223.725,5.055c-0.99,0-1.564,0.151-1.883,1.186h-10.486l-0.002-0.122c-0.021-2.146,1.104-4.199,1.164-4.3	c0.074-0.127,0.166-0.249,0.33-0.249l9.77,0.001c0.988,0,3.355,1.388,3.57,3.484H223.725"/><path d="M183.638,6.037c0,0-2.506-1.206-2.506-3.555c0-0.215,0.021-0.44,0.067-0.676h17.538l3.583,4.229L183.638,6.037"/><polyline points="221.598,26.23 222.691,29.418 219.551,29.418 220.676,26.23 221.598,26.23 "/><path d="M223.682,32.333l0.248,0.733h-1.365v0.668h4.637v-0.668h-1.352l-0.258-0.733h2.709c0.014,0.056,0.062,0.326,0.062,0.729	c0,1.824-1.012,3.193-2.623,3.955l-16.112-0.002c-2.269-1.088-2.614-2.973-2.614-3.988c0-0.385,0.051-0.646,0.062-0.694h1.195	c0.854,0.994,2.014,1.687,3.418,1.687c1.67,0,1.891-0.992,2.812-0.992c0.211,0,0.398,0.199,0.447,0.711h0.662v-1.4h2.176	l-0.264,0.732h-0.973v0.668h2.68V33.07h-0.973l0.262-0.733L223.682,32.333"/><path d="M211.896,21.523c0.594,0,1.027,0.17,1.361,0.332c0.159,0.078,0.506,0.287,0.676,0.287c0.354,0,0.508-0.131,0.584-0.57h0.6	v3.188h5.385l1.248-3.479l1.209,3.479h13.219c2.273-1.098,2.604-2.869,2.604-3.912c0-0.393-0.045-0.672-0.053-0.772h-42.061	c-0.011,0.045-0.05,0.276-0.05,0.622c0,1.002,0.33,2.947,2.651,4.064h8.01C208.107,23.025,209.646,21.523,211.896,21.523"/><path d="M201.875,26.229c-0.018,0.021-0.068,0.285-0.068,0.68c0,1,0.354,2.857,2.594,3.938c1.322,0.01,1.062,0.016,2.91,0.018	c-0.492-1.008-0.754-2.112-0.754-3.084c0-0.479,0.064-1.008,0.197-1.547L201.875,26.229"/><polyline points="219.041,30.859 219.324,30.062 222.914,30.062 223.184,30.859 219.041,30.859 "/><path d="M223.473,26.23l10.049,0.002c0.006,0.025,0.051,0.267,0.051,0.633c0,0.99-0.324,2.898-2.604,3.994h-5.895L223.473,26.23"/><path d="M219.979,26.23l-11.158-0.002c-0.051,0.553-0.062,1.088-0.062,1.549c0,0.945,0.055,2.082,0.311,3.084l4.793-0.002v-1.696	l-1.082-0.002v-0.666h3.754v0.666l-0.922,0.002v1.696h2.705L219.979,26.23"/><path d="M213.521,32.333c-0.354,0.588-0.98,1.03-1.834,1.03c-0.918,0-1.553-0.405-1.986-1.03H213.521"/><path d="M209.062,24.762c0.356-1.396,1.146-2.57,2.846-2.57c0.955,0,2.045,0.758,2.469,2.57H209.062"/></svg>