<?xml version="1.0" encoding="iso-8859-1"?><!-- Generator: Adobe Illustrator 16.0.0, SVG Export Plug-In . SVG Version: 6.00 Build 0) --><!DOCTYPE svg PUBLIC "-//W3C//DTD SVG 1.1//EN" "http://www.w3.org/Graphics/SVG/1.1/DTD/svg11.dtd"><svg version="1.1" id="Layer_1" xmlns="http://www.w3.org/2000/svg" xmlns:xlink="http://www.w3.org/1999/xlink" x="0px" y="0px" width="192.756px" height="192.756px" viewBox="0 0 192.756 192.756" style="enable-background:new 0 0 192.756 192.756;" xml:space="preserve"><g><polygon style="fill-rule:evenodd;clip-rule:evenodd;fill:#FFFFFF;" points="0,0 192.756,0 192.756,192.756 0,192.756 0,0	"/><path style="fill-rule:evenodd;clip-rule:evenodd;" d="M96.532,150.039v-7.512l0.132,0.021l0.549-0.088l0.57-0.109l0.551-0.154	l0.725-0.33l0.527-0.33l0.482-0.373l0.703-0.725l0.439-0.637l0.373-0.66l0.418-0.855l0.264-0.791l0.219-0.77l0.176-0.812	l0.154-0.812l0.109-0.791l0.066-0.812l0.045-0.812v-0.506l-0.023-0.812l-0.043-0.812l-0.088-0.793l-0.154-0.834l-0.131-0.791	l-0.154-0.506l-0.219-0.592l-0.264-0.594l-0.309-0.549l-0.395-0.549l-0.375-0.484l-0.416-0.439l-0.439-0.352l-0.66-0.439	l-0.527-0.264l-0.549-0.197l-0.57-0.176l-0.748-0.109l-0.439-0.021v-6.789h0.505l0.857,0.088l0.812,0.133l0.791,0.152l0.746,0.242	l0.791,0.309l0.77,0.328l0.725,0.352l0.682,0.373l0.658,0.396l0.615,0.439l0.615,0.461l0.57,0.527l0.594,0.549l0.527,0.594	l0.527,0.658l0.506,0.748l0.439,0.725l0.352,0.637l0.285,0.658l0.285,0.682l0.264,0.791l0.219,0.791l0.221,0.812l0.154,0.791	l0.176,0.836l0.088,0.834l0.088,0.791l0.043,0.879v0.812v0.506l-0.021,0.855l-0.066,0.814l-0.088,0.834l-0.152,0.791l-0.133,0.857	l-0.176,0.791l-0.219,0.812l-0.264,0.791l-0.264,0.768l-0.309,0.814l-0.33,0.746l-0.373,0.746l-0.373,0.748l-0.219,0.352	l0.131-0.176l-0.242,0.328l-0.24,0.352l-0.484,0.639l-0.549,0.592l-0.549,0.594l-0.594,0.57l-0.594,0.527l-0.637,0.484	l-0.857,0.594l-0.68,0.395l-0.703,0.352l-0.725,0.307l-0.748,0.287l-0.812,0.197l-0.746,0.154l-0.748,0.109l-0.769,0.043H96.532	L96.532,150.039L96.532,150.039z M114.699,140.439l-1.34,1.186l-0.021,0.045l-0.154,0.197l-0.154,0.176l-0.088,0.242l-0.064,0.264	l-0.023,0.219v0.264l0.045,0.264l0.066,0.221l0.131,0.24l0.133,0.199l0.373,0.504l0.506,0.594l0.57,0.572l0.57,0.525l0.617,0.527	l0.637,0.484l0.879,0.594l0.68,0.395l0.682,0.373l0.703,0.33l0.725,0.264l0.725,0.242l0.748,0.197l1.098,0.197l0.746,0.133	l0.77,0.043h0.748l0.768-0.043l0.748-0.133l0.746-0.109l0.748-0.221l0.725-0.219l0.9-0.352l0.637-0.307l0.66-0.33l0.637-0.396	l0.592-0.416l0.551-0.506l0.549-0.484l0.461-0.549l0.461-0.57l0.484-0.682l0.373-0.57l0.328-0.594l0.287-0.637l0.242-0.615	l0.152-0.682l0.109-0.682l0.066-0.68l0.021-0.396l-0.043-0.68l-0.088-0.682l-0.154-0.615l-0.197-0.682l-0.242-0.637l-0.307-0.637	l-0.352-0.594l-0.418-0.527l-0.506-0.57l-0.549-0.549l-0.57-0.484l-0.594-0.461l-0.637-0.439l-0.658-0.395l-0.682-0.352	l-0.703-0.33l-6.678-2.615l-0.287-0.176l-0.328-0.307l-0.309-0.309l-0.33-0.438l-0.219-0.33l-0.176-0.396l-0.131-0.395	l-0.066-0.395l-0.021-0.418l0.043-0.396l0.154-0.615l0.176-0.395l0.24-0.373l0.287-0.375l0.285-0.307l0.373-0.285l0.615-0.33	l0.482-0.131l0.527-0.066l0.527-0.045l0.527,0.045l0.506,0.066l0.506,0.152l0.504,0.197l0.439,0.264l0.439,0.287l2.066,1.955	l0.152,0.109l0.199,0.154l0.219,0.131l0.285,0.088l0.285,0.045h0.242l0.264-0.021l0.242-0.066l0.242-0.111l0.219-0.152l0.221-0.154	l0.152-0.197l2.154-2.131l0.176-0.176l0.109-0.221l0.131-0.264l0.045-0.307v-0.176v-0.264l-0.066-0.309l-0.109-0.264l-0.109-0.262	l-0.176-0.221l-0.111-0.109h0.023l-0.176-0.154l-0.572-0.527l-0.615-0.506l-0.637-0.461l-0.658-0.439l-0.682-0.395l-0.703-0.352	l-0.725-0.33l-1.033-0.373l-0.725-0.264l-0.725-0.221l-0.746-0.152l-0.77-0.111l-0.77-0.064l-0.746-0.045l-0.77,0.045l-0.77,0.064	l-0.746,0.111l-1.076,0.264l-0.66,0.152l-0.658,0.221l-0.637,0.285l-0.594,0.285l-0.57,0.373l-0.551,0.396l-0.637,0.594	l-0.461,0.549l-0.418,0.549l-0.418,0.615l-0.328,0.594l-0.285,0.768l-0.242,0.703l-0.154,0.725l-0.131,0.727l-0.066,0.746	l-0.021,0.746l0.043,0.727l0.066,0.768l0.109,0.682l0.154,0.682l0.219,0.658l0.242,0.637l0.506,0.814l0.418,0.637l0.482,0.57	l0.527,0.549l0.527,0.506l0.594,0.484l0.613,0.438l0.639,0.396l0.658,0.352l0.703,0.307l0.373,0.133l5.361,1.867l0.285,0.131	l0.352,0.176l0.352,0.221l0.418,0.373l0.285,0.352l0.242,0.373l0.152,0.33l0.154,0.352l0.088,0.373l0.066,0.373v0.242l-0.023,0.373	l-0.064,0.375l-0.154,0.328l-0.264,0.463l-0.33,0.395l-0.373,0.395l-0.658,0.484l-0.572,0.219l-0.549,0.221l-0.594,0.131	l-0.57,0.088l-0.637,0.021l-0.594-0.021l-0.594-0.088l-0.9-0.24l-0.549-0.221l-0.572-0.307L120.148,142l-0.506-0.375l-0.439-0.461	l-0.395-0.482l-0.352-0.506l-0.154-0.264l-0.045-0.021l-0.088-0.109l-0.109-0.154l-0.152-0.176l-0.176-0.133l-0.33-0.176	l-0.264-0.043h-0.309l-0.307,0.021l-0.285,0.066l-0.285,0.131l-0.242,0.133L114.699,140.439L114.699,140.439L114.699,140.439	L114.699,140.439z M148.422,149.777l2.416-0.023h0.088l0.264-0.043l0.242-0.066l0.264-0.109l0.197-0.154l0.242-0.154l0.154-0.219	l0.152-0.221l0.109-0.24l0.088-0.287l0.066-0.264v-0.131l-0.131-0.109v-22.123v-0.043l0.043-0.266l0.088-0.262l0.154-0.309	l0.131-0.219l0.199-0.176l0.197-0.154l0.219-0.154l0.264-0.088l0.242-0.066l0.264-0.043l0.285,0.021l3.801-0.021l0.197,0.021	l0.221-0.021l0.242-0.066l0.219-0.066l0.285-0.176l0.221-0.219l0.197-0.197l0.131-0.264l0.111-0.264l0.088-0.264l0.064-0.33	l0.023-3.668l-0.088-0.264l-0.088-0.242l-0.088-0.197l-0.133-0.221l-0.197-0.219l-0.197-0.154l-0.221-0.133l-0.264-0.131	l-0.219-0.043l-0.264-0.045l-0.242-0.021h-19.486l-0.088,0.021l-0.242,0.045l-0.24,0.064l-0.264,0.109l-0.221,0.154l-0.176,0.176	l-0.197,0.176l-0.109,0.197l-0.088,0.221l-0.088,0.242l-0.045,0.219l-0.088,3.734v0.176l0.023,0.264l0.064,0.221l0.133,0.285	l0.131,0.197l0.176,0.197l0.176,0.176l0.199,0.133l0.219,0.088l0.242,0.088l0.264,0.043h0.197l4.086,0.023l0.264,0.021l0.264,0.066	l0.242,0.109l0.24,0.154l0.176,0.152l0.176,0.221l0.154,0.176l0.133,0.242l0.043,0.262l0.045,0.133l-0.111,0.176v22.166v0.066	l0.023,0.285l0.043,0.242l0.109,0.307l0.088,0.221l0.154,0.197l0.176,0.197l0.221,0.154l0.197,0.133l0.242,0.109l0.24,0.043	l0.242,0.023h0.088H148.422L148.422,149.777L148.422,149.777L148.422,149.777z M165.314,116.648h-0.088l-0.264,0.043l-0.264,0.066	l-0.307,0.176l-0.197,0.131l-0.197,0.199l-0.154,0.152l-0.133,0.242l-0.109,0.219l-0.066,0.242l-0.021,0.285l-0.109,0.133v29.307	v0.043l0.021,0.264l0.045,0.242l0.176,0.395l0.176,0.221l0.176,0.219l0.219,0.176l0.242,0.154l0.264,0.088l0.285,0.088l0.109,0.021	h0.154l16.982,0.023h0.043l0.264-0.023l0.242-0.043l0.197-0.066l0.264-0.154l0.197-0.154l0.197-0.219l0.133-0.221l0.154-0.24	l0.064-0.285l0.045-0.242l0.021-0.197l0.045-3.648v-0.043v-0.109l-0.045-0.264l-0.066-0.264l-0.109-0.199l-0.131-0.197	l-0.176-0.197l-0.221-0.197l-0.219-0.133l-0.242-0.109l-0.264-0.109l-0.264-0.045l-0.131-0.064h-9.229l-0.197-0.023l-0.219-0.043	l-0.221-0.088l-0.24-0.154l-0.221-0.176l-0.197-0.197l-0.133-0.221l-0.109-0.285l-0.109-0.242l-0.045-0.285v-0.219l0.023-2.066	l0.021-0.264l0.109-0.219l0.109-0.242l0.221-0.307l0.176-0.176l0.219-0.133l0.221-0.131l0.264-0.066l0.264-0.043l0.24-0.023h0.088	l5.889-0.043h0.176l0.264-0.066l0.264-0.066l0.24-0.131l0.242-0.197l0.176-0.176l0.199-0.242l0.131-0.242l0.109-0.264l0.066-0.307	l0.043-0.264l-0.064-3.846l-0.045-0.24l-0.088-0.221l-0.109-0.24l-0.176-0.287l-0.197-0.176l-0.221-0.176l-0.219-0.131	l-0.264-0.066l-0.221-0.088l-0.285-0.021h-0.154l-5.887-0.066h-0.154l-0.285-0.043l-0.264-0.088l-0.264-0.133l-0.219-0.131	l-0.154-0.133l-0.154-0.197l-0.109-0.197l-0.088-0.221l-0.088-0.219v-0.221v-0.219l0.043-1.758l0.045-0.242l0.088-0.285l0.152-0.33	l0.154-0.176l0.176-0.197l0.221-0.154l0.197-0.131l0.242-0.088l0.242-0.066l0.262-0.021h9.074l0.242-0.021l0.24-0.023l0.264-0.109	l0.242-0.088l0.197-0.131l0.221-0.199l0.176-0.197l0.152-0.242l0.111-0.24l0.064-0.242l0.066-0.264v-0.307l-0.043-3.516	l-0.023-0.242l-0.064-0.242l-0.066-0.219l-0.242-0.264l-0.197-0.197l-0.242-0.176l-0.285-0.133l-0.264-0.109l-0.307-0.066	l-0.221-0.064H165.314L165.314,116.648z M96.532,116.076v6.789h-0.154l-0.571,0.064l-0.549,0.066l-0.593,0.176l-0.527,0.197	l-0.527,0.264l-0.461,0.33l-0.527,0.418l-0.417,0.439l-0.352,0.416l-0.374,0.66l-0.33,0.682l-0.417,1.164l-0.22,0.768l-0.154,0.791	l-0.132,0.814l-0.088,0.812l-0.044,0.791l-0.022,0.812l0.044,0.812l0.044,0.812l0.088,0.791l0.154,0.791l0.176,0.791l0.22,0.791	l0.241,0.746l0.286,0.77l0.176,0.373l0.264,0.549l0.352,0.506l0.505,0.615l0.373,0.352l0.396,0.33l0.439,0.285l0.22,0.109	l0.549,0.242l0,0l0.11,0.066l0.286,0.064l0.571,0.111l0.549,0.064l0.417,0.023v7.512l-0.374,0.023l-0.747-0.023l-0.769-0.109	l-0.374-0.043l-0.198-0.045l-0.725-0.152l-0.747-0.221l-0.747-0.242l-0.725-0.307l-0.703-0.33l-0.681-0.373l-0.659-0.418	l-0.637-0.439l-0.615-0.527l-0.571-0.506l-0.527-0.549l-0.857-0.943l-0.461-0.639l-0.417-0.68l-0.396-0.682l-0.374-0.703	l-0.198-0.418l-0.329-0.768l-0.286-0.77l-0.264-0.77l-0.264-0.791l-0.176-0.789l-0.197-0.814l-0.132-0.812l-0.131-0.834	l-0.066-0.791l-0.044-0.836v-0.834v-0.834l0.066-0.814l0.109-0.812l0.11-0.834l0.132-0.812l0.22-0.791l0.197-0.791l0.264-0.791	l0.286-0.812l0.285-0.748l0.308-0.592l0.374-0.727l0.417-0.703l0.439-0.68l0.461-0.66l0.505-0.658l0.615-0.658l0.571-0.572	l0.594-0.482l0.637-0.484l0.681-0.439l0.682-0.418l0.747-0.395l0.747-0.33l0.725-0.285l0.769-0.242l0.77-0.197l0.791-0.131	l0.813-0.111l0.812-0.043L96.532,116.076L96.532,116.076L96.532,116.076z M41.896,142.373v-5.668h1.362h0.044h0.241l0.22-0.088	l0.198-0.088l0.264-0.133l0.175-0.152l0.154-0.154l0.11-0.197l0.11-0.176l0.044-0.242l0.088-0.221v-0.131l-0.022-0.219	l-0.066-0.221v-0.043l-2.351-10.502l-0.044-0.021v-0.045l-0.022-0.021l-0.022-0.043l-0.021-0.045l-0.044-0.021l-0.022-0.045	l-0.044-0.021l-0.109-0.088l-0.066-0.043l-0.11-0.023h-0.066v-7.072l4.46,0.021l0.483,0.109l0.373,0.154l0.374,0.154l0.242,0.24	l0.132,0.154l0.11,0.197l0.088,0.197l0.044,0.023l8.172,29.459l-0.022,0.045l0.044,0.131l0.022,0.154l0.022,0.242l-0.022,0.264	l-0.044,0.262l-0.088,0.266l-0.132,0.24L56,149.184l-0.198,0.176l-0.198,0.176l-0.242,0.131l-0.22,0.066l-0.242,0.045h-0.176	l-5.075,0.021l-0.351-0.045l-0.286-0.064l-0.242-0.111l-0.22-0.176l-0.22-0.176l-0.132-0.219l-0.11-0.176l-0.11-0.221l-0.021-0.154	l-1.12-4.744l-0.088-0.221l-0.132-0.197l-0.132-0.219l-0.154-0.197l-0.197-0.111l-0.264-0.152l-0.242-0.111l-0.264-0.064	l-0.286-0.023h-0.066L41.896,142.373L41.896,142.373L41.896,142.373z M79.923,140.309l-1.34-1.518l-0.066-0.021l-0.198-0.131	l-0.241-0.066l-0.242-0.088l-0.264-0.021l-0.22,0.021l-0.197,0.043l-0.22,0.066l-0.198,0.088l-0.176,0.133l-0.132,0.176	l-0.154,0.152l-0.176,0.264l-0.286,0.484l-0.352,0.482l-0.373,0.439l-0.549,0.463l-0.483,0.328l-0.505,0.285l-0.527,0.221	l-0.506,0.176l-0.593,0.109l-0.593,0.066h-0.593l-0.615-0.045l-0.593-0.109l-0.571-0.176l-0.747-0.285l-0.527-0.33l-0.549-0.373	l-0.462-0.461l-0.593-0.594l-0.396-0.658l-0.374-0.682l-0.33-0.682l-0.285-0.703l-0.154-0.461l-0.154-0.77l-0.176-0.768	l-0.088-0.791l-0.044-0.791l-0.022-0.812l0.022-0.791l0.066-0.791l0.11-0.77l0.154-0.791l0.198-0.768l0.22-0.77l0.285-0.746	l0.22-0.551l0.286-0.57l0.352-0.549l0.374-0.506l0.483-0.549l0.483-0.418l0.505-0.395l0.527-0.309l0.549-0.264l0.637-0.242	l0.527-0.152l0.527-0.111l0.505-0.021l0.791,0.066l0.593,0.154l0.571,0.197l0.571,0.264l0.505,0.307l0.527,0.352l0.439,0.396	l0.417,0.461l0.396,0.461l0.088,0.111l0.154,0.109l0.154,0.109l0.176,0.066l0.264,0.043h0.242l0.285-0.021l0.242-0.066l0.22-0.109	l0.241-0.109l0.176-0.197l0.198-0.154l2.724-3.516l0.066-0.176l0.132-0.285l0.066-0.33l0.044-0.242v-0.131l-0.022-0.264	l-0.044-0.219l-0.088-0.242l-0.132-0.221l-0.132-0.176l-0.198-0.197l-0.154-0.109l-0.615-0.484l-0.615-0.482l-0.659-0.418	l-0.681-0.373l-0.703-0.352l-0.791-0.352l-0.747-0.219l-0.747-0.221l-0.747-0.176l-0.791-0.131l-0.769-0.088l-0.812-0.023	l-0.791,0.023l-0.769,0.043l-0.769,0.066l-0.791,0.154l-0.747,0.176l-1.077,0.328L66.237,117l-0.703,0.328l-0.725,0.373	l-0.681,0.396l-0.659,0.418l-0.637,0.482l-0.615,0.506l-0.703,0.703l-0.571,0.549l-0.505,0.615l-0.461,0.637l-0.483,0.637	l-0.395,0.682l-0.352,0.637l-0.308,0.748l-0.286,0.791l-0.264,0.789l-0.241,0.791l-0.264,1.164l-0.176,0.814l-0.11,0.812	l-0.11,0.834l-0.087,0.836l-0.044,0.834v0.812v0.836l0.065,0.834l0.088,0.836l0.11,0.812l0.132,0.812l0.197,0.834l0.198,0.812	l0.241,0.791l0.264,0.77l0.286,0.791l0.308,0.746l0.352,0.77l0.374,0.725l0.439,0.748l0.417,0.703l0.33,0.482l0.461,0.572	l0.725,0.768l0.571,0.506l0.637,0.461l0.637,0.418l0.681,0.395l0.505,0.285l0.703,0.33l0.725,0.264l0.747,0.242l0.747,0.197	l1.032,0.221l0.747,0.131l0.747,0.045h0.747l0.747-0.023l0.769-0.109l0.725-0.131l0.725-0.176l0.791-0.242l0.703-0.285l0.681-0.352	l0.681-0.352l0.615-0.418l0.593-0.439l0.571-0.482l0.549-0.551l0.505-0.549l0.461-0.592l0.417-0.639l0.374-0.637l0.33-0.615	l0.066-0.197l0.066-0.242l0.044-0.24l-0.022-0.375l-0.066-0.328l-0.11-0.287l-0.154-0.307l-0.176-0.309L79.923,140.309	L79.923,140.309L79.923,140.309z M10.196,149.777l14.038,0.021h0.088l0.264-0.045l0.264-0.088l0.308-0.131l0.22-0.199l0.197-0.219	l0.176-0.221l0.153-0.24l0.088-0.285l0.066-0.264l0.022-0.287v-3.668l-0.044-0.242l-0.065-0.219l-0.088-0.242l-0.176-0.309	l-0.154-0.197l-0.219-0.176l-0.22-0.152l-0.242-0.133l-0.242-0.066l-0.264-0.043l-0.176-0.021H18.5l-0.219-0.023l-0.242-0.043	l-0.198-0.088l-0.286-0.176l-0.198-0.154l-0.198-0.219l-0.132-0.242l-0.132-0.219l-0.066-0.266l-0.044-0.285v-0.131v-0.088v-22.057	v-0.088l-0.022-0.221l-0.044-0.24l-0.088-0.199l-0.153-0.262l-0.154-0.199l-0.197-0.176l-0.198-0.109l-0.22-0.131l-0.264-0.088	l-0.241-0.023l-0.242-0.021l-4.658,0.021h-0.176l-0.241,0.045l-0.22,0.066l-0.308,0.152l-0.198,0.154l-0.176,0.197l-0.176,0.197	l-0.11,0.242l-0.088,0.242l-0.044,0.242l-0.022,0.131v0.221l-0.044,29.217v0.154v0.197l0.044,0.221l0.044,0.242l0.088,0.24	l0.132,0.197l0.176,0.199l0.154,0.176l0.22,0.131l0.198,0.133l0.242,0.088l0.109,0.043L10.196,149.777L10.196,149.777	L10.196,149.777L10.196,149.777z M41.896,116.648v7.072h-0.044h-0.109l-0.088,0.045l-0.088,0.043l-0.11,0.066l-0.065,0.088	l-0.066,0.066l-0.021,0.043l-0.022,0.045l-0.044,0.109l-2.328,10.59v0.152l-0.022,0.242l0.022,0.176l0.044,0.221l0.088,0.197	l0.131,0.242l0.198,0.174l0.176,0.176l0.242,0.154l0.11,0.045l0.33,0.109h1.669v5.668h-0.044h-2.943l-0.088,0.021l-0.286,0.021	l-0.241,0.045l-0.286,0.088l-0.241,0.109l-0.22,0.154l-0.22,0.197l-0.176,0.197l-0.11,0.197l-0.066,0.199l-0.044,0.197	l-1.099,4.746l-0.088,0.24l-0.153,0.221l-0.154,0.197l-0.198,0.176l-0.176,0.154l-0.374,0.176l-0.264,0.043l-0.286,0.045	l-4.064-0.021h-0.198l-0.242-0.023l-0.242-0.088l-0.198-0.088L29,149.447l-0.154-0.154l-0.175-0.176l-0.11-0.197l-0.087-0.221	l-0.088-0.352l-0.044-0.264v-0.264l0.044-0.307v-0.045l8.15-29.504l0.088-0.197l0.132-0.264l0.22-0.24l0.22-0.242l0.242-0.154	l0.286-0.154l0.22-0.043l0.22-0.021h0.176H41.896L41.896,116.648z"/><polygon style="fill-rule:evenodd;clip-rule:evenodd;fill:#2B7563;" points="43.412,92.965 43.346,93.053 43.456,93.12	43.478,93.229 43.522,93.471 43.522,93.668 43.478,93.932 43.456,94.217 43.324,94.481 43.236,94.591 43.236,94.679 42.16,95.799	41.94,96.173 41.655,96.766 41.413,97.623 41.391,98.326 41.347,98.941 41.413,99.557 41.588,100.148 41.808,100.676	42.116,101.227 42.445,101.621 43.632,102.676 43.632,92.526 43.412,92.965 42.05,89.78 42.05,89.78 42.16,89.472 42.335,89.033	42.577,88.66 42.907,88.242 43.28,87.957 43.412,87.825 43.478,87.759 43.588,87.715 43.632,87.693 43.632,85.013 43.566,85.013	43.412,85.013 43.236,85.057 43.17,85.013 43.104,85.013 43.061,84.969 42.972,84.925 42.907,84.881 42.863,84.815 42.797,84.771	42.753,84.706 42.621,84.53 42.555,84.112 42.555,83.453 42.687,82.904 42.819,82.486 43.148,81.893 43.632,81.344 43.632,74.556	43.566,74.578 43.236,74.534 43.148,74.49 43.148,74.49 43.039,74.424 42.907,74.358 42.797,74.138 41.588,71.941 41.522,71.656	41.522,71.48 41.522,71.283 41.632,71.129 41.743,70.931 41.852,70.733 41.94,70.711 42.006,70.602 42.292,70.47 42.335,70.426	42.511,70.426 42.555,70.426 42.797,70.426 43.148,70.492 43.28,70.536 43.522,70.733 43.632,70.865 43.632,68.8 43.566,68.778	43.412,68.756 43.28,68.778 43.236,68.778 42.819,68.756 42.555,68.668 42.204,68.361 42.094,68.207 42.006,68.053 42.006,67.987	42.006,67.833 41.984,67.592 41.984,67.592 42.511,65.263 42.577,65.021 42.753,64.912 42.819,64.846 42.819,64.802 43.039,64.714	43.17,64.648 43.28,64.648 43.28,64.648 43.478,64.648 43.632,64.714 43.632,63.616 43.588,63.549 43.522,63.44 43.522,63.198	43.522,62.978 43.522,62.825 43.588,62.605 43.632,62.517 43.632,58.277 43.522,58.365 43.478,58.431 43.324,58.563 43.061,58.783	42.797,59.112 42.621,59.419 42.467,59.771 42.401,60.123 42.094,61.353 41.875,61.726 41.632,62.166 41.281,62.539 41.039,62.825	40.82,63.132 40.622,63.484 40.468,63.835 40.38,64.231 40.336,64.472 40.336,65.725 40.292,65.725 40.292,65.812 40.292,66.01	40.271,66.12 40.227,66.186 40.227,66.295 40.161,66.383 40.051,66.537 39.985,66.625 39.941,66.713 39.875,66.735 39.062,67.592	38.887,67.79 38.755,68.053 38.579,68.317 38.513,68.646 38.469,68.998 38.469,69.305 38.557,69.613 38.689,69.92 38.755,70.074	38.865,70.58 38.821,70.58 38.865,70.821 38.865,71.129 38.821,71.612 38.711,72.139 38.711,72.249 38.513,72.908 38.469,72.952	38.403,73.127 38.359,73.326 38.359,73.545 38.403,73.765 38.447,73.831 38.469,73.962 38.513,74.006 39.062,75.303 39.018,75.303	39.062,75.588 39.106,76.116 39.106,76.401 39.062,76.665 39.106,76.708 38.007,80.246 37.744,81.059 37.415,82.311 37.305,84.002	37.283,85.232 37.415,86.485 37.656,87.671 38.051,88.835 38.579,89.956 39.216,91.054 39.941,91.999 40.754,92.812 40.93,92.877	41.061,92.877 41.149,92.877 41.281,92.812 41.303,92.702 41.347,92.658 43.412,92.965	"/><polygon style="fill-rule:evenodd;clip-rule:evenodd;fill:#2B7563;" points="43.632,81.344 43.764,81.19 44.378,80.663	45.104,80.202 45.873,79.828 46.708,79.542 46.861,79.499 46.861,77.368 45.851,76.072 45.499,76.182 45.499,76.182 45.345,75.852	45.323,75.698 45.279,75.654 45.191,75.369 45.147,75.127 45.147,74.995 45.191,74.929 45.191,74.732 45.235,74.6 45.323,74.534	45.389,74.38 45.521,74.226 45.851,74.073 46.861,74.029 46.861,72.579 46.576,72.601 46.333,72.557 46.048,72.403 46.048,72.403	45.851,72.249 45.631,71.941 45.411,69.525 45.697,68.493 45.763,68.427 45.807,68.317 45.873,68.294 45.982,68.25 46.114,68.207	46.268,68.25 46.333,68.317 46.443,68.427 46.861,69.152 46.861,61.418 46.576,61.155 46.509,60.958 46.443,60.848 46.443,60.782	46.443,60.54 46.443,60.232 46.553,58.475 46.817,57.64 46.861,57.552 46.861,53.686 46.817,53.708 46.465,53.993 46.114,54.301	45.807,54.652 45.587,55.026 45.411,55.465 45.323,55.883 44.884,57.179 44.862,57.201 44.752,57.311 44.642,57.486 44.532,57.596	44.4,57.662 44.334,57.728 43.632,58.277 43.632,62.517 44.576,60.54 44.642,60.54 44.752,60.474 44.928,60.474 44.972,60.474	45.104,60.54 45.147,60.584 45.235,60.782 45.763,63.066 45.763,63.374 45.631,63.769 45.521,63.901 45.389,64.011 45.235,64.143	44.972,64.296 44.884,64.296 44.4,64.296 44.027,64.143 43.83,63.945 43.83,63.945 43.698,63.792 43.632,63.616 43.632,64.714	43.632,64.714 43.917,64.956 43.983,65.021 44.027,65.021 44.181,65.065 44.269,65.153 44.334,65.197 44.444,65.373 44.686,65.703	44.73,65.725 44.752,65.9 44.928,66.383 44.972,66.823 44.928,66.933 44.928,67.284 44.862,67.768 44.642,68.141 44.444,68.558	44.181,68.712 43.983,68.844 43.808,68.844 43.632,68.8 43.632,70.865 44.972,72.754 44.994,72.82 44.994,72.908 44.972,73.106	44.994,73.127 44.972,73.303 44.928,73.414 44.862,73.545 43.83,74.468 43.698,74.534 43.698,74.534 43.632,74.556 43.632,81.344	"/><polygon style="fill-rule:evenodd;clip-rule:evenodd;fill:#2B7563;" points="43.632,102.676 44.576,103.51 45.982,106.234	46.861,103.357 46.861,83.321 43.939,84.881 43.917,84.881 43.83,84.925 43.764,84.969 43.676,84.969 43.632,85.013 43.632,85.013	43.632,87.693 43.764,87.649 43.874,87.605 43.983,87.539 44.049,87.539 44.225,87.539 44.291,87.539 44.378,87.539 44.4,87.561	44.51,87.561 44.62,87.649 44.752,87.759 44.862,87.781 44.884,87.869 44.994,88.022 45.104,88.308 45.191,88.572 45.191,88.835	45.147,89.143 45.104,89.429 44.994,89.692 44.994,89.78 43.632,92.526 43.632,102.676 43.632,102.676	"/><polygon style="fill-rule:evenodd;clip-rule:evenodd;fill:#2B7563;" points="48.179,60.738 48.179,62.452 48.179,62.473	47.388,63.66 47.279,63.901 47.212,64.121 47.103,64.472 47.059,64.912 47.059,65.307 47.059,65.615 47.147,65.9 47.147,65.944	47.256,66.186 47.279,66.383 47.323,66.427 47.367,66.537 47.674,66.889 47.916,67.064 48.091,67.086 48.179,67.086 48.179,74.094	48.047,74.029 47.872,74.006 46.861,74.029 46.861,72.579 47.103,72.557 47.388,72.425 47.63,72.293 47.828,72.051 47.828,72.051	47.981,71.854 48.025,71.656 48.047,71.195 48.047,71.173 46.861,69.152 46.861,61.418 47.256,61.506 47.455,61.418 47.564,61.418	47.74,61.309 48.091,60.935 48.179,60.782 48.179,60.738	"/><polygon style="fill-rule:evenodd;clip-rule:evenodd;fill:#2B7563;" points="48.179,53.312 47.806,53.312 47.696,53.356	47.256,53.532 46.861,53.686 46.861,57.552 46.971,57.354 47.168,57.179 47.52,56.937 47.981,56.827 48.179,56.872 48.179,53.312	48.179,53.312	"/><polygon style="fill-rule:evenodd;clip-rule:evenodd;fill:#2B7563;" points="46.861,79.499 47.52,79.367 47.981,79.301	48.157,79.345 48.179,79.345 48.179,76.248 47.059,77.587 46.861,77.368 46.861,79.499 46.861,79.499	"/><polygon style="fill-rule:evenodd;clip-rule:evenodd;fill:#2B7563;" points="46.861,103.357 46.971,103.158 47.168,102.852	47.279,102.742 47.388,102.588 47.564,102.5 47.806,102.434 47.981,102.391 48.157,102.391 48.179,102.391 48.179,82.64	48.157,82.64 46.861,83.321 46.861,103.357 46.861,103.357	"/><polygon style="fill-rule:evenodd;clip-rule:evenodd;fill:#2B7563;" points="48.179,79.345 48.926,79.301 49.388,79.301	49.871,79.367 50.552,79.499 50.881,79.653 50.881,79.213 50.574,79.125 50.508,79.125 50.31,78.95 50.156,78.84 50.046,78.664	49.958,78.598 49.915,78.444 49.849,78.334 49.739,78.027 49.739,77.895 49.739,77.653 49.915,77.016 49.497,77.082 49.454,76.972	49.454,76.643 49.541,76.204 49.673,75.962 49.805,75.764 49.871,75.698 50.09,75.61 50.442,75.544 50.662,75.544 50.881,75.61	50.881,74.951 50.859,74.885 50.75,74.732 50.75,74.644 50.662,74.358 50.662,74.029 50.574,73.611 50.618,73.37 50.618,73.259	50.662,73.171 50.75,73.062 50.75,72.908 50.881,72.798 50.881,71.898 50.75,71.941 50.75,71.941 50.684,72.073 50.552,72.183	50.464,72.249 50.31,72.359 50.112,72.359 49.871,72.359 49.629,72.315 49.431,72.249 49.431,72.249 49.322,72.139 49.19,72.051	49.036,71.898 48.992,71.788 48.86,71.436 48.794,71.195 48.838,71.195 48.729,71.063 48.729,70.997 48.729,70.887 48.685,70.821	48.685,70.667 48.685,70.316 48.729,70.228 48.729,69.964 48.838,69.416 48.992,68.844 49.212,68.493 49.388,68.25 49.497,68.053	49.673,67.987 49.739,67.899 49.849,67.877 49.958,67.833 50.156,67.877 50.222,67.987 50.398,68.053 50.881,69.394 50.881,61.968	50.859,61.968 50.684,61.946 50.508,61.814 50.2,61.594 50.046,61.418 49.958,61.045 49.958,60.584 50.618,58.211 50.815,57.772	50.881,57.662 50.881,56.498 50.815,56.498 49.915,56.014 50.618,53.422 50.881,53.312 50.881,50.391 50.815,50.413 50.75,50.5	50.618,50.544 50.398,50.698 50.222,50.896 50.09,51.071 49.958,51.313 49.278,52.895 49.19,53.004 49.08,53.092 48.97,53.18	48.838,53.247 48.75,53.291 48.729,53.291 48.641,53.312 48.575,53.312 48.531,53.312 48.179,53.312 48.179,56.872 48.333,56.893	48.487,56.959 48.575,57.091 48.685,57.245 48.729,57.289 48.794,57.486 48.838,57.948 48.794,58.255 48.729,58.365 48.685,58.651	48.443,59.112 48.267,59.354 48.289,59.463 48.333,59.595 48.399,59.771 48.333,60.145 48.333,60.43 48.179,60.738 48.179,62.452	48.223,62.408 48.289,62.364 48.399,62.319 48.531,62.319 48.531,62.319 48.685,62.319 48.97,62.473 49.146,62.781 49.322,63.242	49.278,65.461 49.146,65.966 49.146,65.966 49.08,66.295 48.926,66.537 48.794,66.779 48.729,66.823 48.619,66.933 48.399,67.086	48.333,67.086 48.179,67.086 48.179,74.094 48.223,74.117 48.267,74.226 48.399,74.292 48.487,74.49 48.531,74.732 48.575,75.193	48.575,75.61 48.443,75.852 48.333,76.05 48.179,76.248 48.179,79.345	"/><polygon style="fill-rule:evenodd;clip-rule:evenodd;fill:#2B7563;" points="48.179,102.391 48.223,102.391 48.289,102.434	48.377,102.434 48.443,102.455 48.619,102.566 48.641,102.588 48.729,102.631 48.75,102.697 48.838,102.742 48.86,102.807	48.97,102.807 50.881,105.355 50.881,93.8 50.793,93.69 50.684,93.559 50.662,93.515 50.618,93.449 50.618,93.317 50.574,93.229	50.574,93.163 50.574,92.988 50.574,92.922 50.618,92.855 50.618,92.768 50.662,92.702 50.684,92.57 50.881,92.218 50.881,82.816	50.552,82.64 50.046,82.442 49.673,82.355 49.278,82.355 48.838,82.442 48.443,82.552 48.267,82.64 48.179,82.64 48.179,102.391	48.179,102.391	"/><polygon style="fill-rule:evenodd;clip-rule:evenodd;fill:#2B7563;" points="53.496,53.466 53.496,68.712 53.496,68.712	53.452,68.668 53.32,68.668 53.144,68.712 52.968,68.756 52.968,68.756 52.858,68.888 52.792,68.91 52.617,69.196 52.573,69.305	52.507,69.525 52.507,69.525 52.441,69.701 52.375,69.723 52.288,69.964 52.265,70.008 52.265,70.118 52.265,70.184 52.221,70.36	52.265,70.492 52.288,70.667 52.397,70.733 52.617,70.931 52.617,71.085 52.639,71.195 52.858,71.524 53.034,71.612 53.1,71.7	53.32,71.722 53.496,71.788 53.496,73.962 53.496,73.962 53.342,73.37 53.21,73.106 52.99,72.667 52.792,72.403 52.639,72.315	52.507,72.205 52.485,72.205 52.265,72.183 52.156,72.183 51.979,72.293 51.914,72.315 51.848,72.491 51.672,72.425 51.496,72.491	51.386,72.491 51.255,72.557 50.925,72.754 50.903,72.776 50.881,72.798 50.881,71.898 50.903,71.898 50.969,71.832 51.211,71.7	51.321,71.524 51.386,71.349 51.386,71.195 51.43,71.173 51.386,70.733 50.881,69.394 50.881,61.968 51.035,61.946 51.496,61.814	51.782,61.616 51.958,61.506 53.1,58.915 52.375,57.53 52.156,57.311 52.045,57.201 51.848,57.135 51.496,57.201 51.101,57.486	50.903,57.64 50.881,57.662 50.881,56.498 51.145,56.542 51.386,56.498 51.672,56.366 51.672,56.366 51.914,56.19 52.485,55.619	52.968,54.96 53.342,54.103 53.496,53.466	"/><polygon style="fill-rule:evenodd;clip-rule:evenodd;fill:#2B7563;" points="53.496,49.292 52.397,49.841 51.738,50.061	51.145,50.303 51.101,50.347 50.969,50.369 50.881,50.391 50.881,53.312 50.925,53.291 51.496,52.939 52.045,52.412 52.288,52.06	53.32,52.477 53.386,52.543 53.496,52.785 53.496,53.004 53.496,53.004 53.496,49.292 53.496,49.292	"/><polygon style="fill-rule:evenodd;clip-rule:evenodd;fill:#2B7563;" points="50.881,79.653 51.277,79.828 52.023,80.268	52.683,80.839 53.254,81.52 53.496,81.916 53.496,78.247 53.43,78.115 53.43,77.895 53.43,77.785 53.452,77.653 53.452,77.653	53.496,77.543 53.496,75.852 53.496,75.852 53.386,76.116 53.32,76.248 53.144,76.313 52.924,76.357 52.792,76.357 52.683,76.292	52.485,76.116 52.397,76.05 52.375,75.94 52.265,75.896 52.133,75.654 52.045,75.544 52.023,75.347 51.628,75.369 51.518,75.369	51.145,75.237 51.035,75.193 50.925,74.995 50.881,74.951 50.881,75.61 50.925,75.61 51.211,75.83 51.562,76.204 51.628,76.357	51.738,76.423 51.87,76.467 51.958,76.599 52.221,77.016 52.288,77.126 52.332,77.412 52.332,77.829 52.288,78.247 52.288,78.291	52.221,78.444 52.089,78.554 52.045,78.664 51.914,78.884 51.672,79.059 51.518,79.147 51.277,79.235 50.969,79.235 50.881,79.213	50.881,79.653 50.881,79.653	"/><polygon style="fill-rule:evenodd;clip-rule:evenodd;fill:#2B7563;" points="50.881,92.218 52.332,89.648 52.332,89.604	52.441,89.143 52.507,88.704 52.507,88.242 52.441,87.759 52.441,87.671 51.979,84.266 51.914,84.178 51.87,84.024 51.716,83.672	51.518,83.365 51.255,83.058 50.925,82.838 50.881,82.816 50.881,92.218 50.881,92.218	"/><polygon style="fill-rule:evenodd;clip-rule:evenodd;fill:#2B7563;" points="50.881,105.355 51.145,105.686 51.979,102.346	52.089,102.082 52.288,101.688 52.573,101.4 52.683,101.291 52.836,101.227 52.924,101.182 52.99,101.16 53.1,101.16	53.43,101.115 53.496,101.115 53.496,94.503 52.045,94.328 51.848,94.284 51.562,94.217 51.255,94.042 51.145,93.998	51.035,93.976 51.013,93.91 50.903,93.822 50.881,93.8 50.881,105.355 50.881,105.355	"/><polygon style="fill-rule:evenodd;clip-rule:evenodd;fill:#2B7563;" points="54.418,71.634 54.418,73.018 54.396,73.062	54.309,73.106 54.265,73.238 54.199,73.414 54.089,73.677 54.045,73.787 54.089,74.029 54.089,74.292 54.243,74.644 54.396,74.885	54.418,74.907 54.418,76.818 53.891,77.06 53.605,77.302 53.54,77.434 53.496,77.543 53.496,75.852 53.562,75.72 53.562,75.435	53.605,74.841 53.562,74.358 53.496,73.962 53.496,71.788 53.671,71.832 54.045,71.788 54.331,71.656 54.418,71.634	"/><polygon style="fill-rule:evenodd;clip-rule:evenodd;fill:#2B7563;" points="54.418,48.809 53.693,49.204 53.496,49.292	53.496,53.004 53.54,53.291 53.496,53.466 53.496,68.712 53.671,68.712 53.803,68.778 53.891,68.888 54.089,69.064 54.265,69.261	54.418,69.459 54.418,64.077 54.396,64.077 54.133,63.989 54.089,63.901 54,63.792 53.957,63.725 54,61.55 53.693,59.881	53.737,59.661 53.737,59.441 53.737,59.441 53.803,59.244 53.847,59.112 54.089,58.827 54.265,58.716 54.418,58.672 54.418,56.872	53.562,55.531 53.54,54.542 54.418,52.368 54.418,48.809 54.418,48.809	"/><polygon style="fill-rule:evenodd;clip-rule:evenodd;fill:#2B7563;" points="54.418,89.296 53.803,92.042 53.957,92.042	54.418,92.042 54.418,89.296 54.418,89.296	"/><polygon style="fill-rule:evenodd;clip-rule:evenodd;fill:#2B7563;" points="53.496,81.916 53.957,82.662 54.331,83.584	54.418,83.893 54.418,79.916 54.265,79.828 54.199,79.609 53.496,78.247 53.496,81.916 53.496,81.916	"/><polygon style="fill-rule:evenodd;clip-rule:evenodd;fill:#2B7563;" points="53.496,101.115 53.605,101.115 53.671,101.115	53.737,101.115 53.803,101.16 53.891,101.16 53.913,101.182 54.045,101.27 54.155,101.336 54.243,101.467 54.418,101.643	54.418,94.635 53.496,94.503 53.496,101.115 53.496,101.115	"/><polygon style="fill-rule:evenodd;clip-rule:evenodd;fill:#2B7563;" points="55.385,75.369 55.385,76.379 55.319,76.401	55.253,76.401 54.418,76.818 54.418,74.907 54.616,75.083 54.682,75.193 54.901,75.259 55.033,75.347 55.253,75.435 55.385,75.369	"/><polygon style="fill-rule:evenodd;clip-rule:evenodd;fill:#2B7563;" points="55.385,64.011 55.385,71.744 55.165,71.832	55.011,71.854 54.923,71.941 54.792,72.139 54.682,72.205 54.66,72.315 54.66,72.359 54.572,72.535 54.55,72.82 54.462,72.908	54.418,73.018 54.418,71.634 54.55,71.59 54.66,71.48 54.792,71.195 54.726,70.887 54.726,70.843 54.66,70.711 54.66,70.58	54.66,70.316 54.616,70.14 54.616,70.03 54.55,69.876 54.506,69.767 54.506,69.657 54.44,69.481 54.418,69.459 54.418,64.077	54.462,64.121 54.682,64.121 55.033,64.121 55.319,64.077 55.385,64.011 55.385,64.011	"/><polygon style="fill-rule:evenodd;clip-rule:evenodd;fill:#2B7563;" points="55.385,56.872 55.385,58.76 55.209,58.651	54.682,58.563 54.418,58.672 54.418,56.872 54.462,56.937 54.682,57.091 54.813,57.091 54.923,57.091 55.209,57.047 55.385,56.872	55.385,56.872	"/><polygon style="fill-rule:evenodd;clip-rule:evenodd;fill:#2B7563;" points="55.385,48.194 54.682,48.677 54.418,48.809	54.418,52.368 54.44,52.324 54.66,52.016 54.682,51.84 54.792,51.818 54.901,51.708 55.033,51.665 55.165,51.599 55.275,51.599	55.385,51.621 55.385,48.194 55.385,48.194	"/><polygon style="fill-rule:evenodd;clip-rule:evenodd;fill:#2B7563;" points="54.418,83.893 54.572,84.662 54.726,85.936	54.726,87.188 54.572,88.418 54.55,88.66 54.418,89.296 54.418,92.042 54.572,92.042 55.253,92.153 55.385,92.196 55.385,80.114	55.253,80.114 54.813,80.07 54.44,79.938 54.418,79.916 54.418,83.893 54.418,83.893	"/><polygon style="fill-rule:evenodd;clip-rule:evenodd;fill:#2B7563;" points="54.418,101.643 55.385,102.676 55.385,94.833	55.033,94.701 54.418,94.635 54.418,101.643 54.418,101.643	"/><polygon style="fill-rule:evenodd;clip-rule:evenodd;fill:#2B7563;" points="57.121,74.929 57.121,77.895 55.978,76.599	55.868,76.423 55.67,76.401 55.495,76.357 55.495,76.357 55.385,76.379 55.385,75.369 55.429,75.347 55.626,75.435 55.78,75.5	55.956,75.5 56.308,75.479 56.747,75.237 57.098,74.951 57.121,74.929	"/><polygon style="fill-rule:evenodd;clip-rule:evenodd;fill:#2B7563;" points="57.121,66.669 56.988,66.054 56.966,65.659	56.966,65.263 57.121,65 57.121,52.214 57.077,52.126 56.988,52.016 56.988,51.84 56.966,51.73 56.966,51.467 56.988,51.247	56.834,50.588 56.857,50.259 57.077,49.709 57.121,49.6 57.121,46.985 55.385,48.194 55.385,51.621 55.517,51.665 55.67,51.774	55.956,52.477 55.824,55.926 55.78,56.08 55.626,56.476 55.385,56.849 55.385,56.872 55.385,58.76 55.714,59.002 55.868,59.222	56.088,59.222 56.264,59.354 56.725,59.771 56.988,60.694 56.747,61.353 56.483,61.66 56.33,61.814 55.978,61.902 55.604,63.725	55.561,63.792 55.385,63.989 55.385,64.011 55.385,71.744 55.517,71.7 55.736,71.7 55.956,71.832 56.439,72.139 57.121,73.062	57.121,71.612 56.615,70.887 56.483,70.733 56.417,70.492 56.417,70.228 56.417,70.008 56.483,69.723 56.483,69.701 56.615,69.481	56.681,69.35 56.901,69.108 57.121,68.976 57.121,66.669 57.121,66.669	"/><polygon style="fill-rule:evenodd;clip-rule:evenodd;fill:#2B7563;" points="55.385,92.196 55.824,92.306 56.374,92.526	56.988,92.988 57.121,93.141 57.121,82.201 57.098,82.179 57.077,82.091 56.901,81.784 56.901,81.717 56.901,81.476 56.901,81.3	56.966,81.19 57.033,80.949 57.121,80.729 57.121,78.971 57.098,79.015 56.988,79.147 56.901,79.257 56.615,79.609 56.505,79.718	56.264,79.851 55.67,80.07 55.385,80.114 55.385,92.196 55.385,92.196	"/><polygon style="fill-rule:evenodd;clip-rule:evenodd;fill:#2B7563;" points="55.385,102.676 56.637,104.037 56.088,100.676	56.088,100.611 56.088,100.523 56.066,100.412 56.088,100.391 56.088,100.281 56.132,100.26 56.176,100.172 56.33,100.061	56.483,99.863 56.637,99.797 56.901,99.557 57.121,99.314 57.121,96.238 56.791,95.755 56.417,95.404 55.978,95.097 55.517,94.876	55.385,94.833 55.385,102.676 55.385,102.676	"/><polygon style="fill-rule:evenodd;clip-rule:evenodd;fill:#2B7563;" points="59.164,71.941 59.164,74.841 58.965,75.017	58.812,75.259 58.68,75.588 58.658,76.006 58.68,76.401 58.9,76.774 59.12,77.126 59.164,77.148 59.164,78.884 59.076,78.884	58.922,78.95 58.548,79.125 58.153,79.367 57.845,79.653 57.494,80.07 57.186,80.597 57.121,80.729 57.121,78.971 57.186,78.84	57.252,78.598 57.34,78.422 57.296,78.225 57.208,78.005 57.121,77.895 57.121,74.929 57.45,74.49 57.56,74.073 57.56,73.831	57.538,73.655 57.121,73.062 57.121,71.612 57.208,71.722 57.538,71.722 57.648,71.788 57.801,71.832 57.999,71.854 58.087,71.941	58.153,72.051 58.263,72.051 58.438,72.139 58.548,72.205 58.592,72.205 58.68,72.249 58.724,72.249 58.812,72.205 58.856,72.205	58.9,72.183 59.009,72.139 59.076,72.051 59.164,71.941	"/><polygon style="fill-rule:evenodd;clip-rule:evenodd;fill:#2B7563;" points="57.121,65 57.494,64.363 58.9,63.132 59.164,62.913	59.164,46.041 58.812,46.128 58.351,46.238 57.912,46.415 57.121,46.985 57.121,49.6 57.428,48.875 57.648,48.436 57.912,48.127	58.197,47.974 58.614,47.974 58.768,48.018 58.856,48.083 58.965,48.194 59.032,48.545 58.812,50.5 58.307,51.708 57.669,52.28	57.604,52.324 57.45,52.324 57.208,52.28 57.142,52.236 57.121,52.214 57.121,65 57.121,65	"/><polygon style="fill-rule:evenodd;clip-rule:evenodd;fill:#2B7563;" points="59.164,67.899 58.965,67.899 58.812,67.877	58.614,67.877 58.482,67.79 58.131,67.658 57.845,67.526 57.56,67.306 57.34,67.064 57.142,66.779 57.121,66.669 57.121,68.976	57.142,68.954 57.538,68.778 57.845,68.778 58.087,68.844 58.307,68.91 58.548,69.02 58.724,69.196 58.922,69.372 59.076,69.701	59.164,69.942 59.164,67.899 59.164,67.899	"/><polygon style="fill-rule:evenodd;clip-rule:evenodd;fill:#2B7563;" points="57.121,93.141 57.121,82.201 57.208,82.289	57.78,82.442 59.12,82.442 59.164,82.42 59.164,97.578 59.032,97.578 59.032,97.381 59.032,97.381 59.032,96.986 58.922,96.217	58.724,95.492 58.438,94.789 58.021,94.13 57.538,93.559 57.121,93.141 57.121,93.141	"/><polygon style="fill-rule:evenodd;clip-rule:evenodd;fill:#2B7563;" points="57.121,99.314 57.208,99.205 57.428,98.918	57.538,98.457 57.604,98.041 57.604,97.578 57.538,97.162 57.384,96.699 57.142,96.261 57.121,96.238 57.121,99.314 57.121,99.314	"/><polygon style="fill-rule:evenodd;clip-rule:evenodd;fill:#2B7563;" points="59.164,62.913 60.372,61.968 61.822,60.958	61.822,50.083 61.734,50.127 61.492,50.237 61.185,50.237 60.943,50.061 60.767,49.885 60.767,49.885 60.723,49.6 60.679,49.424	60.723,48.941 60.833,48.523 61.031,48.127 61.426,47.556 61.778,47.205 61.822,47.095 61.822,45.469 61.207,45.799 61.141,45.799	61.031,45.887 60.833,45.953 60.591,45.997 60.328,46.019 60.086,46.019 59.273,46.019 59.164,46.041 59.164,62.913	"/><polygon style="fill-rule:evenodd;clip-rule:evenodd;fill:#2B7563;" points="61.822,66.999 60.789,67.306 60.196,67.548	59.383,67.899 59.317,67.899 59.164,67.899 59.164,69.942 59.493,70.953 59.471,71.063 59.471,71.195 59.471,71.305 59.471,71.415	59.383,71.524 59.361,71.656 59.164,71.941 59.164,74.841 59.251,74.776 59.493,74.534 59.779,74.468 60.196,74.38 60.591,74.424	60.833,74.49 61.075,74.6 61.185,74.6 61.536,74.709 61.799,74.841 61.822,74.863 61.822,74.27 61.778,74.226 60.481,73.655	60.262,73.479 60.196,73.414 60.196,73.326 60.174,73.259 60.196,73.106 60.196,73.018 60.262,72.908 60.196,72.82 60.196,72.645	60.196,72.139 60.196,71.963 60.306,71.854 60.372,71.7 60.547,71.48 60.723,71.305 60.943,71.173 61.25,71.085 61.382,70.997	61.492,70.997 61.667,71.063 61.822,71.085 61.822,69.547 61.646,69.305 61.646,69.108 61.646,69.02 61.646,68.91 61.667,68.844	61.778,68.712 61.822,68.646 61.822,66.999 61.822,66.999	"/><polygon style="fill-rule:evenodd;clip-rule:evenodd;fill:#2B7563;" points="59.164,97.578 59.668,97.623 61.492,97.578	61.822,97.602 61.822,95.975 61.558,96.062 61.799,93.998 61.822,93.888 61.822,77.543 61.646,77.675 61.294,77.785 60.899,77.719	60.723,77.675 60.591,77.543 60.196,77.543 59.735,77.478 59.361,77.324 59.164,77.148 59.164,78.884 59.317,78.884 59.493,78.884	61.075,79.477 61.294,79.609 61.382,79.762 61.426,79.96 61.426,80.355 61.25,80.839 60.965,81.3 60.591,81.717 60.196,82.003	59.823,82.245 59.361,82.42 59.164,82.42 59.164,97.578 59.164,97.578	"/><polygon style="fill-rule:evenodd;clip-rule:evenodd;fill:#2B7563;" points="63.974,70.931 63.974,76.84 63.953,76.907	63.887,77.17 63.887,77.543 63.974,77.741 63.974,79.213 63.821,79.257 63.381,79.586 63.315,79.718 63.25,80.004 63.052,80.07	62.722,80.355 62.415,80.773 62.129,81.629 62.063,82.179 62.239,82.64 62.349,82.838 62.59,82.948 63.008,83.058 63.25,83.058	63.469,82.992 63.667,83.014 63.974,83.014 63.974,91.604 63.425,91.933 62.942,92.306 62.349,92.988 61.843,93.866 61.822,93.888	61.822,77.543 61.91,77.478 62.019,77.368 62.129,77.17 62.151,76.774 62.151,76.643 62.129,76.423 62.151,76.292 62.239,76.116	62.239,75.94 62.239,75.544 62.129,75.237 61.997,74.995 61.822,74.863 61.822,74.27 61.91,74.292 62.195,74.38 62.239,74.424	62.415,74.468 62.59,74.468 62.701,74.38 62.942,74.38 63.008,74.249 63.25,74.117 63.359,73.962 63.425,73.831 63.425,73.721	63.469,73.414 63.469,73.171 63.469,73.106 63.469,72.996 63.359,72.71 62.657,71.546 62.349,71.239 61.997,71.129 61.822,71.085	61.822,69.547 63.008,71.129 63.974,70.931	"/><polygon style="fill-rule:evenodd;clip-rule:evenodd;fill:#2B7563;" points="61.822,60.958 61.91,60.892 63.491,59.903	63.974,59.639 63.974,57.596 63.667,57.86 63.535,57.948 63.359,57.904 63.359,57.904 63.14,57.706 63.118,57.596 63.074,57.53	62.964,57.003 62.964,56.739 62.964,56.3 62.151,55.07 62.019,54.718 61.953,54.564 61.953,54.323 61.953,53.906 61.953,53.598	62.063,53.004 62.239,52.675 62.502,52.28 62.701,52.082 62.898,52.016 63.206,51.884 63.315,51.84 63.535,51.884 63.974,52.104	63.974,44.393 61.822,45.469 61.822,47.095 61.887,47.007 61.953,46.963 62.151,46.766 62.349,46.7 62.701,46.7 62.854,46.7	62.964,46.766 63.074,46.942 63.14,47.051 63.206,47.293 63.206,47.974 62.964,48.765 62.657,49.314 62.151,49.885 62.019,49.995	61.822,50.083 61.822,60.958 61.822,60.958	"/><polygon style="fill-rule:evenodd;clip-rule:evenodd;fill:#2B7563;" points="63.974,66.581 63.008,66.669 61.997,66.933	61.822,66.999 61.822,68.646 61.91,68.537 61.953,68.493 62.063,68.427 62.151,68.427 62.239,68.405 62.371,68.405 62.48,68.405	62.613,68.405 62.657,68.427 62.766,68.493 62.898,68.558 63.008,68.405 63.14,68.25 63.359,68.141 63.425,68.097 63.469,68.097	63.777,68.097 63.953,68.097 63.974,68.119 63.974,66.581 63.974,66.581	"/><polygon style="fill-rule:evenodd;clip-rule:evenodd;fill:#2B7563;" points="61.822,97.602 63.315,97.645 63.974,97.732	63.974,95.207 61.822,95.975 61.822,97.602 61.822,97.602	"/><polygon style="fill-rule:evenodd;clip-rule:evenodd;fill:#2B7563;" points="67.555,77.874 67.555,80.905 67.467,80.949	67.314,81.015 67.248,81.168 67.072,81.432 67.006,81.761 67.05,82.245 67.072,82.42 67.248,82.596 67.555,82.794 67.555,88.725	67.182,88.901 66.303,89.539 65.996,89.934 65.6,90.417 65.446,90.769 65.358,91.12 65.314,91.318 65.314,91.406 65.227,91.406	64.897,91.362 64.524,91.406 64.062,91.538 63.974,91.604 63.974,83.014 64.084,83.014 64.546,82.882 64.985,82.64 65.292,82.245	65.798,80.883 65.886,80.487 65.842,80.355 65.798,80.048 65.534,79.609 65.183,79.301 64.788,79.147 64.326,79.125 63.974,79.213	63.974,77.741 64.018,77.829 64.194,78.115 64.436,78.334 64.766,78.444 65.073,78.554 66.193,78.532 66.699,78.444 67.292,78.181	67.555,77.874	"/><polygon style="fill-rule:evenodd;clip-rule:evenodd;fill:#2B7563;" points="63.974,59.639 65.139,59.002 66.808,58.124	67.555,57.816 67.555,55.18 67.402,55.136 67.182,55.004 67.072,54.828 67.05,54.652 67.006,54.477 66.962,53.993 67.05,53.642	67.182,53.136 67.314,52.851 67.116,52.5 66.896,52.17 66.655,51.884 66.501,51.818 66.72,49.028 67.006,49.072 67.16,49.072	67.248,49.028 67.534,48.831 67.555,48.787 67.555,44.393 67.489,44.437 67.402,44.481 67.314,44.525 67.182,44.525 67.116,44.547	67.006,44.547 66.808,44.547 66.699,44.525 66.589,44.525 66.501,44.481 66.369,44.437 66.303,44.371 66.193,44.305 65.798,44.063	65.71,44.063 65.534,44.02 65.292,43.976 65.073,43.976 64.832,44.02 64.59,44.085 64.48,44.129 63.974,44.393 63.974,52.104	64.018,52.126 64.37,52.5 64.524,52.895 64.678,53.664 64.37,56.739 64.084,57.53 63.974,57.596 63.974,59.639 63.974,59.639	"/><polygon style="fill-rule:evenodd;clip-rule:evenodd;fill:#2B7563;" points="67.555,65.571 67.423,65.659 67.072,66.01	66.94,66.164 66.764,66.317 63.974,66.581 63.974,68.119 64.084,68.185 64.194,68.25 64.436,68.405 64.634,68.756 64.678,69.064	64.678,69.24 64.788,69.305 64.875,69.459 64.941,69.591 64.985,69.833 64.941,70.184 64.875,70.426 64.766,70.536 64.59,70.711	64.436,70.843 64.128,70.887 63.974,70.931 63.974,76.84 64.128,76.555 64.172,76.423 64.304,76.357 64.546,76.182 64.678,76.05	64.832,76.006 65.073,75.962 65.183,75.83 65.292,75.72 65.776,75.435 66.018,75.303 66.259,75.303 66.699,75.369 67.072,75.5	67.423,75.72 67.555,75.94 67.555,73.633 67.292,73.523 66.962,73.414 66.611,73.326 66.303,73.326 66.193,73.326 65.908,73.326	65.6,73.238 65.556,73.127 65.446,73.062 65.446,72.908 65.446,72.601 65.49,72.491 65.424,72.425 65.292,72.403 65.227,72.249	65.183,72.139 65.139,72.051 65.183,71.898 65.183,71.832 65.227,71.656 65.292,71.48 65.6,71.195 67.555,70.206 67.555,68.646	67.248,68.361 66.808,67.526 66.808,67.417 66.808,67.306 66.896,67.24 66.962,67.086 67.072,66.933 67.16,66.889 67.489,66.669	67.555,66.647 67.555,65.571 67.555,65.571	"/><polygon style="fill-rule:evenodd;clip-rule:evenodd;fill:#2B7563;" points="63.974,97.732 65.139,97.865 66.962,98.172	67.555,98.305 67.555,92.526 67.534,92.526 67.467,92.702 67.358,92.877 67.16,93.449 66.962,94.569 66.808,94.701 66.413,95.053	66.018,95.163 65.446,95.163 64.832,95.097 64.48,95.031 63.974,95.207 63.974,97.732 63.974,97.732	"/><polygon style="fill-rule:evenodd;clip-rule:evenodd;fill:#2B7563;" points="70.96,82.091 70.96,86.243 70.807,86.309	70.345,86.749 69.95,87.319 69.752,87.715 69.599,88.176 69.533,88.528 69.466,88.769 69.247,88.704 68.786,88.528 68.237,88.528	67.929,88.593 67.709,88.704 67.622,88.704 67.555,88.725 67.555,82.794 67.622,82.838 68.083,82.904 68.434,82.838 68.478,82.882	68.632,82.904 68.874,82.948 69.181,82.948 69.466,82.904 69.577,82.904 69.643,82.838 70.016,82.662 70.455,82.486 70.873,82.179	70.96,82.091	"/><polygon style="fill-rule:evenodd;clip-rule:evenodd;fill:#2B7563;" points="67.555,57.816 68.522,57.399 70.301,56.717	70.96,56.498 70.96,42.328 70.938,42.306 70.807,42.306 70.719,42.262 70.477,42.24 70.367,42.24 70.257,42.24 70.191,42.262	70.06,42.262 69.884,42.35 69.752,42.372 69.665,42.482 69.577,42.504 67.973,44.129 67.929,44.129 67.841,44.195 67.709,44.327	67.555,44.393 67.555,48.787 67.775,48.436 67.885,48.238 69.181,50.193 69.335,51.027 69.335,51.357 68.544,54.433 68.237,54.828	68.17,54.96 68.017,55.026 67.819,55.18 67.775,55.18 67.622,55.18 67.555,55.18 67.555,57.816 67.555,57.816	"/><polygon style="fill-rule:evenodd;clip-rule:evenodd;fill:#2B7563;" points="70.96,65.263 70.938,65.263 70.455,65.109 69.708,65	69.225,65 68.764,65.065 68.281,65.197 67.841,65.417 67.555,65.571 67.555,66.647 67.775,66.581 68.237,66.493 68.72,66.493	68.939,66.537 69.291,66.581 70.257,67.526 70.301,67.768 70.345,67.833 70.345,67.899 70.301,68.207 70.104,68.602 69.774,69.02	69.357,69.305 69.005,69.416 68.764,69.416 68.632,69.416 68.478,69.35 68.368,69.305 67.555,68.646 67.555,70.206 67.709,70.14	69.577,70.536 69.95,71.854 69.994,72.139 69.95,72.359 69.95,72.601 69.84,72.952 69.599,73.326 69.291,73.655 68.874,73.831	68.478,73.875 68.281,73.875 68.193,73.831 67.973,73.831 67.622,73.655 67.555,73.633 67.555,75.94 67.709,76.182 67.841,76.533	67.885,77.082 67.709,77.719 67.555,77.874 67.555,80.905 67.775,80.817 67.929,80.773 67.973,80.531 68.083,80.421 68.193,80.246	68.302,80.07 68.588,79.96 68.896,79.762 69.335,79.697 69.577,79.653 69.708,79.697 70.125,79.762 70.587,79.96 70.96,80.246	70.96,80.246 70.96,79.323 70.719,79.257 70.191,79.125 69.884,79.015 69.665,78.95 69.357,78.84 69.137,78.664 68.939,78.422	68.896,78.071 68.896,77.785 68.983,77.587 69.115,77.434 69.335,77.17 69.466,77.082 69.577,77.082 69.708,76.972 69.84,76.84	69.906,76.708 70.06,76.599 70.477,76.423 70.96,76.401 70.96,75.5 70.807,75.369 70.543,74.841 70.477,74.49 70.477,73.238	70.609,73.062 70.697,72.996 70.829,72.82 70.96,72.645 70.96,72.645 70.96,65.263 70.96,65.263	"/><polygon style="fill-rule:evenodd;clip-rule:evenodd;fill:#2B7563;" points="67.555,98.305 68.764,98.568 69.466,98.678	69.994,98.787 70.587,98.787 70.96,98.742 70.96,92.153 70.96,92.153 70.653,92.306 70.543,92.394 70.411,92.394 70.104,92.35	68.017,92.218 67.885,92.284 67.731,92.417 67.555,92.526 67.555,98.305 67.555,98.305	"/><polygon style="fill-rule:evenodd;clip-rule:evenodd;fill:#2B7563;" points="73.246,75.874 73.246,81.322 73.223,81.366	72.938,81.761 72.784,82.179 72.784,82.42 72.828,82.64 72.981,82.838 73.246,82.97 73.246,84.595 73.003,84.925 72.696,85.496	72.652,85.716 72.542,86.133 72.411,86.067 72.191,85.958 72.081,85.958 72.015,85.936 71.817,85.936 71.817,85.936 71.708,85.958	71.4,86.001 71.158,86.133 70.96,86.243 70.96,82.091 71.18,81.784 71.312,81.366 71.312,80.949 71.18,80.597 70.96,80.246	70.96,79.323 71.114,79.367 71.4,79.499 71.642,79.653 72.476,79.015 72.696,78.884 72.828,78.642 73.003,78.225 72.981,77.719	72.784,77.368 72.63,77.17 72.476,77.082 72.279,76.972 72.235,76.84 72.081,76.73 71.861,76.555 71.708,76.533 71.532,76.423	71.312,76.423 71.004,76.401 70.96,76.401 70.96,75.5 71.29,75.83 71.773,76.116 72.235,76.182 72.696,76.182 73.047,76.006	73.246,75.874	"/><polygon style="fill-rule:evenodd;clip-rule:evenodd;fill:#2B7563;" points="70.96,56.498 72.081,56.124 73.246,55.817	73.246,53.334 73.047,53.422 72.938,53.422 72.652,53.291 72.476,53.136 72.191,52.609 72.015,52.082 71.576,49.534 71.883,47.952	72.191,47.556 72.63,47.183 72.981,47.007 73.246,47.007 73.246,44.261 73.246,44.261 73.135,44.261 73.047,44.195 72.938,44.195	72.762,44.129 72.63,44.085 72.542,44.02 72.432,43.976 72.344,43.91 72.279,43.822 72.191,43.756 72.168,43.646 71.466,42.614	71.4,42.614 71.312,42.547 71.224,42.482 71.114,42.438 71.048,42.372 70.96,42.328 70.96,56.498 70.96,56.498	"/><polygon style="fill-rule:evenodd;clip-rule:evenodd;fill:#2B7563;" points="73.246,64.099 73.047,64.187 72.63,64.363	72.279,64.604 71.927,64.912 71.664,65.263 71.51,65.593 71.4,65.483 70.96,65.263 70.96,72.645 71.004,72.535 71.07,72.491	72.432,72.535 72.872,72.601 73.246,72.776 73.246,71.722 72.981,71.7 72.696,71.612 71.576,70.931 71.422,70.733 71.356,70.492	71.4,70.228 71.4,70.118 71.51,69.92 72.3,68.888 72.762,68.602 73.114,68.493 73.246,68.493 73.246,64.099 73.246,64.099	"/><polygon style="fill-rule:evenodd;clip-rule:evenodd;fill:#2B7563;" points="70.96,98.742 71.18,98.699 71.751,98.568	72.235,98.281 72.762,97.996 73.179,97.623 73.246,97.535 73.246,89.099 73.047,89.077 72.696,88.901 72.476,88.835 71.158,89.539	71.356,90.198 71.4,90.703 71.4,91.296 71.224,91.757 70.96,92.153 70.96,98.742 70.96,98.742	"/><polygon style="fill-rule:evenodd;clip-rule:evenodd;fill:#2B7563;" points="75.245,83.277 75.245,87.166 75.157,86.836	74.937,86.485 74.805,86.309 74.827,86.199 75.047,85.716 75.157,85.232 75.178,84.706 75.113,84.31 75.069,84.178 74.958,84.112	74.871,83.958 74.805,83.915 74.695,83.893 74.651,83.893 74.651,83.893 74.454,83.827 74.124,83.915 74.036,83.915 73.882,84.024	73.333,84.463 73.246,84.595 73.246,82.97 73.355,83.014 73.531,83.146 73.992,83.189 75.245,83.277	"/><polygon style="fill-rule:evenodd;clip-rule:evenodd;fill:#2B7563;" points="73.246,55.817 73.882,55.663 75.245,55.355	75.245,43.229 74.124,43.976 74.102,44.02 73.992,44.063 73.926,44.085 73.794,44.173 73.685,44.173 73.597,44.195 73.355,44.261	73.246,44.261 73.246,47.007 73.487,47.007 73.707,47.117 73.838,47.183 73.992,47.359 74.3,47.842 74.454,50.61 74.256,51.73	74.058,52.28 73.597,53.092 73.355,53.291 73.246,53.334 73.246,55.817 73.246,55.817	"/><polygon style="fill-rule:evenodd;clip-rule:evenodd;fill:#2B7563;" points="75.245,64.099 74.805,64.011 74.366,63.945	73.926,63.945 73.487,64.011 73.246,64.099 73.246,68.493 73.575,68.537 73.926,68.602 74.102,68.668 74.234,68.778 74.344,68.888	74.41,69.02 74.585,69.416 74.585,69.525 74.761,69.657 74.958,69.767 75.047,69.876 75.157,70.184 75.113,70.536 74.937,70.953	74.52,71.436 73.992,71.7 73.575,71.722 73.246,71.722 73.246,72.776 73.29,72.776 73.685,73.127 73.992,73.545 74.124,74.117	74.124,74.534 73.992,75.083 73.707,75.5 73.399,75.764 73.246,75.874 73.246,81.322 73.597,81.059 74.124,80.773 75.245,80.553	75.245,79.191 74.827,79.059 74.234,78.795 73.882,78.422 73.794,78.027 73.926,77.675 73.992,77.521 74.124,77.412 74.256,77.302	75.245,76.884 75.245,74.006 75.222,74.006 75.245,73.962 75.245,67.921 74.827,67.79 74.454,67.592 74.058,67.284 73.838,66.889	73.794,66.581 73.838,66.317 74.036,66.076 74.3,65.966 75.245,65.703 75.245,64.099 75.245,64.099	"/><polygon style="fill-rule:evenodd;clip-rule:evenodd;fill:#2B7563;" points="73.246,97.535 73.531,97.205 73.838,96.699	74.102,96.173 74.366,95.492 74.937,94.24 75.245,93.69 75.245,87.715 75.222,87.759 75.069,88.132 74.717,88.572 74.256,88.879	73.882,89.077 73.399,89.121 73.246,89.099 73.246,97.535 73.246,97.535	"/><polygon style="fill-rule:evenodd;clip-rule:evenodd;fill:#2B7563;" points="78.474,75.171 78.474,77.126 78.386,76.95	78.276,76.73 78.167,76.599 77.99,76.467 77.88,76.401 77.749,76.292 77.595,76.248 77.353,76.204 77.221,76.182 76.98,76.204	75.245,76.884 75.245,74.006 75.354,74.117 75.75,74.38 76.123,74.732 76.409,75.127 76.65,75.5 77.99,75.435 78.276,75.303	78.474,75.171	"/><polygon style="fill-rule:evenodd;clip-rule:evenodd;fill:#2B7563;" points="75.245,55.355 75.706,55.268 76.101,55.136	78.474,54.542 78.474,51.643 78.276,51.489 78.1,51.313 77.99,50.961 77.595,47.425 77.749,46.238 77.88,45.777 78.21,45.228	78.474,45.008 78.474,42.614 77.946,42.35 77.88,42.372 77.705,42.35 77.441,42.262 77.112,42.262 76.87,42.306 76.519,42.372	75.245,43.229 75.245,55.355 75.245,55.355	"/><polygon style="fill-rule:evenodd;clip-rule:evenodd;fill:#2B7563;" points="78.474,63.198 78.342,63.198 77.946,63.33	77.595,63.484 77.244,63.725 76.98,63.945 76.694,64.252 76.519,64.428 76.321,64.363 75.64,64.187 75.245,64.099 75.245,65.703	75.859,65.549 75.991,65.593 76.123,65.593 76.431,65.725 76.584,65.9 76.65,66.054 76.65,66.164 76.65,66.317 76.65,66.427	76.628,66.537 76.782,66.713 76.892,66.889 77.001,67.174 77.045,67.417 77.001,67.548 76.738,67.877 76.541,67.987 76.233,68.009	75.969,68.009 75.42,67.987 75.245,67.921 75.245,73.962 75.266,73.831 75.31,73.655 75.354,73.545 75.354,73.479 75.42,73.326	75.508,73.259 75.75,73.018 75.881,72.908 76.101,72.886 76.211,72.667 76.277,72.601 76.584,72.293 77.112,72.051 77.749,72.051	78.276,72.205 78.474,72.359 78.474,71.919 78.21,71.963 77.639,71.941 77.244,71.832 76.826,71.546 76.65,71.436 76.584,71.239	76.519,71.129 76.475,70.733 76.541,70.492 77.529,68.778 77.815,68.427 77.99,68.317 78.474,68.141 78.474,63.198 78.474,63.198	"/><polygon style="fill-rule:evenodd;clip-rule:evenodd;fill:#2B7563;" points="78.474,93.229 78.474,101.27 76.98,101.182	76.87,101.16 76.738,101.16 76.65,101.115 76.475,101.027 76.299,100.918 76.277,100.83 76.211,100.809 76.101,100.633	75.991,100.457 75.881,100.148 75.771,99.797 75.706,99.402 75.815,98.523 76.101,97.338 76.475,96.261 76.98,95.229	77.639,94.217 78.386,93.317 78.474,93.229 78.474,93.229	"/><polygon style="fill-rule:evenodd;clip-rule:evenodd;fill:#2B7563;" points="75.245,93.69 75.618,93.053 76.431,91.933	77.332,90.9 78.342,89.956 78.474,89.868 78.474,83.189 78.298,82.772 78.298,82.201 78.452,81.784 78.474,81.761 78.474,77.983	78.408,78.225 78.21,78.642 77.924,78.994 77.397,79.191 77.177,79.235 75.354,79.235 75.245,79.191 75.245,80.553 76.233,80.355	76.87,80.421 77.332,80.663 77.529,80.817 77.639,81.059 77.705,81.432 77.639,81.849 77.288,82.442 76.628,82.948 75.991,83.233	75.508,83.299 75.245,83.277 75.245,87.166 75.266,87.297 75.31,87.473 75.245,87.715 75.245,93.69 75.245,93.69	"/><polygon style="fill-rule:evenodd;clip-rule:evenodd;fill:#2B7563;" points="78.474,54.542 80.78,53.971 80.78,42.108	80.341,42.591 80.319,42.591 80.231,42.658 80.034,42.79 79.858,42.855 79.77,42.899 79.638,42.899 79.462,42.943 79.353,42.943	79.221,42.943 79.155,42.899 79.001,42.855 78.474,42.614 78.474,45.008 78.693,44.789 79.067,44.723 79.528,44.876 79.858,45.14	80.034,45.579 80.122,46.019 80.122,46.963 79.353,51.071 79.067,51.423 78.913,51.599 78.825,51.665 78.518,51.708 78.496,51.665	78.474,51.643 78.474,54.542	"/><polygon style="fill-rule:evenodd;clip-rule:evenodd;fill:#2B7563;" points="80.78,63.286 79.221,63.132 79.111,63.176	78.715,63.176 78.474,63.198 78.474,68.141 78.496,68.141 79.001,68.207 79.287,68.405 79.616,68.712 79.682,68.844 79.748,69.064	79.967,69.24 80.122,69.35 80.231,69.591 80.341,69.701 80.385,69.92 80.473,70.228 80.341,70.843 79.967,71.349 79.506,71.612	79.067,71.7 78.693,71.898 78.474,71.919 78.474,72.359 78.715,72.557 79.045,73.062 79.177,73.479 79.221,74.006 79.067,74.49	78.715,74.995 78.474,75.171 78.474,77.126 78.496,77.192 78.496,77.368 78.496,77.829 78.474,77.983 78.474,81.761 78.562,81.542	78.715,81.432 79.221,81.015 80.78,80.377 80.78,67.373 80.67,67.417 80.231,67.417 79.967,67.417 78.913,67.174 79.067,66.164	78.913,66.12 78.759,65.966 78.649,65.769 78.649,65.703 78.562,65.549 78.583,65.373 78.649,65.197 78.649,65.109 78.715,64.956	78.869,64.802 78.935,64.648 79.155,64.582 79.353,64.538 80.78,64.736 80.78,63.286 80.78,63.286	"/><polygon style="fill-rule:evenodd;clip-rule:evenodd;fill:#2B7563;" points="80.78,91.362 80.122,91.779 79.177,92.46	78.474,93.229 78.474,101.27 79.528,101.336 79.572,101.379 79.638,101.4 79.748,101.467 79.814,101.467 79.88,101.512	80.034,101.621 80.209,101.754 80.319,101.973 80.385,102.104 80.451,102.236 80.451,102.346 80.473,102.434 80.473,102.566	80.473,102.697 80.473,102.852 80.122,104.455 80.034,104.764 79.99,105.027 79.99,105.334 80.1,105.641 80.166,105.883	80.209,105.992 80.275,106.059 80.451,106.279 80.626,106.41 80.78,106.543 80.78,91.362 80.78,91.362	"/><polygon style="fill-rule:evenodd;clip-rule:evenodd;fill:#2B7563;" points="78.474,89.868 79.616,89.011 80.736,88.308	80.78,88.286 80.78,83.519 79.77,83.783 79.77,83.783 79.155,83.76 78.935,83.672 78.518,83.343 78.474,83.189 78.474,89.868	78.474,89.868	"/><polygon style="fill-rule:evenodd;clip-rule:evenodd;fill:#2B7563;" points="80.78,53.971 83.307,53.334 83.307,49.446	83.285,49.446 83.285,49.292 83.263,49.028 83.307,48.809 83.307,41.361 83.263,41.317 83.109,41.186 82.912,41.12 82.757,41.032	82.56,40.966 82.406,40.966 82.208,40.966 82.099,41.01 82.033,41.01 81.945,41.032 81.791,41.12 81.637,41.229 81.505,41.317	80.78,42.108 80.78,53.971	"/><polygon style="fill-rule:evenodd;clip-rule:evenodd;fill:#2B7563;" points="83.307,90.307 83.285,90.307 82.208,90.659	81.11,91.164 80.78,91.362 80.78,106.543 81.044,106.762 81.088,106.871 81.396,107.268 81.637,107.75 81.747,108.211	81.813,108.387 82.165,110.408 83.307,108.256 83.307,90.307 83.307,90.307	"/><polygon style="fill-rule:evenodd;clip-rule:evenodd;fill:#2B7563;" points="80.78,88.286 81.945,87.715 83.175,87.253	83.307,87.209 83.307,78.906 82.604,78.774 82.296,78.554 82.099,78.378 82.033,78.181 82.033,78.027 82.055,77.587 82.252,77.258	82.604,77.016 83.307,76.818 83.307,75.083 82.34,75.259 81.857,75.237 81.681,75.193 81.571,75.083 81.33,74.951 81.088,74.709	80.934,74.292 80.934,74.029 81.044,73.414 81.176,73.127 81.33,73.018 81.637,72.776 82.055,72.557 82.692,72.315 83.307,72.249	83.307,71.393 82.977,71.305 82.406,71.063 81.923,70.602 81.593,70.118 81.461,69.701 81.461,69.481 81.571,69.24 82.406,67.987	82.494,67.877 82.845,67.636 83.175,67.592 83.307,67.592 83.307,62.781 82.868,62.957 82.406,63.198 82.099,63.418 80.78,63.286	80.78,64.736 81.11,64.758 81.461,64.912 81.747,65.197 81.945,65.549 81.989,65.769 81.945,65.944 81.923,66.12 81.791,66.581	81.439,66.955 81.088,67.24 80.78,67.373 80.78,80.377 81.857,79.96 82.34,80.004 82.56,80.004 82.801,80.114 83.153,80.487	83.285,80.971 83.175,81.761 82.912,82.245 82.56,82.662 82.055,83.102 81.571,83.299 80.78,83.519 80.78,88.286 80.78,88.286	"/><polygon style="fill-rule:evenodd;clip-rule:evenodd;fill:#2B7563;" points="84.867,75.017 84.867,76.357 83.307,76.818	83.307,75.083 83.747,74.995 84.12,75.083 84.449,75.127 84.867,75.017	"/><polygon style="fill-rule:evenodd;clip-rule:evenodd;fill:#2B7563;" points="84.867,70.865 84.867,72.754 84.779,72.601	84.581,72.425 84.032,72.293 83.329,72.249 83.307,72.249 83.307,71.393 83.395,71.415 83.747,71.305 83.878,71.195 84.032,71.195	84.449,71.173 84.691,70.997 84.867,70.865 84.867,70.865	"/><polygon style="fill-rule:evenodd;clip-rule:evenodd;fill:#2B7563;" points="84.867,41.955 84.691,42.086 84.669,42.086	84.581,42.13 84.515,42.13 84.427,42.152 84.339,42.152 84.229,42.152 84.164,42.152 84.076,42.13 83.988,42.13 83.966,42.086	83.878,42.086 83.856,42.064 83.747,41.955 83.615,41.845 83.527,41.779 83.329,41.383 83.307,41.361 83.307,48.809 83.329,48.721	83.966,47.183 83.747,46.832 83.527,46.48 83.504,46.019 83.504,45.25 83.636,44.767 84.515,43.91 84.867,43.756 84.867,43.756	84.867,41.955 84.867,41.955	"/><polygon style="fill-rule:evenodd;clip-rule:evenodd;fill:#2B7563;" points="83.307,53.334 84.867,52.96 84.867,49.622	84.515,49.885 84.032,49.951 83.747,49.841 83.527,49.775 83.46,49.644 83.329,49.446 83.307,49.446 83.307,53.334 83.307,53.334	"/><polygon style="fill-rule:evenodd;clip-rule:evenodd;fill:#2B7563;" points="84.867,62.583 84.449,62.539 83.922,62.605	83.395,62.759 83.307,62.781 83.307,67.592 83.395,67.592 83.747,67.768 84.867,69.129 84.867,66.295 84.581,65.263 84.581,65	84.735,64.604 84.801,64.472 84.867,64.428 84.867,62.583 84.867,62.583	"/><polygon style="fill-rule:evenodd;clip-rule:evenodd;fill:#2B7563;" points="84.867,90 84.449,90.044 83.307,90.307	83.307,108.256 84.339,106.344 84.383,106.344 84.383,106.301 84.427,106.279 84.449,106.234 84.515,106.234 84.559,106.168	84.581,106.146 84.625,106.146 84.669,106.146 84.735,106.059 84.779,106.059 84.867,106.059 84.867,106.059 84.867,95.624	84.625,95.514 84.317,95.338 84.164,95.163 83.988,94.987 83.812,94.701 83.747,94.481 83.68,94.24 83.68,93.998 83.747,93.756	83.812,93.471 83.966,93.229 84.164,92.988 84.427,92.812 84.779,92.658 84.867,92.614 84.867,90 84.867,90	"/><polygon style="fill-rule:evenodd;clip-rule:evenodd;fill:#2B7563;" points="83.307,87.209 84.515,86.946 84.867,86.902	84.867,78.971 84.735,79.015 84.229,79.059 83.856,78.994 83.307,78.906 83.307,87.209 83.307,87.209	"/><polygon style="fill-rule:evenodd;clip-rule:evenodd;fill:#2B7563;" points="86.272,68.229 86.272,76.292 86.141,76.204	85.679,76.116 84.867,76.357 84.867,75.017 84.932,74.995 85.328,74.776 85.438,74.578 85.503,74.468 85.503,74.249 85.503,74.006	84.867,72.754 84.867,70.865 84.911,70.843 85.021,70.602 85.152,70.25 85.152,70.118 85.152,69.723 85.13,69.481 84.976,69.261	84.867,69.129 84.867,66.295 85.218,67.482 85.218,67.482 85.394,67.768 85.547,67.943 85.987,68.207 86.272,68.229	"/><polygon style="fill-rule:evenodd;clip-rule:evenodd;fill:#2B7563;" points="86.272,41.032 84.867,41.955 84.867,43.756	85.218,43.756 85.503,43.822 85.745,44.02 85.987,44.305 86.25,44.767 86.272,44.876 86.272,41.032 86.272,41.032	"/><polygon style="fill-rule:evenodd;clip-rule:evenodd;fill:#2B7563;" points="84.867,52.96 86.272,52.587 86.272,47.161	84.976,49.534 84.867,49.622 84.867,52.96 84.867,52.96	"/><polygon style="fill-rule:evenodd;clip-rule:evenodd;fill:#2B7563;" points="86.272,62.803 85.152,62.539 85.021,62.605	84.867,62.583 84.867,64.428 84.976,64.363 85.152,64.252 85.284,64.231 85.503,64.252 85.679,64.252 85.811,64.34 86.272,64.78	86.272,62.803 86.272,62.803	"/><polygon style="fill-rule:evenodd;clip-rule:evenodd;fill:#2B7563;" points="84.867,106.059 84.932,106.059 84.976,106.104	85.021,106.104 85.042,106.104 85.13,106.146 85.152,106.168 85.218,106.168 85.24,106.234 85.284,106.279 86.272,107.619	86.272,95.821 85.284,95.755 85.218,95.711 84.911,95.646 84.867,95.624 84.867,106.059 84.867,106.059	"/><polygon style="fill-rule:evenodd;clip-rule:evenodd;fill:#2B7563;" points="86.272,89.824 86.053,89.846 84.867,90 84.867,92.614	85.13,92.526 85.459,92.46 85.811,92.46 86.031,92.504 86.207,92.504 86.272,92.548 86.272,89.824 86.272,89.824	"/><polygon style="fill-rule:evenodd;clip-rule:evenodd;fill:#2B7563;" points="84.867,86.902 85.811,86.749 86.272,86.749	86.272,78.049 85.987,78.291 85.701,78.422 85.503,78.642 85.152,78.884 84.867,78.971 84.867,86.902 84.867,86.902	"/><polygon style="fill-rule:evenodd;clip-rule:evenodd;fill:#2B7563;" points="86.272,52.587 89.722,51.73 89.722,49.358	89.634,49.38 89.48,49.38 89.392,49.314 89.326,49.204 89.26,49.138 89.194,49.028 89.128,48.765 89.26,47.974 89.084,43.558	89.37,42.723 89.568,42.547 89.722,42.459 89.722,40.219 89.634,40 89.546,40 89.502,39.912 89.48,39.89 89.392,39.846	89.37,39.758 89.282,39.714 89.26,39.67 89.15,39.67 89.084,39.648 89.019,39.648 88.931,39.604 88.843,39.604 88.733,39.604	88.667,39.604 88.58,39.648 88.513,39.648 88.425,39.67 88.381,39.67 86.272,41.032 86.272,44.876 86.448,45.601 86.448,46.15	86.338,47.073 86.272,47.161 86.272,52.587	"/><polygon style="fill-rule:evenodd;clip-rule:evenodd;fill:#2B7563;" points="86.272,107.619 87.525,109.289 87.92,106.234	88.03,105.992 88.316,105.531 88.425,105.4 88.447,105.334 88.557,105.289 88.799,105.158 88.843,105.092 88.931,105.049	89.019,105.049 89.084,105.027 89.194,104.982 89.326,105.027 89.546,105.092 89.634,105.158 89.722,105.18 89.722,96.107	89.37,96.062 89.041,95.997 86.272,95.821 86.272,107.619 86.272,107.619	"/><polygon style="fill-rule:evenodd;clip-rule:evenodd;fill:#2B7563;" points="89.722,90 88.689,89.846 87.371,89.78 86.272,89.824	86.272,92.548 86.382,92.57 86.558,92.57 87.964,93.229 88.228,93.339 88.667,93.449 89.041,93.449 89.48,93.405 89.722,93.361	89.722,90 89.722,90	"/><polygon style="fill-rule:evenodd;clip-rule:evenodd;fill:#2B7563;" points="86.272,86.749 87.151,86.705 88.447,86.771	89.722,87.012 89.722,79.916 89.7,79.938 89.194,80.07 88.667,80.246 88.096,80.246 87.81,80.114 87.613,80.048 87.502,79.895	87.458,79.762 87.371,78.137 89.722,76.907 89.722,75.522 89.568,75.588 88.03,75.94 87.678,75.852 87.525,75.72 87.371,75.588	87.107,75.193 87.085,74.644 87.217,73.259 87.327,73.062 87.415,72.952 87.745,72.667 88.096,72.645 89.722,73.04 89.722,71.898	89.568,71.898 89.26,71.832 86.756,70.777 86.404,69.723 86.404,69.481 86.492,69.261 86.602,69.108 86.844,68.998 87.458,68.712	89.722,69.173 89.722,67.482 89.678,67.417 88.624,65.615 88.667,65.351 88.843,64.956 89.26,64.714 89.7,64.582 89.722,64.582	89.722,62.759 89.48,62.715 88.909,62.715 88.272,62.781 87.678,62.957 87.371,63.066 86.272,62.803 86.272,64.78 87.678,66.054	87.81,66.164 87.876,66.362 87.92,66.581 87.986,66.823 87.92,67.064 87.876,67.196 87.678,67.592 87.569,67.724 87.458,67.768	87.217,67.877 87.107,67.833 87.02,67.943 86.954,68.009 86.69,68.185 86.404,68.25 86.272,68.229 86.272,76.292 86.492,76.423	86.558,76.599 86.624,76.73 86.734,77.302 86.404,77.939 86.272,78.049 86.272,86.749 86.272,86.749	"/><polygon style="fill-rule:evenodd;clip-rule:evenodd;fill:#2B7563;" points="89.722,51.73 91.918,51.181 92.49,51.071	94.269,50.61 94.401,50.566 94.401,46.502 94.137,44.02 94.203,43.471 94.401,43.075 94.401,43.075 94.401,39.582 94.159,39.296	94.137,39.296 94.093,39.252 94.049,39.208 94.028,39.187 93.961,39.187 93.939,39.143 93.896,39.077 93.852,39.077 93.83,39.077	93.786,39.055 93.742,39.055 93.61,39.055 93.588,39.055 93.544,39.055 93.5,39.077 93.478,39.077 93.39,39.143 93.368,39.143	93.325,39.187 93.258,39.187 93.258,39.208 93.193,39.252 91.545,40.79 91.501,40.79 91.413,40.834 91.259,40.9 91.193,40.966	91.105,41.01 91.018,41.01 90.842,41.032 90.754,41.032 90.667,41.032 90.601,41.01 90.491,41.01 90.403,40.966 90.249,40.878	90.139,40.79 90.051,40.724 89.985,40.68 89.919,40.614 89.897,40.57 89.722,40.219 89.722,42.459 90.271,42.196 91.149,42.262	91.677,42.614 91.853,42.79 91.984,43.185 92.094,43.822 91.567,47.249 91.149,48.083 90.557,48.831 90.051,49.204 89.919,49.314	89.722,49.358 89.722,51.73	"/><polygon style="fill-rule:evenodd;clip-rule:evenodd;fill:#2B7563;" points="89.722,105.18 89.744,105.18 89.854,105.334	90.095,105.531 90.249,105.752 90.403,106.037 90.491,106.146 90.513,106.301 90.601,106.389 91.611,108.475 92.336,106.52	92.555,106.168 92.841,105.752 93.258,105.268 93.5,105.092 93.742,104.939 93.961,104.828 94.269,104.697 94.357,104.676	94.401,104.676 94.401,98.611 94.357,98.568 93.72,97.865 92.929,97.314 92.094,96.811 91.215,96.459 90.315,96.173 89.722,96.107	89.722,105.18 89.722,105.18	"/><polygon style="fill-rule:evenodd;clip-rule:evenodd;fill:#2B7563;" points="89.722,87.012 89.788,87.012 91.083,87.364	91.677,87.605 91.984,87.671 92.028,87.759 92.226,87.869 92.49,88.11 92.666,88.242 92.775,88.418 92.885,88.484 92.929,88.572	92.973,88.593 92.973,88.704 93.017,88.769 93.017,88.835 93.017,88.901 93.017,89.033 93.017,89.121 92.973,89.187 92.929,89.231	92.929,89.296 92.885,89.385 92.775,89.583 92.424,89.89 92.028,90.044 91.501,90.175 90.974,90.175 90.491,90.066 90.029,90.044	89.722,90 89.722,93.361 90.798,93.163 91.105,93.163 91.545,93.208 91.962,93.273 92.336,93.405 92.687,93.625 93.039,93.822	94.401,95.163 94.401,80.114 93.896,80.07 93.83,80.158 93.742,80.268 93.61,80.355 93.544,80.421 93.434,80.487 93.368,80.531	93.325,80.531 93.237,80.597 93.193,80.597 93.126,80.597 92.973,80.597 92.929,80.597 92.841,80.531 92.797,80.531 92.731,80.487	92.687,80.465 92.578,80.377 92.446,80.312 92.424,80.268 92.424,80.202 92.38,80.114 92.336,80.07 92.314,80.004 92.314,79.96	92.27,79.895 92.27,79.828 92.27,79.697 92.27,79.609 92.314,79.542 92.314,79.411 92.314,79.367 92.336,79.301 92.38,79.257	92.446,79.191 92.555,79.125 92.578,79.059 92.555,78.994 92.555,78.884 92.555,78.664 92.555,78.554 92.578,78.488 92.578,78.378	92.622,78.291 92.666,78.181 92.731,78.115 92.775,78.027 92.885,77.874 93.039,77.763 93.258,77.587 93.478,77.521 93.588,77.521	93.676,77.478 93.786,77.478 93.896,77.478 93.939,77.434 93.961,77.302 94.049,77.126 94.203,76.95 94.247,76.84 94.313,76.818	94.401,76.774 94.401,75.786 94.401,75.764 94.401,75.72 94.313,75.852 94.247,75.94 94.137,76.006 94.049,76.05 94.028,76.05	93.939,76.072 93.852,76.072 93.83,76.072 93.61,76.072 93.544,76.072 93.478,76.05 93.39,76.05 93.325,76.006 93.237,76.006	93.149,75.962 93.126,75.94 93.017,75.852 92.973,75.764 92.929,75.72 92.797,75.588 92.775,75.544 92.775,75.5 92.687,75.5	92.622,75.479 92.578,75.435 92.446,75.303 92.38,75.237 92.336,75.149 92.336,75.083 92.314,75.017 92.314,74.951 92.27,74.885	92.27,74.841 92.27,74.709 92.27,74.6 92.314,74.578 92.314,74.49 92.336,74.424 92.38,74.38 92.49,74.182 92.622,74.029	92.731,73.897 92.929,73.787 93.237,73.545 93.588,73.37 93.961,73.259 94.357,73.171 94.401,73.171 94.401,71.963 91.853,70.733	92.578,69.416 92.578,69.372 92.622,69.305 92.687,69.196 92.797,69.108 92.929,69.02 93.039,68.954 93.126,68.91 93.149,68.91	93.237,68.888 93.434,68.91 93.588,68.888 93.72,68.888 93.961,68.888 94.313,68.91 94.401,68.932 94.401,67.526 94.159,67.24	94.137,67.174 94.093,67.13 94.093,67.086 94.049,67.021 94.049,66.955 94.049,66.889 94.049,66.823 94.049,66.735 94.093,66.713	94.093,66.669 94.137,66.625 94.137,66.537 94.159,66.493 94.203,66.471 94.269,66.383 94.313,66.362 94.313,66.317 94.313,66.295	94.269,66.251 94.269,66.186 94.247,66.164 94.247,66.12 94.247,66.054 94.247,65.966 94.247,65.944 94.269,65.9 94.269,65.834	94.269,65.812 94.313,65.769 94.357,65.725 94.357,65.703 94.401,65.703 94.401,65.703 94.401,63.132 94.313,63.132 93.588,63.198	92.885,63.374 92.555,63.484 92.072,63.593 90.249,62.825 90.051,62.825 89.722,62.759 89.722,64.582 90.205,64.538 90.842,64.604	91.325,64.846 92.27,66.054 92.424,66.471 92.38,66.845 92.226,67.24 92.094,67.482 91.918,67.636 91.545,67.899 91.105,68.053	90.667,68.009 90.38,67.987 90.161,67.877 89.985,67.768 89.854,67.636 89.722,67.482 89.722,69.173 89.985,69.24 90.667,70.25	90.732,70.492 90.754,70.711 90.732,71.085 90.667,71.305 90.557,71.48 90.403,71.612 90.029,71.832 89.854,71.898 89.722,71.898	89.722,73.04 89.788,73.062 89.919,73.127 90.029,73.259 90.205,73.37 90.271,73.545 90.491,74.006 90.491,74.534 90.249,75.127	89.854,75.479 89.722,75.522 89.722,76.907 89.744,76.907 91.303,77.126 91.677,77.192 91.918,77.302 92.028,77.434 92.072,77.543	92.072,77.829 91.853,78.247 91.413,78.795 90.908,79.235 90.315,79.609 89.722,79.916 89.722,87.012 89.722,87.012	"/><polygon style="fill-rule:evenodd;clip-rule:evenodd;fill:#2B7563;" points="94.401,50.566 96.07,50.061 97.807,49.446	99.541,48.721 99.586,48.699 99.586,37.275 99.52,37.275 99.41,37.319 99.344,37.363 99.277,37.385 99.189,37.385 95.785,40.021	95.763,40.021 95.719,40.065 95.653,40.109 95.609,40.131 95.543,40.131 95.433,40.175 95.412,40.175 95.258,40.175 95.214,40.175	95.148,40.175 95.06,40.131 95.016,40.131 94.95,40.109 94.84,40.021 94.752,39.956 94.665,39.912 94.621,39.89 94.621,39.846	94.401,39.582 94.401,43.075 94.84,42.658 94.862,42.614 94.906,42.438 94.972,42.306 95.258,41.999 95.609,41.845 96.004,41.933	96.114,41.955 96.268,42.174 96.422,42.372 96.818,45.953 96.708,46.415 96.466,46.942 96.026,47.468 95.609,47.732 95.192,47.842	94.972,47.842 94.796,47.732 94.621,47.667 94.511,47.468 94.401,46.502 94.401,50.566	"/><polygon style="fill-rule:evenodd;clip-rule:evenodd;fill:#2B7563;" points="94.401,95.163 95.06,95.799 95.675,96.173	96.532,96.524 97.125,96.635 98.686,96.568 99.586,96.48 99.586,79.762 99.277,79.96 98.949,80.246 98.883,80.268 98.838,80.268	98.773,80.312 98.686,80.312 98.598,80.355 98.574,80.355 98.422,80.355 98.334,80.355 98.289,80.312 98.223,80.312 98.158,80.268	98.113,80.268 98.047,80.246 97.982,80.202 97.873,80.048 97.828,80.004 97.828,79.938 97.807,79.895 97.762,79.851 97.762,79.762	97.719,79.718 97.719,79.697 97.695,79.586 97.695,79.367 97.695,79.301 97.719,79.257 97.631,79.059 97.586,78.795 97.586,78.532	97.631,78.247 97.719,78.005 97.828,77.763 97.982,77.521 98.18,77.324 98.334,77.126 98.465,77.082 98.707,76.972 98.949,76.907	99.059,76.84 99.234,76.907 99.344,76.907 99.41,76.95 99.541,76.972 99.586,76.95 99.586,75.413 98.707,75.61 97.344,74.709	97.938,73.436 98.113,73.127 98.289,72.952 98.531,72.754 98.773,72.601 99.037,72.491 99.301,72.403 99.586,72.359 99.586,71.81	98.18,71.415 98.047,71.305 97.873,71.239 97.807,71.195 97.762,71.129 97.695,71.085 97.631,70.997 97.52,70.843 97.477,70.777	97.477,70.711 97.455,70.602 97.41,70.536 97.41,70.47 97.41,70.25 97.41,70.184 97.455,70.118 97.455,70.03 97.477,69.964	97.52,69.876 97.586,69.723 97.631,69.657 97.762,69.591 97.916,69.459 98.07,69.372 98.158,69.35 98.223,69.35 98.289,69.305	98.355,69.305 98.574,69.305 98.707,69.305 98.926,69.372 98.992,69.416 99.059,69.372 99.168,69.35 99.189,69.261 99.277,69.196	99.344,69.108 99.453,69.02 99.52,68.998 99.586,68.998 99.586,67.899 99.52,67.877 99.344,67.79 99.277,67.724 99.168,67.592	99.102,67.548 99.102,67.482 99.059,67.438 99.037,67.373 99.037,67.284 98.992,67.24 98.992,67.174 98.992,67.021 98.992,66.955	99.037,66.889 99.037,66.823 99.059,66.779 99.059,66.713 99.102,66.625 99.168,66.581 99.277,66.471 99.344,66.383 99.453,66.317	99.541,66.295 99.586,66.295 99.586,64.208 95.302,63.132 95.06,63.176 94.401,63.132 94.401,65.703 94.445,65.659 94.511,65.593	94.555,65.549 94.621,65.549 94.665,65.483 94.752,65.461 94.796,65.461 94.84,65.461 94.95,65.461 94.972,65.461 95.016,65.483	95.06,65.461 96.114,65.812 96.4,66.01 96.708,66.164 96.994,66.383 97.234,66.625 97.455,66.933 97.586,67.24 97.695,67.548	97.719,67.899 97.695,68.097 97.586,68.294 97.52,68.405 97.41,68.537 97.301,68.602 97.059,68.712 96.994,68.756 96.883,68.756	96.818,68.778 96.708,68.778 96.642,68.778 96.268,68.778 95.96,68.712 95.675,68.646 95.324,68.493 95.082,68.294 94.862,68.053	94.84,67.987 94.401,67.526 94.401,68.932 94.665,68.998 94.972,69.129 95.302,69.372 95.565,69.723 95.785,70.008 96.004,70.25	96.026,70.492 96.07,70.777 96.07,70.953 96.004,71.173 95.917,71.305 95.851,71.436 95.06,72.293 94.401,71.963 94.401,73.171	94.906,73.127 95.192,73.127 95.302,73.238 95.5,73.303 95.675,73.436 95.763,73.479 95.785,73.545 95.851,73.611 95.895,73.677	95.895,73.765 95.917,73.831 96.004,73.831 95.851,75.259 95.785,75.303 95.763,75.369 95.763,75.435 95.719,75.5 95.675,75.588	95.609,75.698 95.543,75.764 95.412,75.852 95.302,75.94 95.214,75.962 95.192,75.962 95.082,76.05 95.016,76.05 94.906,76.05	94.84,76.05 94.752,76.006 94.708,76.006 94.621,75.962 94.665,75.962 94.708,75.962 94.752,76.006 94.752,76.006 94.708,76.006	94.621,75.962 94.555,75.896 94.445,75.83 94.401,75.786 94.401,76.774 94.511,76.708 94.599,76.643 94.708,76.599 94.796,76.555	94.906,76.555 94.972,76.533 95.082,76.533 95.214,76.533 95.412,76.555 95.653,76.599 95.851,76.708 96.004,76.818 96.136,76.95	96.224,77.016 96.224,77.126 96.312,77.192 96.334,77.302 96.334,77.368 96.378,77.478 96.4,77.543 96.4,77.653 96.4,77.785	96.4,77.895 96.422,77.895 96.422,77.939 96.466,78.071 96.51,78.334 96.51,78.532 96.466,78.795 96.4,79.059 96.334,79.345	96.18,79.586 96.004,79.762 95.675,79.96 95.565,80.07 95.433,80.114 95.368,80.202 94.401,80.114 94.401,95.163 94.401,95.163	"/><polygon style="fill-rule:evenodd;clip-rule:evenodd;fill:#2B7563;" points="94.401,104.676 94.489,104.676 94.621,104.676	94.752,104.676 94.84,104.697 94.906,104.697 94.972,104.764 95.148,104.828 95.214,104.873 96.07,105.795 96.026,105.729	96.136,105.268 96.312,104.322 96.334,103.621 96.268,102.654 96.136,101.885 95.895,100.939 95.433,100.105 94.972,99.293	94.401,98.611 94.401,104.676 94.401,104.676	"/><polygon style="fill-rule:evenodd;clip-rule:evenodd;fill:#2B7563;" points="100.969,75.017 100.969,76.445 100.926,76.423	100.859,76.401 100.75,76.401 100.662,76.357 100.574,76.357 100.508,76.357 100.443,76.357 100.355,76.401 100.289,76.401	100.201,76.423 100.113,76.423 100.047,76.467 99.893,76.599 99.762,76.708 99.65,76.818 99.586,76.95 99.586,75.413	100.641,75.193 100.662,75.149 100.771,75.127 100.926,75.017 100.969,75.017	"/><polygon style="fill-rule:evenodd;clip-rule:evenodd;fill:#2B7563;" points="100.969,71.129 100.969,72.82 100.859,72.754	100.75,72.71 100.662,72.71 100.574,72.667 100.508,72.667 100.332,72.667 100.244,72.667 100.201,72.645 100.047,72.491	99.893,72.403 99.629,72.359 99.586,72.359 99.586,71.81 99.871,71.898 99.893,71.941 99.98,71.941 100.113,71.941 100.201,71.941	100.244,71.898 100.332,71.898 100.443,71.832 100.574,71.722 100.641,71.7 100.771,71.546 100.816,71.436 100.926,71.173	100.969,71.129 100.969,71.129	"/><polygon style="fill-rule:evenodd;clip-rule:evenodd;fill:#2B7563;" points="100.969,68.427 100.969,69.876 100.859,69.701	100.705,69.459 100.641,69.372 100.465,69.305 100.443,69.24 100.355,69.196 100.244,69.108 100.113,69.02 100.004,68.998	99.98,68.954 99.893,68.954 99.762,68.954 99.695,68.954 99.65,68.998 99.586,68.998 99.586,67.899 100.969,68.427 100.969,68.427	"/><polygon style="fill-rule:evenodd;clip-rule:evenodd;fill:#2B7563;" points="99.586,48.699 100.969,48.018 100.969,45.25	100.531,45.601 100.508,45.601 100.244,45.579 100.113,45.492 100.113,45.492 100.047,45.382 99.98,45.118 99.738,43.427	99.805,42.24 99.893,41.845 100.156,41.317 100.531,40.966 100.859,40.79 100.969,40.79 100.969,38.176 100.705,37.67	100.641,37.67 100.574,37.583 100.465,37.473 100.355,37.385 100.201,37.319 100.113,37.275 100.047,37.275 99.98,37.231	99.893,37.231 99.738,37.231 99.65,37.231 99.586,37.275 99.586,48.699 99.586,48.699	"/><polygon style="fill-rule:evenodd;clip-rule:evenodd;fill:#2B7563;" points="100.969,64.538 99.586,64.208 99.586,66.295	99.629,66.295 99.65,66.251 99.738,66.251 99.762,66.251 99.805,66.186 99.805,66.12 99.871,66.076 99.893,66.054 99.893,66.01	99.938,65.966 99.98,65.944 100.047,65.834 100.092,65.812 100.156,65.812 100.201,65.769 100.244,65.769 100.289,65.725	100.355,65.725 100.398,65.725 100.508,65.725 100.553,65.725 100.641,65.769 100.662,65.769 100.705,65.812 100.75,65.769	100.969,65.922 100.969,64.538 100.969,64.538	"/><polygon style="fill-rule:evenodd;clip-rule:evenodd;fill:#2B7563;" points="99.586,96.48 100.332,96.393 100.969,96.349	100.969,78.62 100.881,78.795 100.881,78.994 100.881,79.125 100.881,79.147 100.289,79.367 99.738,79.653 99.586,79.762	99.586,96.48 99.586,96.48	"/><polygon style="fill-rule:evenodd;clip-rule:evenodd;fill:#2B7563;" points="100.969,48.018 101.123,47.952 102.684,47.249	104.199,46.48 105.627,45.535 106.242,45.074 106.242,42.723 106.176,42.723 106.021,42.723 105.824,42.658 105.67,42.591	105.561,42.547 105.473,42.482 105.451,42.372 105.342,42.35 105.318,42.262 105.23,42.13 105.166,41.933 105.121,41.845	105.121,41.779 105.121,41.581 105.166,41.383 105.23,41.251 105.318,41.12 105.342,41.032 105.342,41.01 105.342,41.01	105.318,40.878 105.318,40.79 105.275,40.724 105.275,40.658 105.275,40.57 105.275,40.483 105.318,40.417 105.318,40.351	105.342,40.263 105.342,40.175 105.406,40.109 105.451,40.021 105.518,40 105.561,39.912 105.627,39.89 105.803,39.78	105.869,39.758 105.912,39.758 105.979,39.714 106.045,39.714 106.176,39.714 106.242,39.714 106.242,37.605 106.221,37.605	106.176,37.67 106.154,37.67 106.021,37.67 105.979,37.67 105.934,37.67 105.912,37.605 105.824,37.605 105.803,37.583	105.758,37.583 105.693,37.539 105.166,37.078 105.121,37.122 105.1,37.078 105.033,37.034 104.969,37.012 104.924,37.012	104.857,37.012 104.814,36.967 104.748,36.967 104.682,36.967 104.572,36.967 104.551,37.012 104.463,37.012 104.439,37.012	104.396,37.034 104.33,37.034 102.463,38.637 102.396,38.637 102.332,38.659 102.266,38.703 102.178,38.747 102.111,38.747	102.023,38.791 101.936,38.791 101.805,38.791 101.717,38.791 101.629,38.747 101.562,38.747 101.475,38.703 101.344,38.637	101.211,38.549 101.102,38.44 101.057,38.374 100.969,38.176 100.969,40.79 101.168,40.79 101.277,40.79 101.629,41.076	101.826,41.427 102.068,41.933 102.178,42.504 102.156,43.317 101.871,44.305 101.475,44.833 100.969,45.25 100.969,48.018	"/><polygon style="fill-rule:evenodd;clip-rule:evenodd;fill:#2B7563;" points="100.969,96.349 101.76,96.283 103.188,96.393	105.057,96.612 106.242,96.898 106.242,66.054 106.154,66.01 104.221,65.351 100.969,64.538 100.969,65.922 102.99,67.306	102.924,67.373 102.727,67.438 102.572,67.526 102.396,67.636 102.266,67.79 102.156,67.943 102.068,68.141 102.023,68.207	102.023,68.294 101.98,68.493 101.98,68.668 102.023,68.778 102.023,68.844 100.969,68.427 100.969,69.876 100.992,69.92	101.057,70.14 101.102,70.426 101.102,70.667 101.057,70.931 100.969,71.129 100.969,72.82 100.992,72.82 101.123,72.908	101.211,72.952 101.232,73.018 101.277,73.106 101.365,73.127 101.408,73.238 101.453,73.303 101.453,73.37 101.475,73.545	101.562,73.765 101.562,73.962 101.562,74.117 101.52,74.292 101.453,74.49 101.408,74.6 101.344,74.709 101.232,74.776	101.123,74.929 101.057,74.995 100.969,75.017 100.969,76.445 101.102,76.533 101.211,76.599 101.344,76.708 101.408,76.84	101.475,76.972 101.52,77.06 101.52,77.126 101.562,77.324 101.562,77.434 101.562,77.521 101.52,77.587 101.52,77.675	101.475,77.785 101.52,77.785 101.453,77.895 101.365,77.939 101.277,78.027 101.211,78.115 101.168,78.225 101.102,78.291	101.057,78.378 100.992,78.554 100.969,78.62 100.969,96.349 100.969,96.349	"/><polygon style="fill-rule:evenodd;clip-rule:evenodd;fill:#2B7563;" points="106.242,45.074 106.988,44.525 108.24,43.449	108.24,35.803 108.043,35.914 106.527,37.473 106.506,37.473 106.439,37.495 106.396,37.539 106.373,37.539 106.33,37.583	106.285,37.605 106.264,37.605 106.242,37.605 106.242,39.714 106.264,39.714 106.33,39.758 106.373,39.758 106.439,39.78	106.527,39.78 106.572,39.846 106.725,39.912 106.857,40.021 106.924,40.131 106.988,40.263 107.033,40.351 107.033,40.417	107.1,40.483 107.1,40.57 107.1,40.724 107.1,40.79 107.076,40.878 107.1,40.878 107.1,40.966 107.143,41.032 107.23,41.142	107.297,41.251 107.34,41.361 107.34,41.427 107.385,41.471 107.385,41.537 107.385,41.603 107.385,41.735 107.385,41.823	107.34,41.845 107.297,41.933 107.297,41.999 107.275,42.086 107.23,42.174 107.1,42.262 106.988,42.438 106.924,42.482	106.879,42.547 106.791,42.591 106.615,42.658 106.527,42.702 106.439,42.702 106.373,42.723 106.285,42.723 106.242,42.723	106.242,45.074	"/><polygon style="fill-rule:evenodd;clip-rule:evenodd;fill:#2B7563;" points="106.242,96.898 107.977,97.271 108.24,97.293	108.24,76.489 108.197,76.533 108.109,76.533 108,76.533 107.912,76.467 107.867,76.467 107.801,76.423 107.758,76.401	107.691,76.401 107.648,76.357 107.627,76.292 107.451,76.248 107.385,76.182 107.297,76.05 107.275,75.962 107.275,75.94	107.23,75.896 107.143,75.852 107.1,75.764 107.033,75.654 106.967,75.5 106.924,75.435 106.924,75.369 106.879,75.303	106.879,75.237 106.879,75.083 106.879,74.995 106.924,74.929 106.924,74.841 106.967,74.776 106.988,74.709 107.076,74.578	107.1,74.49 107.209,74.468 107.23,74.424 107.385,74.292 107.582,74.182 107.648,74.138 107.736,74.138 107.912,74.117	108.109,74.117 108.197,74.117 108.24,74.138 108.24,72.095 108.219,72.073 108.152,71.963 108.109,71.941 108.109,71.898	108.109,71.832 108.088,71.788 108.088,71.7 108.088,71.612 108.088,71.546 108.109,71.524 108.043,71.349 108.043,71.283	108.088,71.195 108.109,71.129 108.219,70.953 108.24,70.931 108.24,66.823 107.977,66.713 106.242,66.054 106.242,96.898	106.242,96.898	"/><polygon style="fill-rule:evenodd;clip-rule:evenodd;fill:#2B7563;" points="108.24,43.449 108.264,43.427 109.516,42.24	110.635,40.966 111.668,39.604 111.734,39.472 111.734,35.32 111.734,35.32 111.537,35.496 111.316,35.605 111.031,35.671	110.789,35.715 110.525,35.715 110.285,35.671 110.152,35.649 110.086,35.605 109.449,35.496 109.361,35.54 109.207,35.54	108.857,35.562 108.549,35.671 108.264,35.803 108.24,35.803 108.24,43.449	"/><polygon style="fill-rule:evenodd;clip-rule:evenodd;fill:#2B7563;" points="108.24,97.293 110.285,97.469 111.734,97.426	111.734,85.035 111.646,84.969 111.207,84.618 110.965,84.354 110.723,84.002 110.613,83.783 110.613,83.716 110.043,82.245	109.734,81.52 109.691,81.366 109.691,80.971 109.801,80.597 109.867,80.202 110.043,79.851 110.262,79.542 110.525,79.257	110.986,78.95 111.186,78.906 111.316,78.906 111.383,78.906 111.449,78.95 111.537,78.95 111.559,78.95 111.625,78.994	111.646,79.015 111.689,79.015 111.734,79.147 111.734,79.169 111.734,68.338 111.537,68.25 109.734,67.438 108.24,66.823	108.24,70.931 108.328,70.843 108.439,70.777 108.57,70.711 108.68,70.602 109.691,70.008 109.801,70.03 109.822,70.03	109.932,70.03 109.977,70.03 110.021,70.074 110.086,70.074 110.152,70.074 110.174,70.118 110.219,70.14 110.262,70.184	110.285,70.184 110.328,70.228 110.373,70.25 110.504,70.426 110.635,70.602 110.723,70.821 110.789,70.997 110.834,71.239	110.834,71.436 110.834,71.7 110.746,71.963 110.635,72.249 110.57,72.359 110.504,72.403 110.438,72.425 110.395,72.425	110.328,72.491 110.285,72.491 110.262,72.535 108.615,72.315 108.703,72.359 108.615,72.359 108.57,72.315 108.549,72.315	108.461,72.293 108.439,72.293 108.395,72.249 108.328,72.183 108.24,72.095 108.24,74.138 108.352,74.182 108.395,74.226	108.549,74.292 108.57,74.358 108.68,74.358 108.746,74.38 108.812,74.38 108.9,74.38 108.922,74.38 109.01,74.424 109.098,74.424	109.143,74.468 109.207,74.468 109.252,74.49 109.318,74.534 109.406,74.6 109.471,74.732 109.559,74.841 109.582,74.885	109.582,74.951 109.625,75.017 109.625,75.083 109.625,75.127 109.625,75.259 109.625,75.303 109.582,75.369 109.582,75.479	109.559,75.5 109.559,75.588 109.516,75.61 109.471,75.654 109.449,75.72 109.361,75.764 109.252,75.852 109.143,75.94	109.055,75.962 109.01,75.962 108.922,76.006 108.9,76.006 108.9,76.006 108.791,76.116 108.746,76.204 108.615,76.292	108.504,76.401 108.439,76.423 108.352,76.423 108.264,76.467 108.24,76.489 108.24,97.293 108.24,97.293	"/><polygon style="fill-rule:evenodd;clip-rule:evenodd;fill:#2B7563;" points="111.734,39.472 112.568,38.176 113.381,36.704	114.129,35.144 114.436,34.441 114.393,34.419 114.393,34.332 114.393,34.244 114.371,34.178 114.371,34.09 114.326,34.068	114.26,33.936 114.172,33.826 114.084,33.716 113.975,33.628 113.908,33.606 113.844,33.541 113.732,33.541 113.668,33.497	113.602,33.497 113.447,33.497 113.359,33.497 113.271,33.541 113.205,33.606 113.141,33.606 113.096,33.628 112.92,33.716	112.811,33.782 112.086,35.013 111.998,35.079 111.91,35.188 111.734,35.32 111.734,39.472	"/><polygon style="fill-rule:evenodd;clip-rule:evenodd;fill:#2B7563;" points="111.734,97.426 112.195,97.426 114.041,97.314	115.953,97.096 117.82,96.811 119.951,96.349 128.232,94.438 128.254,94.438 128.299,94.393 128.363,94.328 128.408,94.284	128.451,94.174 128.496,94.13 128.496,94.13 128.496,94.086 128.496,94.086 128.539,94.042 128.539,93.998 128.539,93.976	128.496,93.932 128.496,93.91 128.451,93.866 128.451,93.822 128.408,93.756 127.99,93.515 125.068,92.988 124.607,92.922	123.992,92.746 123.377,92.46 122.828,92.086 122.322,91.669 122.191,91.538 122.125,91.362 122.082,91.054 122.082,91.01	122.082,90.9 122.125,90.834 122.301,90.615 123.135,90.044 123.422,89.934 123.795,89.846 123.883,89.846 128.605,91.516	128.605,85.76 128.232,85.584 126.541,84.815 126.365,84.815 125.816,84.662 125.244,84.574 124.652,84.574 124.344,84.618	123.949,84.706 123.773,84.486 123.312,83.76 123.07,83.409 122.719,82.904 122.85,82.838 123.486,82.596 124.125,82.42	124.762,82.311 125.42,82.311 126.059,82.442 126.672,82.64 126.936,82.706 128.605,83.475 128.605,77.851 128.451,77.874	127.068,78.137 125.707,78.554 124.365,79.125 123.092,79.762 120.127,81.432 119.6,81.673 118.961,81.849 118.303,81.959	117.381,82.003 116.742,81.937 116.15,81.784 115.557,81.52 114.854,81.059 114.371,80.487 113.908,79.895 113.557,79.235	113.316,78.488 113.162,77.763 113.162,76.555 113.359,75.654 113.668,74.732 114.084,73.897 114.635,73.106 115.248,72.403	115.953,71.722 116.326,71.48 116.611,71.239 116.742,71.349 117.205,71.7 117.621,72.139 118.018,72.601 118.303,73.106	118.434,73.37 118.5,73.545 118.369,73.611 117.557,73.897 117.006,74.182 116.545,74.49 116.084,74.929 115.732,75.369	115.424,75.896 115.184,76.401 115.074,76.84 114.986,77.412 114.986,77.719 115.029,78.027 115.184,78.444 115.248,78.554	115.314,78.664 115.424,78.795 115.557,78.994 115.908,79.257 116.215,79.367 116.809,79.499 117.49,79.477 118.127,79.301	118.785,79.059 119.379,78.774 119.643,78.598 123.729,75.764 124.344,75.369 125.201,74.995 126.059,74.709 126.936,74.534	127.881,74.424 128.539,74.38 128.605,74.38 128.605,69.679 127.135,69.525 126.869,69.416 126.584,69.305 126.365,69.196	126.189,68.998 126.059,68.778 126.014,68.558 126.059,68.317 126.168,67.987 126.475,67.658 126.936,67.373 128.605,66.845	128.605,64.604 128.605,64.604 127.947,64.604 127.287,64.67 126.65,64.89 126.014,65.109 125.553,65.351 123.598,66.955	123.092,67.24 122.586,67.438 122.016,67.548 121.467,67.592 119.533,67.373 119.027,67.373 118.369,67.438 117.732,67.592	115.205,68.668 114.92,68.778 114.48,68.91 114.02,68.998 113.557,68.998 113.141,68.91 112.744,68.778 111.734,68.338	111.734,79.169 111.756,79.191 111.844,79.257 111.865,79.345 111.91,79.345 111.91,79.586 111.998,80.004 112.195,80.817	112.504,81.585 112.92,82.355 113.447,83.014 113.711,83.76 113.777,84.112 113.777,84.354 113.711,84.618 113.711,84.662	113.668,84.727 113.557,84.881 113.514,84.969 113.447,85.013 113.271,85.123 113.141,85.188 113.029,85.232 112.965,85.232	112.789,85.276 112.613,85.276 112.438,85.232 112.152,85.188 111.865,85.123 111.734,85.035 111.734,97.426 111.734,97.426	"/><polygon style="fill-rule:evenodd;clip-rule:evenodd;fill:#2B7563;" points="128.605,74.38 129.178,74.424 129.814,74.578	130.43,74.776 131,75.083 131.527,75.479 131.988,75.94 132.406,76.423 132.715,77.016 132.955,77.434 134.537,76.907	134.537,76.84 134.516,76.643 134.516,76.423 134.537,76.313 134.537,76.204 134.582,76.116 134.625,76.006 134.691,75.94	134.758,75.83 134.822,75.72 134.977,75.5 135.131,75.369 135.285,75.259 135.482,75.193 135.68,75.149 135.877,75.149	136.053,75.193 136.25,75.237 136.404,75.303 136.604,75.435 136.713,75.544 136.822,75.698 136.953,75.852 137.041,75.94	137.041,75.896 137.107,75.698 137.174,75.5 137.262,75.347 137.416,75.193 137.459,75.149 137.525,75.083 137.656,75.017	137.744,74.951 137.811,74.929 137.877,74.885 137.986,74.885 138.096,74.841 138.207,74.841 138.404,74.841 138.58,74.885	138.777,74.951 138.865,74.951 139.941,75.698 139.92,75.61 139.92,75.544 139.941,75.303 139.986,75.083 140.029,74.951	140.051,74.841 140.139,74.776 140.162,74.644 140.271,74.578 140.402,74.38 140.6,74.226 140.799,74.117 140.996,74.029	141.105,74.029 141.172,74.006 141.281,74.006 141.523,74.006 141.742,74.029 141.963,74.117 142.16,74.226 142.314,74.358	142.469,74.49 142.578,74.709 142.688,74.885 142.732,74.995 142.732,75.127 142.754,75.193 142.82,75.303 143.436,74.182	143.436,74.182 143.457,74.138 143.5,74.117 143.5,74.073 143.566,74.073 143.588,74.029 143.633,74.029 143.676,74.006	143.742,74.006 143.918,74.006 144.027,74.006 144.137,74.029 144.336,74.226 144.643,74.578 144.906,74.995 145.148,75.435	145.215,75.654 145.281,75.83 145.852,73.962 145.852,73.897 145.873,73.831 145.918,73.765 145.918,73.721 145.961,73.655	146.027,73.611 146.07,73.523 146.115,73.479 146.158,73.436 146.203,73.436 146.225,73.414 146.268,73.37 146.312,73.37	146.334,73.37 146.379,73.326 146.422,73.326 146.555,73.326 146.576,73.326 146.621,73.326 146.664,73.37 146.686,73.37	146.73,73.37 146.773,73.414 146.797,73.414 146.906,73.414 148.619,75.259 148.971,72.557 148.971,72.557 148.971,72.535	148.971,72.491 148.971,72.491 148.971,72.425 148.971,72.403 148.971,72.403 149.037,72.359 149.037,72.359 149.037,72.315	149.037,72.293 149.08,72.293 149.102,72.249 149.102,72.205 149.146,72.205 149.189,72.205 149.213,72.183 149.256,72.183	149.322,72.183 149.41,72.183 149.453,72.183 149.498,72.205 149.52,72.205 149.564,72.205 149.564,72.249 149.607,72.249	149.629,72.293 149.717,72.293 151.387,73.962 151.672,71.612 151.672,71.612 151.695,71.59 151.738,71.502 151.738,71.502	151.783,71.48 151.848,71.415 151.893,71.349 151.914,71.349 151.98,71.305 152.025,71.305 152.047,71.283 152.135,71.283	152.201,71.283 152.266,71.283 152.375,71.283 152.398,71.305 152.441,71.305 152.486,71.349 152.508,71.349 152.551,71.415	152.617,71.415 154.572,72.007 154.133,70.58 154.133,70.536 154.09,70.47 154.09,70.36 154.09,70.184 154.09,70.074	154.133,70.008 154.221,69.789 154.309,69.657 154.418,69.481 154.551,69.372 154.682,69.305 154.836,69.24 154.924,69.196	155.033,69.196 155.121,69.129 155.188,69.129 155.275,69.129 155.385,69.129 155.473,69.196 155.539,69.196 155.605,69.24	155.824,69.305 155.912,69.416 156.088,69.525 156.154,69.657 156.264,69.767 157.143,70.777 157.604,69.261 157.604,69.261	157.648,69.24 157.648,69.24 157.648,69.196 157.648,69.129 157.67,69.129 157.67,69.108 157.715,69.108 157.715,69.108	157.758,69.064 157.758,69.064 157.846,69.02 157.846,69.02 157.912,69.02 157.955,69.02 158,69.02 158.021,69.02 158.021,69.064	158.066,69.064 158.088,69.064 158.088,69.108 158.131,69.108 158.131,69.129 158.176,69.129 158.176,69.196 158.219,69.196	158.219,69.24 158.219,69.261 158.682,69.701 158.682,69.701 158.725,69.723 158.77,69.767 158.791,69.767 158.834,69.789	158.879,69.833 158.9,69.833 158.967,69.833 159.01,69.876 159.033,69.92 159.121,69.876 159.143,69.876 159.23,69.833	159.318,69.833 159.361,69.789 159.471,69.723 159.582,69.613 159.67,69.525 159.713,69.459 159.713,69.372 159.734,69.35	159.734,69.261 159.779,69.196 159.779,69.129 159.822,69.02 159.889,67.899 161.756,67.438 161.756,67.417 161.777,67.373	161.91,67.24 161.955,67.196 161.998,67.13 162.064,67.086 162.064,66.889 162.064,66.581 161.91,66.12 161.471,65.549	160.943,65.021 160.35,64.604 159.471,64.187 158.615,63.901 157.715,63.792 156.836,63.769 156.396,63.792 155.715,63.835	141.105,67.021 140.996,67.021 140.645,67.021 140.271,66.933 139.986,66.889 136.756,68.053 136.471,68.097 136.162,68.097	135.877,68.009 135.637,67.899 135.57,67.899 135.482,67.877 135.395,67.877 135.328,67.833 135.24,67.79 135.219,67.724	135.131,67.658 135.109,67.592 134.998,67.548 134.977,67.482 134.934,67.373 134.889,67.284 134.889,67.196 134.867,67.13	134.867,67.064 134.867,66.845 134.867,66.779 134.889,66.713 134.889,66.625 134.934,66.537 134.998,66.383 135.109,66.295	135.219,66.164 135.35,66.054 135.525,65.966 135.592,65.944 135.68,65.944 135.746,65.9 135.834,65.9 135.988,65.9 136.053,65.9	136.119,65.944 136.25,65.9 137.35,65.769 137.656,65.659 137.854,65.461 137.877,65.351 137.92,65.263 137.877,65.109 137.854,65	137.744,64.89 137.416,64.714 137.041,64.648 136.516,64.56 135.988,64.56 132.361,65.263 131.703,65.263 131.111,65.197	129.111,64.648 128.936,64.67 128.605,64.604 128.605,66.845 129.178,66.669 129.66,66.625 130.188,66.713 130.43,66.823	130.582,67.064 131.221,68.756 131.066,69.064 130.715,69.416 130.275,69.591 130.012,69.701 129.617,69.701 129.154,69.723	128.605,69.679 128.605,74.38	"/><polygon style="fill-rule:evenodd;clip-rule:evenodd;fill:#2B7563;" points="128.605,83.475 128.605,77.851 129.836,77.719	130.232,77.653 130.057,78.005 129.727,78.664 129.463,79.477 129.354,80.268 129.309,81.081 129.375,81.849 129.594,82.662	129.836,83.409 130.232,84.112 130.32,84.266 128.605,83.475 128.605,83.475	"/><polygon style="fill-rule:evenodd;clip-rule:evenodd;fill:#2B7563;" points="128.605,91.516 129.727,91.889 130.979,92.284	132.891,92.746 134.779,93.163 136.713,93.559 138.645,93.822 140.6,94.042 142.094,94.174 148.729,94.789 149.871,94.942	151.453,95.031 153.078,94.987 154.66,94.789 156.088,94.635 157.188,94.393 158.176,94.042 159.186,93.559 160.131,92.965	160.504,92.658 162.307,91.054 162.307,91.01 162.371,90.944 162.438,90.769 162.525,90.593 162.547,90.505 162.656,90.395	162.656,90.286 162.656,90.066 162.656,90 162.613,89.934 162.547,89.824 162.547,89.736 162.525,89.648 162.416,89.583	162.174,89.296 161.91,89.077 161.646,88.835 159.318,87.561 158.33,88.792 158.264,88.792 157.979,88.792 157.715,88.725	157.43,88.66 157.188,88.484 156.945,88.352 156.748,88.132 156.594,87.913 156.506,87.759 156.594,86.243 156.133,86.749	156.023,86.836 155.848,86.902 155.781,86.946 155.715,86.99 155.605,86.99 155.43,87.012 155.32,87.012 155.275,87.012	155.188,87.012 155.145,86.99 155.033,86.99 154.969,86.946 154.793,86.771 154.727,86.661 154.682,86.595 154.617,86.529	154.617,86.441 154.572,86.309 154.551,86.243 154.551,86.177 154.551,86.089 154.551,86.001 154.266,86.133 154.066,86.243	153.805,86.309 153.629,86.309 153.453,86.309 153.32,86.287 153.254,86.243 153.189,86.243 153.078,86.177 152.902,86.089	152.75,85.936 152.596,85.782 152.486,85.496 152.398,85.276 152.375,85.013 152.375,84.837 151.562,85.43 151.541,85.474	151.387,85.496 151.189,85.496 151.123,85.54 151.035,85.54 150.904,85.54 150.684,85.474 150.508,85.386 150.311,85.276	150.156,85.123 150.068,85.057 150.025,84.881 149.674,84.134 148.51,84.618 148.443,84.618 148.377,84.618 148.268,84.618	148.246,84.618 148.158,84.574 148.137,84.53 148.092,84.486 148.025,84.486 147.982,84.42 147.895,84.354 147.85,84.31	147.807,84.244 147.807,84.178 147.785,84.112 147.785,84.068 147.74,84.002 147.74,83.958 147.74,83.827 147.74,83.672	147.564,82.069 145.807,83.497 145.764,83.497 145.521,83.497 145.455,83.497 145.412,83.497 145.391,83.453 145.324,83.453	145.281,83.453 145.281,83.409 145.258,83.409 145.258,83.409 145.215,83.365 145.215,83.365 145.17,83.343 145.17,83.343	145.148,83.299 145.148,83.299 145.148,83.255 145.104,83.255 145.104,83.233 145.104,83.189 145.104,83.189 145.104,83.146	145.104,83.146 145.104,83.102 145.148,80.707 143.324,82.442 143.215,82.53 143.105,82.552 143.039,82.596 142.93,82.596	142.863,82.596 142.688,82.64 142.621,82.64 142.557,82.64 142.512,82.64 142.469,82.596 142.445,82.596 142.336,82.53	142.227,82.42 142.16,82.311 142.094,82.201 142.029,82.179 141.984,82.091 141.984,82.003 141.963,81.959 141.963,81.893	141.963,81.849 141.854,81.893 141.26,82.003 140.645,82.069 139.92,81.937 139.283,81.761 138.689,81.476 138.162,81.125	137.701,80.707 137.262,80.246 136.932,79.697 136.691,79.125 136.229,78.225 135.746,77.763 135.395,77.653 135.24,77.653	135.131,77.719 135.109,77.785 134.977,78.115 134.977,78.225 134.934,78.291 134.934,78.444 135.043,79.015 135.24,79.762	135.57,80.465 135.943,81.125 136.449,81.717 136.998,82.201 137.613,82.662 138.271,83.014 138.623,83.189 138.975,83.299	154.09,88.11 154.199,88.132 154.66,88.352 155.078,88.593 155.473,88.901 155.824,89.252 156.088,89.692 156.197,89.824	156.154,89.89 156.197,89.956 156.197,90.044 156.242,90.242 156.242,90.307 156.242,90.417 156.242,90.483 156.197,90.505	156.197,90.593 156.133,90.659 155.957,90.834 155.539,91.01 154.924,91.164 154.375,91.164 153.848,91.054 153.299,90.9	152.838,90.615 152.375,90.307 151.98,89.934 151.783,89.692 151.672,89.604 151.562,89.648 151.365,89.78 151.123,89.846	150.771,89.934 150.553,89.934 150.311,89.89 150.068,89.846 149.85,89.736 149.629,89.604 149.453,89.472 149.365,89.341	149.277,89.252 149.256,89.143 149.189,89.077 149.146,88.945 149.08,88.725 149.037,88.593 149.037,88.528 148.949,88.572	148.619,88.704 148.268,88.792 147.982,88.879 147.674,88.879 147.346,88.835 147.082,88.769 146.797,88.66 146.555,88.462	146.312,88.242 146.115,88.022 146.027,87.913 145.961,87.715 145.873,87.781 145.676,88 145.455,88.176 145.324,88.308	145.148,88.374 144.84,88.484 144.555,88.572 144.291,88.572 143.984,88.528 143.699,88.462 143.436,88.352 143.172,88.176	142.973,88 142.754,87.759 142.621,87.539 142.512,87.253 142.469,87.056 142.336,87.078 141.92,87.297 141.502,87.429	141.041,87.539 140.6,87.539 140.227,87.473 139.789,87.364 139.393,87.209 139.041,86.99 138.756,86.705 138.426,86.397	138.229,86.001 138.053,85.606 137.965,85.43 137.811,85.54 137.152,86.001 136.449,86.397 135.219,86.705 133.943,86.836	132.691,86.771 131.463,86.639 130.188,86.353 129.002,85.936 128.605,85.76 128.605,91.516 128.605,91.516	"/></g></svg>