<?xml version="1.0" encoding="iso-8859-1"?><!-- Generator: Adobe Illustrator 16.0.0, SVG Export Plug-In . SVG Version: 6.00 Build 0) --><!DOCTYPE svg PUBLIC "-//W3C//DTD SVG 1.1//EN" "http://www.w3.org/Graphics/SVG/1.1/DTD/svg11.dtd"><svg version="1.1" id="Layer_1" xmlns="http://www.w3.org/2000/svg" xmlns:xlink="http://www.w3.org/1999/xlink" x="0px" y="0px" width="192.756px" height="192.756px" viewBox="0 0 192.756 192.756" style="enable-background:new 0 0 192.756 192.756;" xml:space="preserve"><g><polygon style="fill:#FFFFFF;" points="0,0 192.756,0 192.756,192.756 0,192.756	"/><path style="fill:#A70B52;" d="M52.979,135.844c21.796,0,39.467-17.67,39.467-39.466s-17.67-39.466-39.467-39.466	s-39.467,17.67-39.467,39.466S31.182,135.844,52.979,135.844L52.979,135.844z"/><polygon style="fill:#FFFFFF;" points="62.589,110.267 54.416,110.267 54.416,79.377 51.385,79.377 51.385,113.315 54.416,113.315	54.416,113.295 62.589,113.295	"/><path style="fill:#FFFFFF;" d="M82.989,97.642H62.637v-3.031H85.97c0.031,0.586,0.046,1.173,0.046,1.767	c0,18.247-14.792,33.038-33.038,33.038S19.94,114.625,19.94,96.378S34.732,63.34,52.979,63.34c0.481,0,0.961,0.01,1.438,0.031	l-0.004,3.008c-0.476-0.022-0.953-0.033-1.434-0.033c-16.586,0-30.033,13.446-30.033,30.032c0,16.587,13.446,30.032,30.033,30.032	c16.134,0,29.296-12.722,30.002-28.683L82.989,97.642L82.989,97.642z"/><path style="fill:#FFFFFF;" d="M40.655,88.521c2.563,0,4.642-2.078,4.642-4.642s-2.078-4.642-4.642-4.642	c-2.564,0-4.642,2.078-4.642,4.642S38.091,88.521,40.655,88.521L40.655,88.521z"/><polygon style="fill:#808183;" points="112.043,115.75 140.244,115.75 140.244,107.233 123.224,107.233 122.397,107.233	122.397,106.408 122.397,76.735 112.043,76.735	"/><path style="fill:#808183;" d="M174.317,79.482c-3.233-2.505-7.396-3.775-12.364-3.775c-5.899,0-10.828,1.812-14.255,5.236	c-3.577,3.579-5.471,8.851-5.471,15.246c0,6.832,2.002,12.597,5.637,16.229c2.854,2.853,6.656,4.358,11.007,4.358	c9.551,0,11.748-5.725,11.748-5.725v2.631v2.066h8.625V93.714h-17.169v6.895h6.906h0.996c0,0,0.076,8.681-8.08,8.681	c-2.072,0-3.918-0.752-5.338-2.172c-2.213-2.211-3.383-5.937-3.383-10.767c0-8,3.18-12.776,8.504-12.776	c3.326,0,5.826,2.042,6.467,5.137h10.984C178.562,84.215,177.328,81.871,174.317,79.482L174.317,79.482z"/></g></svg>