<?xml version="1.0" encoding="iso-8859-1"?><!-- Generator: Adobe Illustrator 16.0.0, SVG Export Plug-In . SVG Version: 6.00 Build 0) --><!DOCTYPE svg PUBLIC "-//W3C//DTD SVG 1.1//EN" "http://www.w3.org/Graphics/SVG/1.1/DTD/svg11.dtd"><svg version="1.1" id="Layer_1" xmlns="http://www.w3.org/2000/svg" xmlns:xlink="http://www.w3.org/1999/xlink" x="0px" y="0px" width="192.756px" height="192.756px" viewBox="0 0 192.756 192.756" style="enable-background:new 0 0 192.756 192.756;" xml:space="preserve"><g><polygon style="fill-rule:evenodd;clip-rule:evenodd;fill:#FFFFFF;" points="0,0 192.756,0 192.756,192.756 0,192.756 0,0	"/><path style="fill-rule:evenodd;clip-rule:evenodd;" d="M122.393,58.438c-1.701,0-3.08,1.379-3.08,3.08	c0,1.072,0.525,2.012,1.355,2.564l0,0l-10.445,22.417l2.182-29.851l0,0c1.58-0.131,2.82-1.458,2.82-3.073	c0-1.701-1.379-3.08-3.08-3.08s-3.08,1.379-3.08,3.08c0,1.339,0.854,2.456,2.049,2.881l0,0l-7.168,29.146L100.4,53.45l0,0	c1.312-0.352,2.27-1.524,2.27-2.949c0-1.701-1.379-3.08-3.08-3.08s-3.08,1.379-3.08,3.08c0,1.537,1.134,2.777,2.607,3.008l0,0	l-2.858,31.324l-8.306-28.286l0,0c0.981-0.515,1.649-1.53,1.649-2.715c0-1.701-1.379-3.08-3.08-3.08c-1.701,0-3.08,1.379-3.08,3.08	c0,1.701,1.379,3.08,3.08,3.08c0.044,0,0.092-0.004,0.135-0.006l0,0l3.58,29.594L78.174,64.967l0,0	c0.718-0.563,1.18-1.44,1.18-2.424c0-1.701-1.379-3.08-3.08-3.08c-1.701,0-3.08,1.379-3.08,3.08c0,1.701,1.379,3.08,3.08,3.08	c0.224,0,0.443-0.024,0.654-0.07l0,0l10.106,30.297l0,0c2.306,7.046,22.802,7.174,25.876,0l0,0l9.127-31.291l0,0	c0.127,0.016,0.223,0.038,0.354,0.038c1.701,0,3.08-1.379,3.08-3.08C125.473,59.817,124.094,58.438,122.393,58.438L122.393,58.438	L122.393,58.438L122.393,58.438z M99.719,99.09c-5.223,0-9.457-1.574-9.457-3.516s4.234-2.854,9.457-2.854	c5.223,0,8.902,0.912,8.902,2.854S104.941,99.09,99.719,99.09L99.719,99.09L99.719,99.09L99.719,99.09z"/><path style="fill-rule:evenodd;clip-rule:evenodd;" d="M114.566,117.134h3.049l0,0c1.85,0,2.498,0.417,2.498,2.035l0,0v19.932l0,0	c0,1.573-0.648,2.174-2.498,2.174l0,0h-3.049v3.222h31.168v-13.233h-2.947l0,0c0,6.524-2.584,9.955-6.934,9.955l0,0h-8.746v-10.603	h1.717l0,0c2.822,0,4.434,1.251,4.434,3.562l0,0v1.852h3.381v-14.716h-3.381v1.62l0,0c0,2.271-1.703,3.655-4.434,3.655l0,0h-1.717	v-9.455h8.145l0,0c5.971,0,7.211,3.438,7.535,8.575l0,0h2.947v-12.077h-31.168V117.134L114.566,117.134L114.566,117.134z"/><path style="fill-rule:evenodd;clip-rule:evenodd;" d="M100.855,141.219h-7.386v-21.91l0,0c0-1.619,0.648-2.174,2.499-2.174l0,0	h2.776v-3.425H81.511v3.425h2.407l0,0c1.851,0,2.499,0.555,2.499,2.174l0,0v19.792l0,0c0,1.573-0.648,2.175-2.499,2.175l0,0h-2.407	v3.3h29.208v-13.558h-3.33l0,0C107.295,136.338,107.332,141.219,100.855,141.219L100.855,141.219L100.855,141.219L100.855,141.219z	"/><path style="fill-rule:evenodd;clip-rule:evenodd;" d="M59.653,112.769c-10.644,0-17.27,8.208-17.307,15.93	c-0.048,9.995,6.571,16.288,16.983,16.288c11.059,0,17.492-6.2,17.492-16.798C76.821,120.336,69.879,112.769,59.653,112.769	L59.653,112.769L59.653,112.769L59.653,112.769z M59.421,141.346c-5.553,0-8.746-4.966-8.746-12.879	c0-7.728,3.332-11.718,9.024-11.718c5.46,0,8.653,4.083,8.653,12.042C68.353,136.565,65.114,141.346,59.421,141.346L59.421,141.346	L59.421,141.346L59.421,141.346z"/><path style="fill-rule:evenodd;clip-rule:evenodd;" d="M186.68,117.134h3.242v-3.467h-15.668v3.467h2.049l0,0	c0.77,0.118,1.281,0.907,0.514,1.676l0,0l-4.355,4.996l-3.459-4.228l0,0c-0.77-0.896-0.641-2.435,0.768-2.435l0,0l1.582-0.01	v-3.467H153.5v3.467l0,0c4.484,0.128,5.604,0.651,7.223,2.733l0,0l7.254,8.807l-9.865,10.376l0,0	c-1.758,1.99-1.926,2.168-4.611,2.168l0,0v3.313h15.629v-3.313h-3.74l0,0c-1.109,0-1.342-0.805-1.342-1.405	c0-0.602,0.787-1.296,1.111-1.713l0,0l5.508-6.233l5.51,6.558l0,0c0.277,0.37,0.738,0.787,0.738,1.25	c0,0.602-0.508,1.544-1.572,1.544l0,0h-3.098v3.313h17.678v-3.313l0,0c-2.793,0-3.043-0.132-5.549-3.192l0,0l-9.223-10.889	l6.277-6.79l0,0C183.74,117.895,184.645,117.134,186.68,117.134L186.68,117.134L186.68,117.134L186.68,117.134z"/><path style="fill-rule:evenodd;clip-rule:evenodd;" d="M34.996,135.664v1.585l0,0c0,1.897-1.108,2.868-2.033,2.868	c-1.481,0-1.573-1.804-1.666-2.868l0,0v-1.281l0,0c0-4.228-1.921-5.894-4.355-7.175c4.535-1.063,7.544-3.772,7.544-7.521	c0-4.859-3.332-7.636-9.254-7.636l0,0H2.834v3.499h3.033l0,0c1.851,0,2.499,0.428,2.499,2.047l0,0v19.863l0,0	c0,1.573-0.648,2.174-2.499,2.174l0,0H2.834v3.282H20.28v-3.282h-2.407l0,0c-1.851,0-2.499-0.601-2.499-2.174l0,0v-8.843h3.112l0,0	c3.332,0,5.773,1.863,5.958,5.38l0,0l0.278,4.061l0,0c0.185,3.702,2.684,5.691,7.08,5.691c4.674,0,5.772-2.267,5.772-7.08l0,0	v-2.591H34.996L34.996,135.664L34.996,135.664z M20.793,126.185h-5.415v-9.077h4.812l0,0c4.628,0,6.293,1.535,6.293,4.542	C26.484,124.75,24.68,126.185,20.793,126.185L20.793,126.185L20.793,126.185L20.793,126.185z"/></g></svg>