<?xml version="1.0" encoding="iso-8859-1"?><!-- Generator: Adobe Illustrator 16.0.0, SVG Export Plug-In . SVG Version: 6.00 Build 0) --><!DOCTYPE svg PUBLIC "-//W3C//DTD SVG 1.1//EN" "http://www.w3.org/Graphics/SVG/1.1/DTD/svg11.dtd"><svg version="1.1" id="Layer_1" xmlns="http://www.w3.org/2000/svg" xmlns:xlink="http://www.w3.org/1999/xlink" x="0px" y="0px" width="192.756px" height="192.756px" viewBox="0 0 192.756 192.756" style="enable-background:new 0 0 192.756 192.756;" xml:space="preserve"><g><polygon style="fill-rule:evenodd;clip-rule:evenodd;fill:#FFFFFF;" points="0,0 192.756,0 192.756,192.756 0,192.756 0,0	"/><path style="fill-rule:evenodd;clip-rule:evenodd;" d="M104.127,95.542c0,0-1.559-0.964-2.523-1.337c0,0-2.984-1.383-3.576-2.041	c0,0-1.163-1.096-0.482-2.369c0,0,0.285-0.833,1.514-0.833c0,0,1.6,0.088,1.6,1.403v1.855h5.734l-0.01-2.732	c0,0,0.441-4.474-6.754-4.671c0,0-5.659-0.372-7.282,2.676c0,0-0.637,0.68-0.637,3.048v1.711c0,0-0.065,1.974,0.943,3.246	c0,0,0.57,0.834,1.974,1.754c0,0,2.851,1.535,4.562,2.414c0,0,1.727,0.986,1.5,2.555c0,0-0.141,1.611-1.809,1.545	c0,0-1.525-0.068-1.525-1.648v-1.854h-6.11v2.693c0,0-0.171,5.15,7.68,5.15c0,0,7.502,0.152,7.852-5.285v-2.193	C106.777,100.629,107.043,97.297,104.127,95.542L104.127,95.542z"/><polygon style="fill-rule:evenodd;clip-rule:evenodd;" points="74.771,85.458 72.851,97.49 72.402,97.49 70.568,85.566	60.99,85.566 60.51,107.355 66.181,107.355 66.249,90.938 66.695,90.938 69.701,107.352 75.667,107.352 78.636,90.944	79.031,90.944 79.168,107.355 84.869,107.355 84.255,85.458 74.771,85.458	"/><polygon style="fill-rule:evenodd;clip-rule:evenodd;" points="41.013,85.549 37.24,107.33 43.345,107.33 45.58,90.442	46.082,90.442 48.316,107.33 54.42,107.33 50.648,85.549 41.013,85.549	"/><path style="fill-rule:evenodd;clip-rule:evenodd;" d="M169.115,95.242v3.213h1.566v3.449c0,1.686-1.441,1.717-1.441,1.717	c-1.752,0-1.686-1.602-1.686-1.602v-11.93c0-1.229,1.555-1.295,1.555-1.295c1.492,0,1.502,1.466,1.502,1.466v1.814h5.748	c0.188-3.541-0.518-4.398-0.518-4.398c-1.426-3.202-6.82-3.027-6.82-3.027c-8.289,0-7.369,6.36-7.369,6.36v11.535	c0.178,5.965,8.346,5.359,8.484,5.354c3.633-0.402,4.73-1.557,4.73-1.557c1.01-0.75,1.27-1.789,1.27-1.789	c0.289-0.605,0.361-2.533,0.361-2.533v-6.777H169.115L169.115,95.242z"/><polygon style="fill-rule:evenodd;clip-rule:evenodd;" points="150.062,98.787 149.812,98.787 143.979,85.464 137,85.464	137,107.357 142.68,107.357 142.34,94.036 142.594,94.036 148.637,107.357 155.404,107.357 155.404,85.462 149.652,85.462	150.062,98.787	"/><path style="fill-rule:evenodd;clip-rule:evenodd;" d="M123.135,101.902c0,0,0.082,1.797-1.584,1.797c0,0-1.752,0.094-1.752-1.752	l-0.018-16.47h-6.23v16.339c0,0-0.639,6.184,8.088,6.184c0,0,7.584,0.09,7.584-5.9V85.478h-6.088V101.902L123.135,101.902z"/><path style="fill-rule:evenodd;clip-rule:evenodd;" d="M29.136,95.542c0,0-1.557-0.964-2.522-1.336c0,0-2.982-1.382-3.574-2.041	c0,0-1.163-1.098-0.481-2.368c0,0,0.284-0.833,1.512-0.833c0,0,1.601,0.087,1.601,1.402v1.855h5.736l-0.011-2.733	c0,0,0.438-4.474-6.754-4.67c0,0-0.542-0.035-1.337,0.005c0,0-4.357,0.234-5.915,2.624c-0.009,0.018-0.022,0.031-0.031,0.047	c0,0-0.636,0.679-0.636,3.048v1.711c0,0-0.066,1.974,0.943,3.246c0,0,0.57,0.834,1.974,1.754c0,0,2.85,1.535,4.561,2.414	c0,0,1.729,0.984,1.5,2.555c0,0-0.141,1.611-1.808,1.545c0,0-1.525-0.068-1.525-1.648v-1.855h-6.111v2.695	c0,0-0.171,5.15,7.68,5.15c0,0,7.5,0.152,7.853-5.285v-2.191C31.791,100.631,32.053,97.297,29.136,95.542L29.136,95.542z"/></g></svg>