<?xml version="1.0" encoding="iso-8859-1"?><!-- Generator: Adobe Illustrator 16.0.0, SVG Export Plug-In . SVG Version: 6.00 Build 0) --><!DOCTYPE svg PUBLIC "-//W3C//DTD SVG 1.1//EN" "http://www.w3.org/Graphics/SVG/1.1/DTD/svg11.dtd"><svg version="1.1" id="Layer_1" xmlns="http://www.w3.org/2000/svg" xmlns:xlink="http://www.w3.org/1999/xlink" x="0px" y="0px" width="192.756px" height="192.756px" viewBox="0 0 192.756 192.756" style="enable-background:new 0 0 192.756 192.756;" xml:space="preserve"><g><polygon style="fill-rule:evenodd;clip-rule:evenodd;fill:#FFFFFF;" points="0,0 192.756,0 192.756,192.756 0,192.756 0,0	"/><polygon style="fill-rule:evenodd;clip-rule:evenodd;fill:#BD3B2F;" points="2.834,82.899 41.967,82.899 41.967,89.585	30.231,89.585 30.231,109.857 14,109.857 14,89.585 2.834,89.585 2.834,82.899	"/><polygon style="fill-rule:evenodd;clip-rule:evenodd;fill:#BD3B2F;" points="43.187,82.899 74.431,82.899 74.431,89.585	59.323,89.585 59.323,93.262 73.783,93.262 73.783,99.283 59.323,99.283 59.323,103.531 76.87,103.531 76.87,109.857	43.187,109.857 43.187,82.899	"/><polygon style="fill-rule:evenodd;clip-rule:evenodd;fill:#BD3B2F;" points="78.87,82.899 113.506,82.899 113.506,89.262	95.16,89.262 95.16,93.262 110,93.262 110,99.283 95.16,99.283 95.16,109.857 78.87,109.857 78.87,82.899	"/><polygon style="fill-rule:evenodd;clip-rule:evenodd;fill:#BD3B2F;" points="155.285,82.899 171.574,82.899 171.574,103.531	189.922,103.531 189.922,109.857 155.285,109.857 155.285,82.899	"/><path style="fill-rule:evenodd;clip-rule:evenodd;fill:#BD3B2F;" d="M138.33,82.899h-17.107l-16.785,26.958h8.078l3.791-5.906	h16.289l3.6,5.906h18.537L138.33,82.899L138.33,82.899z M118.82,99.016l5.83-9.43l5.582,9.43H118.82L118.82,99.016z"/></g></svg>