<?xml version="1.0" encoding="iso-8859-1"?><!-- Generator: Adobe Illustrator 16.0.0, SVG Export Plug-In . SVG Version: 6.00 Build 0) --><!DOCTYPE svg PUBLIC "-//W3C//DTD SVG 1.1//EN" "http://www.w3.org/Graphics/SVG/1.1/DTD/svg11.dtd"><svg version="1.1" id="Layer_1" xmlns="http://www.w3.org/2000/svg" xmlns:xlink="http://www.w3.org/1999/xlink" x="0px" y="0px" width="192.756px" height="192.756px" viewBox="0 0 192.756 192.756" style="enable-background:new 0 0 192.756 192.756;" xml:space="preserve"><g><polygon style="fill-rule:evenodd;clip-rule:evenodd;fill:#FFFFFF;" points="0,0 192.756,0 192.756,192.756 0,192.756 0,0	"/><polygon style="fill-rule:evenodd;clip-rule:evenodd;fill:#B44533;" points="17.252,110.42 9.816,110.42 9.816,89.105	1.217,89.105 1.217,82.707 26.309,82.707 26.309,89.105 17.252,89.105 17.252,110.42 17.252,110.42	"/><path style="fill-rule:evenodd;clip-rule:evenodd;fill:#B44533;" d="M29.827,90.02c1.122-6.523,6.938-7.479,12.506-7.479	c9.556,0,12.921,2.368,12.921,12.381c0,10.262-0.249,15.705-12.713,15.705c-4.944,0-10.844-0.373-12.506-6.065	c-0.54-1.87-0.582-3.822-0.582-5.775l0,0V96.75l0,0C29.453,94.548,29.453,92.222,29.827,90.02L29.827,90.02L29.827,90.02	L29.827,90.02z M37.056,98.287c0,3.906,0.083,5.983,4.695,5.983c5.069,0,5.858-1.247,5.858-5.983c0-1.329,0.042-2.7,0.042-4.03	c0-3.698-0.582-5.359-4.57-5.359c-5.816,0-5.9,0.582-6.024,7.727l0,0V98.287L37.056,98.287L37.056,98.287z"/><path style="fill-rule:evenodd;clip-rule:evenodd;fill:#B44533;" d="M76.979,91.349c0-2.826-0.998-3.199-3.656-3.199l0,0h-0.748	l0,0c-1.953,0-4.03,0.083-4.03,2.534c0,1.704,0.499,2.493,2.285,2.618c6.439,0.54,14.043-0.748,14.043,8.185	c0,2.369,0,5.36-1.953,7.022c-2.286,1.911-5.443,2.077-8.351,2.077l0,0h-1.828l0,0c-7.645,0-11.634-0.332-11.634-9.141l0,0h7.063	l0,0c0,2.077,0.499,3.324,2.825,3.324l0,0h3.199l0,0c1.87,0,3.365-0.25,3.365-2.743c0-2.451-1.454-2.451-3.532-2.575	c-8.018-0.54-12.879,0.207-12.879-9.016c0-4.82,1.911-7.354,6.855-7.728c1.62-0.125,3.24-0.208,4.861-0.208	c6.44,0,11.218,0.125,11.218,7.978c0,0.291-0.042,0.582-0.042,0.873l0,0H76.979L76.979,91.349L76.979,91.349z"/><polygon style="fill-rule:evenodd;clip-rule:evenodd;fill:#B44533;" points="115.188,110.42 107.75,110.42 107.75,99.534	98.111,99.534 98.111,110.42 90.674,110.42 90.674,82.707 98.111,82.707 98.111,93.177 107.75,93.177 107.75,82.707	115.188,82.707 115.188,110.42 115.188,110.42	"/><polygon style="fill-rule:evenodd;clip-rule:evenodd;fill:#B44533;" points="129.709,110.42 122.273,110.42 122.273,82.707	129.709,82.707 129.709,110.42 129.709,110.42	"/><path style="fill-rule:evenodd;clip-rule:evenodd;fill:#B44533;" d="M136.842,82.707h15.082l0,0c5.027,0,8.268,1.371,8.268,7.063	c0,3.199-0.291,5.775-4.32,6.44l0,0v0.248l0,0c3.74,0.333,4.777,2.327,4.777,5.983c0,6.232-2.076,7.978-8.6,7.978l0,0h-15.207	V82.707L136.842,82.707L136.842,82.707z M149.016,93.8c2.037-0.083,3.822,0.167,3.822-2.368c0-1.994-0.539-2.618-2.533-2.618l0,0	h-6.025V93.8H149.016L149.016,93.8L149.016,93.8z M149.225,104.312c2.326,0,4.029-0.042,4.029-2.742	c0-2.576-1.205-2.659-3.531-2.659l0,0h-5.443v5.401H149.225L149.225,104.312L149.225,104.312z"/><path style="fill-rule:evenodd;clip-rule:evenodd;fill:#B44533;" d="M183.576,110.42h7.562l-8.436-27.713h-11.258l-8.311,27.713	h7.729l1.584-5.567h9.523L183.576,110.42L183.576,110.42L183.576,110.42z M173.973,99.493l3.205-11.26l3.248,11.26H173.973	L173.973,99.493L173.973,99.493z"/></g></svg>